{"glyphs":{"0":{"ha":760,"x_min":85,"x_max":675,"o":"m 675 403 q 598 95 675 204 q 381 -14 521 -14 q 163 96 242 -14 q 85 406 85 206 l 85 585 q 162 891 85 781 q 380 1002 240 1002 q 598 891 520 1002 q 675 582 675 781 l 675 403 m 639 585 q 571 865 639 764 q 380 965 504 965 q 188 864 255 965 q 121 581 121 764 l 121 404 q 190 124 121 225 q 381 23 258 23 q 572 124 505 23 q 639 408 639 225 l 639 585 z "},"1":{"ha":760,"x_min":127,"x_max":447,"o":"m 447 0 l 410 0 l 410 941 l 127 835 l 127 875 l 439 990 l 447 990 l 447 0 z "},"2":{"ha":760,"x_min":79,"x_max":694,"o":"m 694 0 l 104 0 l 104 37 l 441 425 q 564 597 524 522 q 604 736 604 673 q 541 904 604 844 q 363 964 478 964 q 237 931 294 964 q 148 839 180 898 q 116 709 116 781 l 79 709 q 116 856 79 788 q 218 962 153 924 q 363 1001 283 1001 q 568 931 495 1001 q 642 736 642 861 q 512 460 642 621 l 450 385 l 152 37 l 694 37 l 694 0 z "},"3":{"ha":760,"x_min":70,"x_max":683,"o":"m 283 522 l 366 522 q 553 584 481 524 q 625 736 625 644 q 561 903 625 841 q 382 964 496 964 q 199 899 271 964 q 127 728 127 834 l 91 728 q 129 869 91 807 q 234 966 167 932 q 382 1001 301 1001 q 586 929 511 1001 q 661 733 661 857 q 611 593 661 654 q 477 505 562 531 q 628 421 574 483 q 683 262 683 359 q 602 61 683 136 q 389 -14 522 -14 q 223 25 299 -14 q 109 127 147 64 q 70 275 70 191 l 106 275 q 186 95 106 166 q 389 23 267 23 q 578 86 510 23 q 646 259 646 149 q 573 426 646 368 q 360 484 500 484 l 283 484 l 283 522 z "},"4":{"ha":760,"x_min":56,"x_max":742,"o":"m 571 306 l 742 306 l 742 269 l 571 269 l 571 0 l 534 0 l 534 269 l 56 269 l 56 290 l 527 987 l 571 987 l 571 306 m 113 306 l 534 306 l 534 943 l 477 850 l 113 306 z "},"5":{"ha":760,"x_min":123,"x_max":694,"o":"m 157 517 l 203 987 l 684 987 l 684 951 l 236 951 l 196 555 q 289 603 231 585 q 403 621 347 621 q 615 537 536 621 q 694 315 694 453 q 623 70 694 154 q 416 -14 551 -14 q 212 59 290 -14 q 123 260 134 132 l 161 260 q 237 83 172 144 q 416 23 302 23 q 598 97 538 23 q 657 313 657 170 q 588 511 657 437 q 404 585 519 585 q 279 566 332 585 q 184 506 227 547 l 157 517 z "},"6":{"ha":760,"x_min":87,"x_max":687,"o":"m 570 1001 l 570 964 q 248 842 362 964 q 124 497 133 719 q 238 608 163 567 q 401 649 313 649 q 609 560 532 649 q 687 326 687 471 q 652 153 687 231 q 552 31 616 75 q 408 -14 488 -14 q 244 28 317 -14 q 130 149 171 71 q 87 326 88 227 l 87 448 q 211 856 87 711 q 570 1001 335 1001 m 397 612 q 223 558 302 612 q 123 421 144 503 l 123 334 q 203 109 123 195 q 408 22 282 22 q 582 110 513 22 q 650 326 650 198 q 583 535 650 457 q 397 612 515 612 z "},"7":{"ha":760,"x_min":52,"x_max":683,"o":"m 683 964 l 248 0 l 211 0 l 641 951 l 52 951 l 52 987 l 683 987 l 683 964 z "},"8":{"ha":760,"x_min":68,"x_max":697,"o":"m 669 736 q 617 592 669 654 q 485 505 566 530 q 640 412 582 479 q 697 257 697 344 q 611 59 697 132 q 383 -14 526 -14 q 153 59 238 -14 q 68 257 68 132 q 124 412 68 345 q 277 505 180 479 q 145 592 195 530 q 96 736 96 654 q 174 930 96 859 q 380 1001 252 1001 q 589 928 509 1001 q 669 736 669 856 m 660 254 q 582 421 660 355 q 382 487 504 487 q 182 421 259 487 q 104 254 104 356 q 180 86 104 149 q 383 23 256 23 q 584 86 508 23 q 660 254 660 150 m 632 740 q 559 900 632 836 q 380 964 487 964 q 202 903 271 964 q 132 740 132 841 q 201 584 132 644 q 382 524 271 524 q 562 584 492 524 q 632 740 632 645 z "},"9":{"ha":760,"x_min":70,"x_max":673,"o":"m 637 491 q 525 365 601 413 q 355 317 450 317 q 208 361 273 317 q 106 481 143 405 q 70 650 70 558 q 107 828 70 747 q 212 955 144 909 q 360 1001 279 1001 q 593 902 513 1001 q 673 615 673 802 l 673 502 q 562 120 673 252 q 235 -14 451 -11 l 202 -14 l 203 23 l 233 23 q 534 144 431 25 q 637 491 637 262 m 355 354 q 532 413 455 354 q 637 570 610 472 l 637 612 q 566 874 637 783 q 363 964 495 964 q 231 922 290 964 q 139 805 172 879 q 106 650 106 732 q 138 500 106 569 q 227 393 170 431 q 355 354 283 354 z "},"\u0000":{"ha":0,"x_min":0,"x_max":0,"o":""},"\u0002":{"ha":0,"x_min":0,"x_max":0,"o":""},"\r":{"ha":332,"x_min":0,"x_max":0,"o":""}," ":{"ha":332,"x_min":0,"x_max":0,"o":""},"!":{"ha":269,"x_min":100,"x_max":175,"o":"m 150 272 l 113 272 l 113 987 l 150 987 l 150 272 m 100 33 q 111 60 100 49 q 137 71 121 71 q 164 60 153 71 q 175 33 175 49 q 164 7 175 18 q 137 -4 153 -4 q 111 7 121 -4 q 100 33 100 18 z "},"\"":{"ha":353,"x_min":102,"x_max":279,"o":"m 142 945 l 136 761 l 102 761 q 105 1042 105 943 l 142 1042 l 142 945 m 279 945 l 272 761 l 238 761 l 242 943 l 242 1042 l 279 1042 l 279 945 z "},"#":{"ha":760,"x_min":35,"x_max":791,"o":"m 503 278 l 256 278 l 206 0 l 168 0 l 218 278 l 35 278 l 35 313 l 225 313 l 290 669 l 86 669 l 86 705 l 296 705 l 347 987 l 385 987 l 334 705 l 581 705 l 633 987 l 671 987 l 619 705 l 791 705 l 791 669 l 612 669 l 547 313 l 741 313 l 741 278 l 541 278 l 490 0 l 452 0 l 503 278 m 263 313 l 509 313 l 574 669 l 327 669 l 263 313 z "},"$":{"ha":760,"x_min":82,"x_max":679,"o":"m 642 233 q 619 335 642 295 q 540 410 595 376 q 375 481 484 444 q 215 554 267 519 q 139 637 163 590 q 114 753 114 685 q 186 930 114 863 q 376 1001 259 997 l 376 1128 l 413 1128 l 413 1001 q 606 918 538 994 q 673 710 673 842 l 637 710 q 571 896 637 825 q 393 966 506 966 q 217 907 283 966 q 151 754 151 848 q 173 649 151 688 q 246 579 195 610 q 390 515 297 547 q 532 459 483 484 q 614 401 582 434 q 663 329 647 369 q 679 235 679 289 q 609 60 679 127 q 420 -14 538 -7 l 420 -141 l 383 -141 l 383 -14 q 161 67 239 -9 q 82 277 82 144 l 119 277 q 194 90 119 157 q 397 22 269 22 q 573 83 504 22 q 642 233 642 144 z "},"%":{"ha":1036,"x_min":77,"x_max":958,"o":"m 77 798 q 130 943 77 885 q 262 1002 183 1002 q 393 943 341 1002 q 446 794 446 884 l 446 745 q 394 601 446 659 q 263 543 342 543 q 131 600 184 543 q 77 749 77 658 l 77 798 m 115 745 q 155 627 115 675 q 263 580 195 580 q 368 627 328 580 q 408 749 408 673 l 408 798 q 368 918 408 871 q 262 964 328 964 q 156 918 197 964 q 115 793 115 871 l 115 745 m 590 242 q 643 388 590 330 q 774 446 695 446 q 906 388 853 446 q 958 237 958 330 l 958 189 q 906 44 958 102 q 775 -14 853 -14 q 643 43 696 -14 q 590 193 590 101 l 590 242 m 627 189 q 668 70 627 117 q 775 23 708 23 q 881 70 842 23 q 921 193 921 117 l 921 242 q 881 363 921 319 q 774 408 842 408 q 667 362 707 408 q 627 239 627 317 l 627 189 m 286 89 l 256 110 l 738 882 l 768 861 l 286 89 z "},"&":{"ha":846,"x_min":78,"x_max":811,"o":"m 286 544 q 200 675 227 617 q 174 791 174 734 q 232 944 174 887 q 381 1002 289 1002 q 517 952 466 1002 q 568 823 568 902 q 441 625 568 730 l 335 541 l 657 175 q 735 429 735 283 l 772 429 q 682 146 772 268 l 811 0 l 766 0 l 659 119 q 372 -14 526 -14 q 157 55 236 -14 q 78 239 78 123 q 116 370 78 305 q 252 517 155 435 l 286 544 m 372 23 q 516 55 448 23 q 635 147 584 87 l 308 518 l 273 490 q 154 361 193 421 q 115 239 115 300 q 185 83 115 142 q 372 23 255 23 m 212 793 q 313 566 212 686 l 432 660 q 530 823 530 742 q 489 925 530 885 q 381 965 447 965 q 258 917 304 965 q 212 793 212 869 z "},"'":{"ha":231,"x_min":92,"x_max":136,"o":"m 136 927 l 126 761 l 92 761 l 98 926 l 98 1042 l 136 1042 l 136 927 z "},"(":{"ha":412,"x_min":100,"x_max":394,"o":"m 100 397 q 136 686 100 544 q 238 940 172 827 q 381 1101 304 1053 l 394 1072 q 269 924 328 1027 q 174 686 210 821 q 137 418 139 550 l 137 382 q 171 110 137 248 q 265 -136 205 -28 q 394 -290 326 -244 l 381 -319 q 238 -162 302 -269 q 137 89 173 -54 q 100 397 100 231 z "},")":{"ha":422,"x_min":19,"x_max":313,"o":"m 313 384 q 276 89 313 231 q 175 -162 240 -54 q 32 -319 111 -269 l 19 -290 q 150 -132 90 -242 q 243 113 210 -22 q 276 400 276 249 q 241 675 276 537 q 147 920 207 813 q 19 1072 87 1027 l 32 1101 q 175 940 109 1053 q 277 686 241 827 q 313 384 313 544 z "},"*":{"ha":581,"x_min":20,"x_max":564,"o":"m 267 690 l 20 774 l 33 810 l 278 720 l 279 987 l 317 987 l 312 720 l 551 817 l 564 781 l 320 688 l 489 473 l 457 450 l 293 669 l 138 448 l 108 470 l 267 690 z "},"+":{"ha":781,"x_min":50,"x_max":726,"o":"m 400 476 l 726 476 l 726 440 l 400 440 l 400 99 l 363 99 l 363 440 l 50 440 l 50 476 l 363 476 l 363 818 l 400 818 l 400 476 z "},",":{"ha":260,"x_min":62,"x_max":159,"o":"m 87 -173 l 62 -151 q 122 -5 117 -81 l 123 108 l 159 108 l 159 9 q 87 -173 157 -99 z "},"-":{"ha":412,"x_min":41,"x_max":360,"o":"m 360 433 l 41 433 l 41 470 l 360 470 l 360 433 z "},".":{"ha":298,"x_min":100,"x_max":175,"o":"m 100 33 q 111 60 100 49 q 137 71 121 71 q 164 60 153 71 q 175 33 175 49 q 164 7 175 18 q 137 -4 153 -4 q 111 7 121 -4 q 100 33 100 18 z "},"/":{"ha":530,"x_min":28,"x_max":481,"o":"m 68 -85 l 28 -85 l 441 987 l 481 987 l 68 -85 z "},":":{"ha":247,"x_min":81,"x_max":160,"o":"m 81 33 q 92 60 81 49 q 119 71 103 71 q 145 60 134 71 q 157 33 157 49 q 145 7 157 18 q 119 -4 134 -4 q 92 7 103 -4 q 81 33 81 18 m 85 686 q 96 712 85 701 q 122 724 106 724 q 149 712 138 724 q 160 686 160 701 q 149 659 160 670 q 122 648 138 648 q 96 659 106 648 q 85 686 85 670 z "},";":{"ha":247,"x_min":55,"x_max":161,"o":"m 85 686 q 96 712 85 701 q 123 724 107 724 q 150 712 138 724 q 161 686 161 701 q 150 659 161 670 q 123 648 138 648 q 96 659 107 648 q 85 686 85 670 m 80 -173 l 55 -151 q 115 -5 110 -81 l 115 108 l 152 108 l 152 9 q 80 -173 149 -99 z "},"<":{"ha":714,"x_min":56,"x_max":623,"o":"m 105 452 l 623 218 l 623 178 l 56 435 l 56 469 l 623 725 l 623 686 l 105 452 z "},"=":{"ha":774,"x_min":100,"x_max":665,"o":"m 665 572 l 100 572 l 100 608 l 665 608 l 665 572 m 665 296 l 100 296 l 100 332 l 665 332 l 665 296 z "},">":{"ha":714,"x_min":77,"x_max":644,"o":"m 591 453 l 77 687 l 77 727 l 644 471 l 644 437 l 77 180 l 77 220 l 591 453 z "},"?":{"ha":606,"x_min":63,"x_max":543,"o":"m 268 271 q 291 396 269 347 q 374 501 313 444 q 460 593 435 558 q 495 665 484 627 q 507 754 507 702 q 454 909 507 852 q 311 965 402 965 q 157 907 213 965 q 100 757 101 848 l 63 757 q 134 934 64 867 q 311 1001 204 1001 q 480 934 417 1001 q 543 753 543 867 q 513 614 543 675 q 394 473 482 553 q 304 271 304 404 l 268 271 m 252 33 q 262 60 252 49 q 289 71 273 71 q 316 60 304 71 q 327 33 327 49 q 316 7 327 18 q 289 -4 304 -4 q 262 7 273 -4 q 252 33 252 18 z "},"@":{"ha":1290,"x_min":81,"x_max":1213,"o":"m 1200 355 q 1163 163 1197 250 q 1074 31 1129 75 q 949 -14 1019 -14 q 840 28 882 -14 q 790 142 798 69 q 564 -14 715 -14 q 427 71 472 -14 q 394 296 382 155 q 492 568 410 466 q 690 670 574 670 q 825 625 768 670 l 860 595 l 827 199 q 852 70 819 115 q 951 24 885 24 q 1098 111 1042 24 q 1162 355 1154 199 q 1053 776 1177 633 q 678 918 930 918 q 402 842 526 918 q 207 631 278 766 q 127 324 136 495 q 176 16 119 151 q 348 -195 233 -119 q 619 -270 463 -270 q 740 -255 680 -270 q 843 -216 800 -241 l 859 -247 q 747 -291 816 -275 q 616 -307 678 -307 q 325 -231 447 -307 q 142 -11 203 -155 q 90 324 81 132 q 173 658 98 514 q 380 879 248 802 q 681 957 512 957 q 1080 801 947 957 q 1200 355 1213 646 m 430 189 q 472 67 437 111 q 563 23 507 23 q 703 76 648 23 q 792 233 758 128 l 821 577 q 688 633 774 633 q 537 565 602 633 q 444 378 471 497 q 430 189 421 275 z "},"A":{"ha":829,"x_min":22,"x_max":806,"o":"m 656 295 l 172 295 l 62 0 l 22 0 l 392 987 l 437 987 l 806 0 l 766 0 l 656 295 m 186 332 l 642 332 l 414 943 l 186 332 z "},"B":{"ha":838,"x_min":136,"x_max":763,"o":"m 136 0 l 136 987 l 395 987 q 636 923 555 987 q 718 734 718 858 q 673 586 718 645 q 545 511 627 527 q 701 430 638 498 q 763 272 763 361 q 681 73 763 146 q 454 0 600 0 l 136 0 m 172 488 l 172 37 l 458 37 q 655 99 583 37 q 726 271 726 161 q 657 425 726 364 q 472 488 588 486 l 172 488 m 172 524 l 409 524 q 612 576 544 524 q 681 737 681 628 q 404 951 681 947 l 172 951 l 172 524 z "},"C":{"ha":900,"x_min":98,"x_max":807,"o":"m 807 302 q 702 68 793 150 q 455 -14 611 -14 q 269 40 350 -14 q 143 191 188 93 q 98 415 98 289 l 98 568 q 142 793 98 694 q 268 947 186 892 q 455 1001 349 1001 q 701 920 610 1001 q 807 686 793 838 l 770 686 q 675 893 755 823 q 455 964 596 964 q 223 856 311 964 q 134 565 134 747 l 134 420 q 174 213 134 303 q 287 73 213 123 q 455 23 360 23 q 676 93 597 23 q 770 302 756 163 l 807 302 z "},"D":{"ha":909,"x_min":136,"x_max":817,"o":"m 136 0 l 136 987 l 409 987 q 616 933 524 987 q 762 781 709 879 q 817 562 815 683 l 817 433 q 765 211 817 310 q 620 56 713 112 q 412 0 527 1 l 136 0 m 172 951 l 172 37 l 409 37 q 598 87 513 37 q 731 228 683 138 q 780 429 779 319 l 780 556 q 733 757 780 667 q 601 898 686 847 q 414 951 517 949 l 172 951 z "},"E":{"ha":791,"x_min":136,"x_max":736,"o":"m 667 490 l 172 490 l 172 37 l 736 37 l 736 0 l 136 0 l 136 987 l 736 987 l 736 951 l 172 951 l 172 526 l 667 526 l 667 490 z "},"F":{"ha":795,"x_min":136,"x_max":747,"o":"m 678 486 l 172 486 l 172 0 l 136 0 l 136 987 l 747 987 l 747 951 l 172 951 l 172 524 l 678 524 l 678 486 z "},"G":{"ha":954,"x_min":114,"x_max":831,"o":"m 831 106 q 701 20 794 54 q 494 -14 607 -14 q 298 40 385 -14 q 164 191 212 94 q 114 412 115 289 l 114 582 q 161 800 114 703 q 292 948 208 896 q 483 1001 377 1001 q 723 926 630 1001 q 830 720 815 850 l 793 720 q 695 901 775 838 q 483 964 615 964 q 242 858 334 964 q 151 578 151 751 l 151 420 q 194 214 151 304 q 315 73 237 123 q 494 23 393 23 q 678 52 593 23 q 795 123 763 81 l 795 410 l 493 410 l 493 448 l 831 448 l 831 106 z "},"H":{"ha":975,"x_min":136,"x_max":840,"o":"m 840 0 l 803 0 l 803 490 l 172 490 l 172 0 l 136 0 l 136 987 l 172 987 l 172 526 l 803 526 l 803 987 l 840 987 l 840 0 z "},"I":{"ha":362,"x_min":163,"x_max":199,"o":"m 199 0 l 163 0 l 163 987 l 199 987 l 199 0 z "},"J":{"ha":763,"x_min":61,"x_max":631,"o":"m 594 987 l 631 987 l 631 300 q 553 72 631 157 q 346 -14 475 -14 q 134 60 208 -14 q 61 272 61 134 l 98 272 q 160 87 98 151 q 346 23 222 23 q 523 96 454 23 q 594 293 592 168 l 594 987 z "},"K":{"ha":882,"x_min":136,"x_max":831,"o":"m 330 519 l 172 374 l 172 0 l 136 0 l 136 987 l 172 987 l 172 416 l 335 576 l 745 987 l 798 987 l 357 545 l 831 0 l 784 0 l 330 519 z "},"L":{"ha":717,"x_min":136,"x_max":680,"o":"m 173 37 l 680 37 l 680 0 l 136 0 l 136 987 l 173 987 l 173 37 z "},"M":{"ha":1191,"x_min":136,"x_max":1055,"o":"m 188 987 l 594 54 l 1002 987 l 1055 987 l 1055 0 l 1019 0 l 1019 933 l 609 0 l 580 0 l 172 928 l 172 0 l 136 0 l 136 987 l 188 987 z "},"N":{"ha":983,"x_min":136,"x_max":847,"o":"m 847 0 l 810 0 l 173 925 l 173 0 l 136 0 l 136 987 l 173 987 l 810 64 l 810 987 l 847 987 l 847 0 z "},"O":{"ha":925,"x_min":90,"x_max":835,"o":"m 835 420 q 789 193 835 292 q 659 40 743 94 q 463 -14 574 -14 q 193 105 296 -14 q 90 425 90 224 l 90 568 q 136 794 90 695 q 267 947 182 893 q 462 1001 352 1001 q 657 947 572 1001 q 789 794 743 893 q 835 568 835 694 l 835 420 m 798 569 q 707 856 798 748 q 462 964 616 964 q 218 857 309 964 q 127 564 127 749 l 127 420 q 169 211 127 302 q 286 72 210 121 q 463 23 361 23 q 708 131 618 23 q 798 425 798 239 l 798 569 z "},"P":{"ha":834,"x_min":136,"x_max":763,"o":"m 172 417 l 172 0 l 136 0 l 136 987 l 444 987 q 679 911 595 987 q 763 699 763 835 q 681 492 763 565 q 449 417 600 418 l 172 417 m 172 454 l 444 454 q 652 518 578 454 q 726 698 726 583 q 652 884 726 817 q 444 951 578 951 l 172 951 l 172 454 z "},"Q":{"ha":925,"x_min":90,"x_max":835,"o":"m 835 420 q 781 177 835 281 q 627 22 727 73 l 808 -155 l 781 -178 l 589 7 q 463 -14 528 -14 q 193 105 296 -14 q 90 425 90 224 l 90 568 q 136 794 90 695 q 267 947 182 893 q 462 1001 352 1001 q 657 947 572 1001 q 789 794 743 893 q 835 568 835 694 l 835 420 m 798 569 q 707 856 798 748 q 462 964 616 964 q 218 857 309 964 q 127 564 127 749 l 127 420 q 169 211 127 302 q 286 72 210 121 q 463 23 361 23 q 708 131 618 23 q 798 425 798 239 l 798 569 z "},"R":{"ha":909,"x_min":132,"x_max":812,"o":"m 511 422 l 169 422 l 169 0 l 132 0 l 132 987 l 447 987 q 683 911 595 987 q 771 703 771 834 q 708 526 771 602 q 549 432 646 450 l 812 9 l 812 0 l 774 0 l 511 422 m 169 459 l 480 459 q 664 528 594 459 q 734 703 734 597 q 657 884 734 818 q 444 951 579 951 l 169 951 l 169 459 z "},"S":{"ha":821,"x_min":65,"x_max":764,"o":"m 727 237 q 697 343 727 300 q 605 421 668 387 q 413 490 541 454 q 221 561 285 525 q 127 644 157 597 q 97 760 97 692 q 188 934 97 867 q 425 1001 279 1001 q 595 964 519 1001 q 712 860 671 927 q 753 709 753 793 l 717 709 q 635 892 717 820 q 425 964 554 964 q 214 906 294 964 q 134 761 134 848 q 203 618 134 672 q 434 522 273 564 q 669 425 595 480 q 764 238 764 355 q 722 106 764 163 q 603 18 680 49 q 429 -14 526 -14 q 237 22 322 -14 q 108 123 151 58 q 65 279 65 189 l 102 279 q 193 90 102 157 q 429 23 283 23 q 643 82 559 23 q 727 237 727 142 z "},"T":{"ha":830,"x_min":37,"x_max":793,"o":"m 793 951 l 433 951 l 433 0 l 397 0 l 397 951 l 37 951 l 37 987 l 793 987 l 793 951 z "},"U":{"ha":926,"x_min":125,"x_max":800,"o":"m 800 987 l 800 319 q 709 74 800 162 q 463 -14 618 -14 q 217 74 308 -14 q 125 316 126 162 l 125 987 l 162 987 l 162 320 q 244 103 162 183 q 463 23 327 23 q 682 103 600 23 q 764 321 764 183 l 764 987 l 800 987 z "},"V":{"ha":829,"x_min":24,"x_max":806,"o":"m 395 96 l 415 37 l 435 96 l 766 987 l 806 987 l 437 0 l 393 0 l 24 987 l 64 987 l 395 96 z "},"W":{"ha":1258,"x_min":41,"x_max":1216,"o":"m 332 61 l 376 224 l 610 987 l 650 987 l 882 224 l 926 61 l 972 224 l 1176 987 l 1216 987 l 950 0 l 909 0 l 664 823 l 629 928 l 596 823 l 349 0 l 308 0 l 41 987 l 82 987 l 287 224 l 332 61 z "},"X":{"ha":829,"x_min":37,"x_max":792,"o":"m 414 532 l 733 987 l 779 987 l 437 504 l 792 0 l 747 0 l 414 475 l 81 0 l 37 0 l 391 504 l 50 987 l 96 987 l 414 532 z "},"Y":{"ha":829,"x_min":22,"x_max":804,"o":"m 413 408 l 759 987 l 804 987 l 431 375 l 431 0 l 395 0 l 395 375 l 22 987 l 71 987 l 413 408 z "},"Z":{"ha":830,"x_min":64,"x_max":766,"o":"m 114 37 l 766 37 l 766 0 l 64 0 l 64 30 l 694 951 l 91 951 l 91 987 l 745 987 l 745 962 l 114 37 z "},"[":{"ha":298,"x_min":123,"x_max":315,"o":"m 315 1092 l 159 1092 l 159 -175 l 315 -175 l 315 -212 l 123 -212 l 123 1128 l 315 1128 l 315 1092 z "},"\\":{"ha":525,"x_min":39,"x_max":490,"o":"m 39 987 l 78 987 l 490 -85 l 451 -85 l 39 987 z "},"]":{"ha":298,"x_min":-5,"x_max":186,"o":"m -5 1128 l 186 1128 l 186 -212 l -5 -212 l -5 -175 l 149 -175 l 149 1092 l -5 1092 l -5 1128 z "},"^":{"ha":576,"x_min":62,"x_max":503,"o":"m 282 937 l 102 494 l 62 494 l 264 987 l 300 987 l 503 494 l 461 494 l 282 937 z "},"_":{"ha":573,"x_min":-1,"x_max":573,"o":"m 573 -37 l -1 -37 l -1 0 l 573 0 l 573 -37 z "},"`":{"ha":364,"x_min":101,"x_max":273,"o":"m 273 861 l 233 861 l 101 1042 l 146 1042 l 273 861 z "},"a":{"ha":733,"x_min":62,"x_max":633,"o":"m 591 0 q 577 134 577 47 q 458 25 534 64 q 288 -14 383 -14 q 124 42 186 -14 q 62 186 62 97 q 154 348 62 287 q 396 410 245 408 l 577 410 l 577 517 q 519 660 577 609 q 353 711 461 711 q 186 659 253 711 q 119 532 119 608 l 82 533 q 161 685 82 623 q 353 747 239 747 q 542 688 472 747 q 614 521 612 629 l 614 170 q 633 6 614 50 l 633 0 l 591 0 m 288 22 q 466 68 391 22 q 577 198 540 115 l 577 372 l 408 372 q 167 310 250 372 q 99 183 99 259 q 153 69 99 116 q 288 22 206 22 z "},"b":{"ha":760,"x_min":115,"x_max":677,"o":"m 677 360 q 604 87 677 189 q 402 -14 530 -14 q 254 21 319 -14 q 152 116 189 55 l 152 0 l 115 0 l 115 1042 l 152 1042 l 152 600 q 254 710 191 673 q 401 747 317 747 q 604 649 530 747 q 677 372 677 550 l 677 360 m 640 374 q 577 622 640 532 q 401 711 514 711 q 245 663 309 711 q 152 522 181 616 l 152 186 q 245 65 181 108 q 403 23 309 23 q 578 113 516 23 q 640 374 640 203 z "},"c":{"ha":705,"x_min":66,"x_max":637,"o":"m 366 23 q 530 76 465 23 q 601 222 595 129 l 637 222 q 555 51 632 116 q 366 -14 479 -14 q 147 86 228 -14 q 66 357 66 186 l 66 381 q 147 648 66 548 q 364 747 228 747 q 557 677 481 747 q 637 492 633 608 l 601 492 q 531 651 596 591 q 364 711 467 711 q 172 622 241 711 q 102 376 102 534 l 102 353 q 173 111 102 199 q 366 23 243 23 z "},"d":{"ha":760,"x_min":83,"x_max":645,"o":"m 83 374 q 157 649 83 550 q 359 747 231 747 q 506 710 442 747 q 608 599 569 673 l 608 1042 l 645 1042 l 645 0 l 608 0 l 608 117 q 506 21 571 55 q 358 -14 441 -14 q 157 87 231 -14 q 83 365 83 189 l 83 374 m 121 360 q 182 114 121 204 q 357 23 244 23 q 513 63 448 23 q 608 182 577 104 l 608 526 q 359 711 545 711 q 183 622 246 711 q 121 360 121 533 z "},"e":{"ha":700,"x_min":59,"x_max":646,"o":"m 380 -14 q 217 34 292 -14 q 101 165 143 82 q 59 351 59 249 l 59 381 q 100 568 59 483 q 212 700 140 652 q 367 747 283 747 q 568 660 490 747 q 646 430 646 572 l 646 391 l 96 391 l 96 351 q 133 185 96 262 q 237 66 171 109 q 380 22 303 22 q 506 47 454 22 q 598 123 558 72 l 624 105 q 380 -14 542 -14 m 367 711 q 185 631 260 711 q 98 428 111 551 l 609 428 l 609 437 q 577 575 609 511 q 491 675 546 640 q 367 711 435 711 z "},"f":{"ha":437,"x_min":45,"x_max":451,"o":"m 172 0 l 172 696 l 45 696 l 45 734 l 172 734 l 172 841 q 223 999 173 943 q 364 1056 274 1056 q 451 1044 414 1056 l 446 1009 q 365 1019 410 1019 q 251 972 292 1019 q 209 838 209 925 l 209 734 l 403 734 l 403 696 l 209 696 l 209 0 l 172 0 z "},"g":{"ha":762,"x_min":82,"x_max":644,"o":"m 82 374 q 156 649 82 550 q 359 747 230 747 q 505 710 441 747 q 607 600 568 672 l 607 734 l 644 734 l 644 13 q 570 -214 644 -132 q 367 -296 495 -296 q 232 -264 293 -296 q 127 -172 170 -232 l 153 -148 q 246 -231 195 -202 q 366 -260 297 -260 q 542 -191 479 -260 q 607 3 605 -122 l 607 116 q 504 20 569 54 q 357 -14 439 -14 q 156 87 230 -14 q 82 365 82 189 l 82 374 m 119 360 q 182 113 119 203 q 357 23 244 23 q 515 66 450 23 q 607 187 580 109 l 607 520 q 358 711 547 711 q 182 622 245 711 q 119 360 119 533 z "},"h":{"ha":760,"x_min":117,"x_max":647,"o":"m 153 563 q 259 698 189 648 q 414 747 329 747 q 589 681 532 747 q 647 479 646 614 l 647 0 l 610 0 l 610 480 q 562 655 610 598 q 412 711 515 711 q 247 644 317 711 q 153 470 178 576 l 153 0 l 117 0 l 117 1042 l 153 1042 l 153 563 z "},"i":{"ha":286,"x_min":106,"x_max":182,"o":"m 162 0 l 125 0 l 125 734 l 162 734 l 162 0 m 106 963 q 117 990 106 979 q 144 1001 128 1001 q 171 990 159 1001 q 182 963 182 979 q 171 937 182 947 q 144 926 159 926 q 117 937 128 926 q 106 963 106 947 z "},"j":{"ha":302,"x_min":-97,"x_max":186,"o":"m 163 734 l 163 -87 q 112 -243 163 -189 q -31 -296 61 -296 q -97 -283 -64 -296 l -95 -248 q -31 -260 -62 -260 q 86 -215 45 -260 q 126 -87 126 -170 l 126 734 l 163 734 m 111 963 q 121 990 111 979 q 148 1001 132 1001 q 175 990 163 1001 q 186 963 186 979 q 175 937 186 947 q 148 926 163 926 q 121 937 132 926 q 111 963 111 947 z "},"k":{"ha":657,"x_min":117,"x_max":646,"o":"m 261 397 l 260 395 l 153 304 l 153 0 l 117 0 l 117 1042 l 153 1042 l 153 344 l 239 425 l 573 734 l 625 734 l 288 421 l 646 0 l 599 0 l 261 397 z "},"l":{"ha":286,"x_min":125,"x_max":162,"o":"m 162 0 l 125 0 l 125 1042 l 162 1042 l 162 0 z "},"m":{"ha":1245,"x_min":109,"x_max":1139,"o":"m 642 0 l 605 0 l 605 493 q 556 657 604 604 q 404 711 509 711 q 207 605 283 711 q 146 464 161 541 l 146 0 l 109 0 l 109 734 l 146 734 l 146 560 q 253 699 184 650 q 406 747 322 747 q 557 707 498 747 q 634 574 616 666 q 740 700 667 653 q 904 747 813 747 q 1081 680 1023 747 q 1139 479 1139 613 l 1139 0 l 1103 0 l 1103 476 q 1054 655 1103 597 q 902 711 1006 713 q 690 605 768 709 q 642 488 646 545 l 642 0 z "},"n":{"ha":760,"x_min":117,"x_max":647,"o":"m 153 563 q 259 698 189 648 q 414 747 329 747 q 589 681 532 747 q 647 479 646 614 l 647 0 l 610 0 l 610 480 q 562 655 610 598 q 412 711 515 711 q 247 644 317 711 q 153 470 178 576 l 153 0 l 117 0 l 117 734 l 153 734 l 153 563 z "},"o":{"ha":764,"x_min":61,"x_max":703,"o":"m 61 381 q 101 570 61 486 q 215 701 142 654 q 382 747 289 747 q 547 702 474 747 q 662 573 621 656 q 703 385 703 490 l 703 353 q 663 163 703 247 q 550 33 623 80 q 383 -14 476 -14 q 217 33 290 -14 q 102 162 143 79 q 61 349 62 245 l 61 381 m 98 353 q 134 185 98 261 q 235 66 170 109 q 383 23 300 23 q 588 117 509 23 q 667 360 667 212 l 667 381 q 630 548 667 471 q 529 668 593 625 q 382 711 464 711 q 177 615 256 711 q 98 374 98 519 l 98 353 z "},"p":{"ha":760,"x_min":115,"x_max":677,"o":"m 677 360 q 604 87 677 189 q 402 -14 530 -14 q 254 20 319 -14 q 152 114 189 54 l 152 -282 l 115 -282 l 115 734 l 152 734 l 152 603 q 254 710 190 673 q 401 747 319 747 q 604 649 530 747 q 677 372 677 550 l 677 360 m 640 374 q 577 622 640 532 q 401 711 515 711 q 245 663 309 711 q 152 526 180 615 l 152 182 q 245 65 180 106 q 403 23 310 23 q 578 113 515 23 q 640 374 640 202 z "},"q":{"ha":760,"x_min":83,"x_max":645,"o":"m 83 374 q 157 649 83 550 q 359 747 231 747 q 506 710 441 747 q 608 603 570 673 l 608 734 l 645 734 l 645 -282 l 608 -282 l 608 114 q 504 19 569 52 q 358 -14 439 -14 q 157 87 231 -14 q 83 365 83 189 l 83 374 m 121 360 q 182 114 121 204 q 357 23 244 23 q 513 63 448 23 q 608 182 577 104 l 608 526 q 512 664 576 617 q 359 711 448 711 q 183 622 246 711 q 121 360 121 533 z "},"r":{"ha":465,"x_min":117,"x_max":444,"o":"m 440 707 l 393 711 q 236 651 299 711 q 153 481 173 590 l 153 0 l 117 0 l 117 734 l 153 734 l 153 581 q 243 703 183 658 q 393 747 302 747 q 444 740 425 747 l 440 707 z "},"s":{"ha":691,"x_min":73,"x_max":606,"o":"m 569 180 q 341 361 569 313 q 151 436 204 391 q 97 562 97 482 q 165 695 97 643 q 342 747 233 747 q 533 691 461 747 q 605 538 605 634 l 568 538 q 505 661 568 612 q 342 711 443 711 q 190 669 246 711 q 134 564 134 627 q 155 486 134 514 q 223 435 176 458 q 361 391 271 412 q 505 342 452 370 q 582 274 558 313 q 606 179 606 235 q 534 39 606 92 q 348 -14 463 -14 q 149 42 224 -14 q 73 186 73 98 l 110 186 q 178 66 115 109 q 348 23 241 23 q 508 69 446 23 q 569 180 569 115 z "},"t":{"ha":439,"x_min":26,"x_max":388,"o":"m 199 932 l 199 734 l 366 734 l 366 696 l 199 696 l 199 176 q 224 60 199 98 q 309 23 250 23 q 382 29 339 23 l 388 -5 q 311 -14 366 -14 q 197 31 231 -14 q 161 171 162 75 l 161 696 l 26 696 l 26 734 l 161 734 l 161 932 l 199 932 z "},"u":{"ha":760,"x_min":114,"x_max":646,"o":"m 608 0 l 608 119 q 513 22 576 58 q 355 -14 451 -14 q 175 57 235 -14 q 114 261 115 127 l 114 734 l 151 734 l 151 260 q 203 83 152 143 q 354 23 255 23 q 525 73 459 23 q 608 218 591 122 l 608 734 l 646 734 l 646 0 l 608 0 z "},"v":{"ha":663,"x_min":29,"x_max":635,"o":"m 332 58 l 596 734 l 635 734 l 350 0 l 314 0 l 29 734 l 68 734 l 332 58 z "},"w":{"ha":1051,"x_min":56,"x_max":987,"o":"m 248 212 l 288 54 l 503 734 l 541 734 l 754 54 l 795 212 l 945 734 l 987 734 l 774 0 l 737 0 l 556 551 l 522 683 l 484 551 l 306 0 l 269 0 l 56 734 l 98 734 l 248 212 z "},"x":{"ha":663,"x_min":37,"x_max":625,"o":"m 332 408 l 566 734 l 612 734 l 354 376 l 625 0 l 580 0 l 331 345 l 83 0 l 37 0 l 309 376 l 51 734 l 97 734 l 332 408 z "},"y":{"ha":663,"x_min":29,"x_max":640,"o":"m 341 57 l 346 71 l 600 734 l 640 734 l 312 -127 l 296 -168 q 121 -296 243 -296 q 66 -289 81 -296 l 66 -254 q 115 -260 87 -260 q 211 -227 173 -260 q 277 -117 249 -193 l 321 4 l 29 734 l 69 734 l 341 57 z "},"z":{"ha":663,"x_min":59,"x_max":631,"o":"m 109 37 l 631 37 l 631 0 l 59 0 l 59 30 l 541 696 l 80 696 l 80 734 l 591 734 l 591 701 l 109 37 z "},"{":{"ha":448,"x_min":50,"x_max":449,"o":"m 435 -299 q 273 -189 327 -265 q 219 14 219 -112 l 219 177 q 50 368 219 368 l 50 413 q 219 603 219 413 l 219 770 q 274 972 220 896 q 435 1083 328 1049 l 446 1053 q 256 763 256 991 l 256 608 q 113 391 256 424 q 256 173 256 355 l 256 18 q 449 -268 256 -203 l 435 -299 z "},"|":{"ha":275,"x_min":123,"x_max":159,"o":"m 159 -183 l 123 -183 l 123 987 l 159 987 l 159 -183 z "},"}":{"ha":448,"x_min":0,"x_max":399,"o":"m 0 -268 q 193 15 193 -202 l 193 173 q 336 391 193 355 q 193 608 193 424 l 193 762 q 3 1053 193 991 l 13 1083 q 175 973 121 1049 q 229 774 228 897 l 229 605 q 399 413 229 413 l 399 368 q 229 175 229 368 l 229 14 q 176 -188 229 -112 q 13 -299 123 -264 l 0 -268 z "},"~":{"ha":958,"x_min":109,"x_max":845,"o":"m 845 510 q 795 358 845 416 q 663 300 745 300 q 573 319 614 300 q 466 397 532 338 q 366 472 399 456 q 290 488 332 488 q 184 444 222 488 q 146 313 146 400 l 109 313 q 157 468 109 410 q 290 525 205 525 q 382 505 339 525 q 490 426 425 485 q 590 352 556 368 q 663 336 624 336 q 769 382 731 336 q 807 511 807 428 l 845 510 z "},"¡":{"ha":275,"x_min":96,"x_max":172,"o":"m 121 472 l 158 472 l 158 -243 l 121 -243 l 121 472 m 172 711 q 161 684 172 695 q 134 673 150 673 q 107 684 119 673 q 96 711 96 695 q 107 737 96 726 q 134 748 119 748 q 161 737 150 748 q 172 711 172 726 z "},"¢":{"ha":753,"x_min":91,"x_max":663,"o":"m 391 23 q 555 76 490 23 q 626 222 620 129 l 663 222 q 586 57 657 121 q 410 -13 515 -7 l 410 -166 l 372 -166 l 372 -13 q 167 92 243 -6 q 91 357 91 191 l 91 381 q 167 642 91 544 q 372 747 243 740 l 372 894 l 410 894 l 410 747 q 589 671 520 739 q 663 492 658 602 l 626 492 q 556 651 621 591 q 389 711 492 711 q 197 622 267 711 q 127 376 127 534 l 127 353 q 198 111 127 199 q 391 23 268 23 z "},"£":{"ha":780,"x_min":64,"x_max":720,"o":"m 244 452 l 251 228 q 205 37 254 96 l 719 37 l 720 0 l 67 0 l 67 37 l 149 37 q 198 101 181 46 q 214 228 216 155 l 208 452 l 64 452 l 64 489 l 206 489 l 200 705 q 267 922 200 843 q 448 1001 334 1001 q 634 930 566 1001 q 702 739 702 860 l 665 739 q 607 905 665 846 q 448 964 549 964 q 293 897 349 964 q 237 705 237 829 l 243 489 l 494 489 l 494 452 l 244 452 z "},"¤":{"ha":1019,"x_min":77,"x_max":936,"o":"m 786 106 q 659 18 731 50 q 505 -14 587 -14 q 351 18 423 -14 q 224 104 279 49 l 104 -18 l 77 9 l 199 132 q 101 412 101 252 q 205 700 101 579 l 77 831 l 104 857 l 232 727 q 505 837 348 837 q 655 807 585 837 q 779 726 724 778 l 908 858 l 936 831 l 805 698 q 908 412 908 577 q 812 135 908 254 l 936 9 l 908 -18 l 786 106 m 138 412 q 188 217 138 308 q 323 74 238 126 q 505 22 408 22 q 687 74 602 22 q 822 217 772 126 q 871 412 871 308 q 822 606 871 516 q 688 748 773 696 q 505 801 603 801 q 322 748 408 801 q 188 606 237 696 q 138 412 138 516 z "},"¥":{"ha":704,"x_min":22,"x_max":678,"o":"m 636 987 l 678 987 l 385 458 l 634 458 l 634 421 l 368 421 l 368 258 l 634 258 l 634 221 l 368 221 l 368 0 l 332 0 l 332 221 l 67 221 l 67 258 l 332 258 l 332 421 l 67 421 l 67 458 l 315 458 l 22 987 l 64 987 l 330 500 l 347 466 l 353 466 l 371 500 l 636 987 z "},"¦":{"ha":270,"x_min":117,"x_max":153,"o":"m 117 -183 l 117 327 l 153 327 l 153 -183 l 117 -183 m 153 473 l 117 473 l 117 987 l 153 987 l 153 473 z "},"§":{"ha":829,"x_min":78,"x_max":742,"o":"m 742 292 q 686 173 742 221 q 536 111 631 125 q 672 25 632 75 q 712 -101 712 -25 q 630 -273 712 -210 q 407 -336 547 -336 q 166 -259 254 -336 q 78 -43 78 -183 l 115 -42 q 193 -232 115 -164 q 407 -299 272 -299 q 603 -245 531 -299 q 675 -102 675 -191 q 650 -6 675 -43 q 570 58 625 30 q 412 113 514 85 q 155 217 228 156 q 82 374 82 277 q 134 496 82 448 q 276 557 186 544 q 151 642 189 592 q 113 766 113 692 q 196 937 113 872 q 419 1001 279 1001 q 646 925 565 1001 q 727 709 727 848 l 690 709 q 616 893 690 822 q 419 964 543 964 q 222 912 294 964 q 149 768 149 860 q 174 669 149 706 q 254 604 198 633 q 418 545 310 576 q 620 478 559 510 q 712 402 682 446 q 742 292 742 357 m 400 519 q 327 540 360 528 q 174 492 230 536 q 119 375 119 448 q 145 275 119 312 q 236 209 172 239 q 470 133 300 180 q 641 178 576 134 q 705 290 705 222 q 677 386 705 348 q 587 454 650 424 q 400 519 524 485 z "},"¨":{"ha":614,"x_min":118,"x_max":495,"o":"m 118 964 q 129 990 118 979 q 155 1002 140 1002 q 182 990 171 1002 q 193 964 193 979 q 182 937 193 948 q 155 926 171 926 q 129 937 140 926 q 118 964 118 948 m 420 964 q 431 990 420 979 q 457 1002 441 1002 q 484 990 473 1002 q 495 964 495 979 q 484 937 495 948 q 457 926 473 926 q 431 937 441 926 q 420 964 420 948 z "},"©":{"ha":1130,"x_min":83,"x_max":1046,"o":"m 762 418 q 709 260 762 315 q 560 205 656 205 q 403 278 463 205 q 343 470 343 351 l 343 521 q 404 711 343 638 q 560 783 464 783 q 710 727 657 783 q 763 571 763 671 l 728 571 q 684 704 728 660 q 560 747 641 747 q 430 685 479 747 q 380 517 380 623 l 380 467 q 430 304 380 366 q 560 242 479 242 q 727 418 727 242 l 762 418 m 121 494 q 181 257 121 367 q 344 85 241 148 q 565 23 447 23 q 787 87 684 23 q 949 259 890 151 q 1008 494 1008 368 q 949 729 1008 621 q 787 901 890 838 q 565 964 684 964 q 345 902 448 964 q 181 731 241 840 q 121 494 121 623 m 83 494 q 147 749 83 631 q 322 933 210 866 q 565 1001 435 1001 q 807 933 695 1001 q 983 749 920 866 q 1046 494 1046 631 q 985 243 1046 359 q 811 56 923 126 q 565 -14 699 -14 q 319 56 431 -14 q 145 243 207 126 q 83 494 83 359 z "},"ª":{"ha":609,"x_min":113,"x_max":500,"o":"m 461 478 q 446 558 449 515 q 375 493 420 517 q 283 469 331 469 q 157 507 201 469 q 114 610 114 546 q 171 726 114 684 q 330 768 227 768 l 446 768 l 446 814 q 412 925 446 885 q 311 964 378 964 q 193 935 237 964 q 150 843 150 905 l 113 843 q 168 957 113 912 q 311 1001 223 1001 q 436 952 389 1001 q 483 814 483 903 l 483 600 q 500 478 483 537 l 461 478 m 283 506 q 381 538 331 506 q 446 610 432 570 l 446 731 l 332 731 q 151 613 151 731 q 283 506 151 506 z "},"«":{"ha":614,"x_min":98,"x_max":541,"o":"m 146 356 l 346 99 l 298 99 l 98 350 l 98 363 l 298 614 l 346 614 l 146 356 m 341 356 l 541 99 l 493 99 l 293 350 l 293 363 l 493 614 l 541 614 l 341 356 z "},"¬":{"ha":747,"x_min":83,"x_max":621,"o":"m 621 269 l 584 269 l 584 475 l 83 475 l 83 511 l 621 511 l 621 269 z "},"®":{"ha":1135,"x_min":78,"x_max":1041,"o":"m 78 494 q 141 749 78 631 q 317 933 205 866 q 559 1001 429 1001 q 802 933 690 1001 q 978 749 914 866 q 1041 494 1041 631 q 979 243 1041 359 q 805 56 918 126 q 559 -14 693 -14 q 314 56 426 -14 q 140 243 201 126 q 78 494 78 359 m 115 494 q 174 259 115 368 q 336 87 233 151 q 559 23 439 23 q 782 87 679 23 q 944 259 885 151 q 1003 494 1003 368 q 944 729 1003 621 q 782 901 885 838 q 559 964 678 964 q 337 901 440 964 q 174 729 233 838 q 115 494 115 621 m 439 460 l 439 221 l 402 221 l 402 784 l 564 784 q 760 621 760 784 q 656 481 760 524 q 746 340 746 455 q 758 232 746 265 l 758 221 l 718 221 q 708 340 708 245 q 682 431 708 403 q 592 460 656 458 l 439 460 m 439 498 l 578 498 q 683 532 644 498 q 723 622 723 566 q 688 717 723 688 q 574 747 653 745 l 439 747 l 439 498 z "},"¯":{"ha":550,"x_min":90,"x_max":474,"o":"m 474 938 l 90 938 l 90 974 l 474 974 l 474 938 z "},"°":{"ha":531,"x_min":106,"x_max":423,"o":"m 106 838 q 153 952 106 904 q 266 1001 199 1001 q 377 952 331 1001 q 423 838 423 904 q 377 725 423 772 q 266 677 331 677 q 153 724 199 677 q 106 838 106 771 m 143 838 q 178 751 143 786 q 266 715 212 715 q 351 750 317 715 q 385 838 385 784 q 351 929 385 894 q 266 964 317 964 q 178 928 213 964 q 143 838 143 892 z "},"±":{"ha":730,"x_min":49,"x_max":670,"o":"m 386 546 l 670 546 l 670 509 l 386 509 l 386 196 l 349 196 l 349 509 l 49 509 l 49 546 l 349 546 l 349 859 l 386 859 l 386 546 m 649 -1 l 83 -1 l 83 36 l 649 36 l 649 -1 z "},"²":{"ha":494,"x_min":58,"x_max":441,"o":"m 441 450 l 73 450 l 73 480 l 270 680 q 349 772 323 732 q 374 846 374 811 q 340 929 374 898 q 241 960 307 960 q 134 924 172 960 q 95 831 95 889 l 58 831 q 110 947 58 901 q 241 993 161 993 q 365 953 320 993 q 410 846 410 913 q 334 699 410 783 l 289 652 l 119 484 l 441 484 l 441 450 z "},"³":{"ha":494,"x_min":54,"x_max":432,"o":"m 183 739 l 234 739 q 342 770 302 740 q 382 847 382 800 q 346 929 382 899 q 245 960 310 960 q 143 928 184 960 q 102 845 102 897 l 66 845 q 117 951 66 910 q 245 993 168 993 q 373 954 326 993 q 419 845 419 914 q 392 773 419 806 q 314 724 365 739 q 402 676 372 710 q 432 593 432 642 q 382 484 432 526 q 249 443 332 443 q 110 486 165 443 q 54 597 54 529 l 91 597 q 135 510 91 545 q 249 475 179 475 q 357 507 319 475 q 395 593 395 538 q 224 706 395 706 l 183 706 l 183 739 z "},"´":{"ha":347,"x_min":85,"x_max":258,"o":"m 214 1042 l 258 1042 l 126 861 l 85 861 l 214 1042 z "},"µ":{"ha":760,"x_min":116,"x_max":646,"o":"m 151 734 l 151 286 q 205 90 153 157 q 359 23 257 23 q 539 84 478 23 q 610 281 600 146 l 610 734 l 646 734 l 646 0 l 612 0 l 610 138 q 365 -14 545 -14 q 234 20 288 -14 q 151 116 180 54 l 151 -282 l 116 -282 l 116 734 l 151 734 z "},"¶":{"ha":642,"x_min":67,"x_max":522,"o":"m 486 0 l 486 353 l 399 353 q 222 392 298 353 q 107 504 147 431 q 67 670 67 576 q 157 901 67 814 q 402 987 248 987 l 522 987 l 522 0 l 486 0 z "},"·":{"ha":320,"x_min":121,"x_max":197,"o":"m 121 479 q 132 506 121 494 q 159 517 143 517 q 185 506 174 517 q 197 479 197 494 q 185 452 197 463 q 159 441 174 441 q 132 452 143 441 q 121 479 121 463 z "},"¸":{"ha":332,"x_min":55,"x_max":253,"o":"m 140 0 l 133 -52 q 253 -166 253 -62 q 201 -259 253 -224 q 60 -295 150 -295 l 55 -262 q 170 -235 123 -262 q 216 -166 216 -208 q 190 -109 216 -128 q 87 -82 163 -90 l 104 0 l 140 0 z "},"¹":{"ha":494,"x_min":89,"x_max":294,"o":"m 294 450 l 257 450 l 257 940 l 89 885 l 89 921 l 288 987 l 294 987 l 294 450 z "},"º":{"ha":620,"x_min":100,"x_max":513,"o":"m 100 774 q 157 938 100 876 q 307 1001 214 1001 q 456 939 399 1001 q 513 770 513 876 l 513 694 q 457 530 513 592 q 308 468 400 468 q 158 530 215 468 q 100 698 100 591 l 100 774 m 137 694 q 182 555 137 606 q 308 505 227 505 q 432 556 387 505 q 477 697 477 608 l 477 774 q 431 912 477 861 q 307 964 385 964 q 183 913 229 964 q 137 770 137 861 l 137 694 z "},"»":{"ha":608,"x_min":87,"x_max":530,"o":"m 134 637 l 334 380 l 334 367 l 134 116 l 87 116 l 286 373 l 87 637 l 134 637 m 331 637 l 530 380 l 530 367 l 331 116 l 283 116 l 482 373 l 283 637 l 331 637 z "},"¼":{"ha":995,"x_min":98,"x_max":930,"o":"m 303 450 l 267 450 l 267 940 l 98 885 l 98 921 l 297 987 l 303 987 l 303 450 m 262 94 l 231 115 l 713 887 l 744 866 l 262 94 m 831 172 l 930 172 l 930 138 l 831 138 l 831 0 l 795 0 l 795 138 l 508 138 l 507 160 l 790 535 l 831 535 l 831 172 m 555 172 l 795 172 l 795 493 l 765 445 l 555 172 z "},"½":{"ha":1023,"x_min":83,"x_max":944,"o":"m 233 94 l 202 115 l 684 887 l 715 866 l 233 94 m 288 450 l 251 450 l 251 940 l 83 885 l 83 921 l 281 987 l 288 987 l 288 450 m 944 0 l 576 0 l 576 30 l 772 230 q 851 321 826 282 q 876 395 876 361 q 843 478 876 448 q 744 509 810 509 q 636 474 675 509 q 597 381 597 439 l 561 381 q 612 497 561 451 q 744 543 663 543 q 868 503 823 543 q 913 396 913 463 q 836 249 913 332 l 791 201 l 621 33 l 944 33 l 944 0 z "},"¾":{"ha":1076,"x_min":84,"x_max":1025,"o":"m 372 94 l 341 115 l 823 887 l 854 866 l 372 94 m 926 172 l 1025 172 l 1025 138 l 926 138 l 926 0 l 890 0 l 890 138 l 603 138 l 602 160 l 885 535 l 926 535 l 926 172 m 650 172 l 890 172 l 890 493 l 860 445 l 650 172 m 213 739 l 264 739 q 372 770 332 740 q 412 847 412 800 q 376 929 412 899 q 275 960 340 960 q 173 928 214 960 q 132 845 132 897 l 96 845 q 147 951 96 910 q 275 993 198 993 q 402 954 356 993 q 449 845 449 914 q 422 773 449 806 q 344 724 395 739 q 432 676 402 710 q 462 593 462 642 q 412 484 462 526 q 279 443 361 443 q 139 486 195 443 q 84 597 84 529 l 121 597 q 165 510 121 545 q 279 475 209 475 q 387 507 349 475 q 425 593 425 538 q 254 706 425 706 l 213 706 l 213 739 z "},"¿":{"ha":618,"x_min":73,"x_max":553,"o":"m 349 471 q 341 377 347 402 q 318 330 334 353 q 264 273 302 308 l 211 222 q 134 113 157 168 q 110 -12 110 57 q 163 -168 110 -113 q 313 -222 217 -222 q 460 -166 406 -222 q 517 -14 514 -111 l 553 -14 q 487 -193 552 -127 q 313 -258 422 -258 q 137 -190 201 -258 q 73 -10 73 -122 q 109 141 73 72 q 245 302 144 210 q 295 357 279 329 q 311 425 310 385 l 312 471 l 349 471 m 365 709 q 354 683 365 694 q 328 671 343 671 q 301 683 312 671 q 290 709 290 694 q 301 736 290 725 q 328 747 312 747 q 354 736 343 747 q 365 709 365 725 z "},"Æ":{"ha":1232,"x_min":34,"x_max":1199,"o":"m 1199 0 l 689 0 l 677 288 l 252 288 l 78 0 l 34 0 l 631 987 l 1158 987 l 1158 951 l 686 951 l 703 533 l 1102 533 l 1102 496 l 705 496 l 724 37 l 1199 37 l 1199 0 m 273 324 l 675 324 l 649 948 l 273 324 z "},"×":{"ha":713,"x_min":66,"x_max":640,"o":"m 66 24 l 327 291 l 85 538 l 111 564 l 353 317 l 595 564 l 621 538 l 379 291 l 640 24 l 614 -1 l 353 264 l 93 -1 l 66 24 z "},"Ø":{"ha":925,"x_min":90,"x_max":841,"o":"m 835 420 q 789 193 835 292 q 659 40 743 94 q 463 -14 574 -14 q 237 62 331 -14 l 165 -51 l 120 -51 l 208 88 q 90 427 90 208 l 90 568 q 136 794 90 695 q 267 947 182 893 q 462 1001 352 1001 q 721 895 618 1001 l 796 1014 l 841 1014 l 746 865 q 835 569 834 748 l 835 420 m 127 420 q 229 119 127 227 l 701 863 q 462 964 611 964 q 218 857 309 964 q 127 564 127 749 l 127 420 m 798 569 q 726 832 798 730 l 256 93 q 463 23 340 23 q 708 131 618 23 q 798 425 798 239 l 798 569 z "},"Þ":{"ha":827,"x_min":136,"x_max":729,"o":"m 172 987 l 172 775 l 428 775 q 648 699 568 774 q 729 500 729 623 q 649 304 729 378 q 433 227 570 229 l 172 227 l 172 0 l 136 0 l 136 987 l 172 987 m 172 739 l 172 263 l 424 263 q 620 330 547 263 q 692 499 692 396 q 622 669 692 603 q 434 739 552 736 l 172 739 z "},"ß":{"ha":802,"x_min":111,"x_max":720,"o":"m 148 0 l 111 0 l 111 775 q 169 973 111 905 q 334 1041 226 1041 q 483 987 420 1041 q 545 852 545 933 q 505 712 545 785 q 465 562 465 640 q 493 486 465 522 q 591 399 522 450 q 690 302 659 348 q 720 201 720 256 q 685 91 720 140 q 591 14 650 42 q 471 -14 532 -14 q 348 4 410 -14 q 260 46 286 23 l 277 79 q 361 39 307 56 q 466 22 416 22 q 621 75 557 22 q 684 208 684 129 q 655 290 684 252 q 557 380 627 329 q 457 474 487 432 q 428 564 428 515 q 466 715 428 639 q 505 854 505 792 q 455 960 505 915 q 341 1004 406 1004 q 148 782 151 1004 l 148 0 z "},"æ":{"ha":1177,"x_min":63,"x_max":1124,"o":"m 860 -14 q 692 32 760 -14 q 589 156 624 78 l 589 148 l 589 148 q 479 31 557 75 q 304 -14 401 -14 q 126 42 190 -14 q 63 193 63 98 q 138 363 63 300 q 350 427 213 426 l 551 427 l 551 488 q 503 652 551 594 q 353 711 454 711 q 182 659 246 711 q 118 523 118 608 l 82 528 q 158 687 82 626 q 353 747 233 747 q 508 697 449 747 q 583 552 568 647 q 691 696 621 645 q 850 747 762 747 q 1050 668 976 747 q 1124 445 1124 589 l 1124 391 l 590 391 l 590 339 q 661 107 590 191 q 860 23 732 23 q 1085 111 998 23 l 1105 83 q 993 8 1052 29 q 860 -14 935 -14 m 303 22 q 411 41 358 22 q 503 92 464 60 q 551 153 542 124 l 551 390 l 347 390 q 167 334 234 388 q 100 190 100 279 q 152 66 100 111 q 303 22 204 22 m 850 711 q 675 634 746 711 q 592 429 605 557 l 1087 429 l 1087 450 q 1024 640 1087 568 q 850 711 960 711 z "},"ð":{"ha":802,"x_min":117,"x_max":706,"o":"m 544 887 q 666 687 626 802 q 706 417 706 572 l 706 363 q 671 169 706 255 q 572 35 636 83 q 427 -14 507 -14 q 268 29 339 -14 q 157 148 197 72 q 117 315 117 224 q 194 559 117 472 q 408 646 271 646 q 553 616 484 646 q 663 529 622 586 q 610 725 649 643 q 510 868 570 807 l 351 779 l 332 812 l 481 895 q 229 1036 387 977 l 243 1069 q 515 914 414 1007 l 652 991 l 672 958 l 544 887 m 669 418 l 669 456 q 568 567 637 527 q 408 607 498 607 q 221 530 288 607 q 155 315 155 453 q 190 170 155 237 q 287 64 224 102 q 429 26 349 26 q 601 116 535 26 q 669 353 667 207 l 669 418 z "},"÷":{"ha":786,"x_min":50,"x_max":726,"o":"m 726 465 l 50 465 l 50 500 l 726 500 l 726 465 m 359 732 q 370 759 359 747 q 396 770 380 770 q 423 759 412 770 q 434 732 434 747 q 423 705 434 716 q 396 694 412 694 q 370 705 380 694 q 359 732 359 716 m 359 204 q 370 231 359 220 q 396 242 380 242 q 423 231 412 242 q 434 204 434 220 q 423 178 434 189 q 396 167 412 167 q 370 178 380 167 q 359 204 359 189 z "},"ø":{"ha":760,"x_min":59,"x_max":701,"o":"m 59 381 q 99 570 59 486 q 213 701 140 654 q 380 747 287 747 q 532 710 461 747 l 589 827 l 631 827 l 564 689 q 665 562 629 642 q 701 381 701 483 l 701 353 q 661 163 701 247 q 548 33 621 80 q 381 -14 474 -14 q 239 19 305 -14 l 182 -98 l 139 -98 l 205 38 q 97 168 136 85 q 59 354 59 251 l 59 381 m 96 353 q 129 190 96 263 q 222 73 163 116 l 515 675 q 380 711 455 711 q 175 615 254 711 q 96 374 96 519 l 96 353 m 665 381 q 634 536 665 464 q 547 653 603 608 l 255 52 q 381 23 311 23 q 586 117 507 23 q 665 360 665 212 l 665 381 z "},"þ":{"ha":760,"x_min":115,"x_max":677,"o":"m 677 360 q 604 87 677 189 q 402 -14 530 -14 q 254 20 319 -14 q 152 114 189 54 l 152 -282 l 115 -282 l 115 1042 l 152 1042 l 152 603 q 254 710 190 673 q 401 747 319 747 q 604 649 530 747 q 677 372 677 550 l 677 360 m 640 374 q 577 622 640 532 q 401 711 515 711 q 245 663 309 711 q 152 526 180 615 l 152 182 q 245 65 180 106 q 403 23 310 23 q 578 113 515 23 q 640 374 640 202 z "},"đ":{"ha":760,"x_min":83,"x_max":753,"o":"m 753 869 l 645 869 l 645 0 l 608 0 l 608 117 q 506 21 571 55 q 358 -14 441 -14 q 157 87 231 -14 q 83 365 83 189 l 83 374 q 157 649 83 550 q 359 747 231 747 q 506 710 442 747 q 608 599 569 673 l 608 869 l 355 869 l 355 905 l 608 905 l 608 1042 l 645 1042 l 645 905 l 753 905 l 753 869 m 121 360 q 182 114 121 204 q 357 23 244 23 q 513 63 448 23 q 608 182 577 104 l 608 526 q 359 711 545 711 q 183 622 246 711 q 121 360 121 533 z "},"Ħ":{"ha":942,"x_min":14,"x_max":917,"o":"m 812 733 l 917 733 l 917 697 l 812 697 l 812 0 l 775 0 l 775 490 l 144 490 l 144 0 l 108 0 l 108 697 l 14 697 l 14 733 l 108 733 l 108 987 l 144 987 l 144 733 l 775 733 l 775 987 l 812 987 l 812 733 m 144 526 l 775 526 l 775 697 l 144 697 l 144 526 z "},"ı":{"ha":275,"x_min":123,"x_max":159,"o":"m 159 0 l 123 0 l 123 734 l 159 734 l 159 0 z "},"ĸ":{"ha":735,"x_min":116,"x_max":695,"o":"m 267 359 l 153 359 l 153 0 l 116 0 l 116 734 l 153 734 l 153 395 l 274 395 l 606 734 l 652 734 l 308 375 l 695 0 l 647 0 l 267 359 z "},"Ł":{"ha":720,"x_min":5,"x_max":674,"o":"m 168 536 l 406 612 l 406 573 l 168 498 l 168 37 l 674 37 l 674 0 l 130 0 l 130 486 l 5 446 l 5 485 l 130 524 l 130 987 l 168 987 l 168 536 z "},"ł":{"ha":342,"x_min":12,"x_max":330,"o":"m 194 576 l 330 631 l 330 591 l 194 536 l 194 0 l 157 0 l 157 522 l 12 464 l 12 504 l 157 562 l 157 1042 l 194 1042 l 194 576 z "},"Ŋ":{"ha":983,"x_min":136,"x_max":848,"o":"m 848 987 l 848 -60 q 797 -236 848 -176 q 654 -296 745 -296 q 578 -283 618 -296 l 587 -248 q 654 -260 620 -260 q 770 -208 730 -260 q 811 -60 811 -157 l 811 0 l 172 925 l 172 0 l 136 0 l 136 987 l 172 987 l 811 63 l 811 987 l 848 987 z "},"ŋ":{"ha":760,"x_min":115,"x_max":647,"o":"m 148 734 l 152 582 q 248 703 184 659 q 407 747 311 747 q 586 673 527 747 q 647 440 646 599 l 647 -60 q 596 -236 647 -176 q 454 -296 545 -296 q 363 -283 410 -296 l 372 -248 q 454 -260 411 -260 q 570 -209 529 -260 q 610 -60 610 -157 l 610 433 q 562 642 610 573 q 408 711 513 711 q 235 646 300 711 q 152 461 169 582 l 152 0 l 115 0 l 115 734 l 148 734 z "},"Œ":{"ha":1270,"x_min":76,"x_max":1221,"o":"m 1221 0 l 652 0 q 428 -14 517 -14 q 246 36 326 -14 q 122 178 166 87 q 76 383 77 269 l 76 597 q 120 806 76 713 q 244 950 163 899 q 427 1001 325 1001 q 652 987 523 1001 l 1221 987 l 1221 951 l 657 951 l 657 526 l 1152 526 l 1152 490 l 657 490 l 657 37 l 1221 37 l 1221 0 m 428 22 q 621 31 549 22 l 621 956 q 427 964 548 964 q 199 864 285 964 q 113 593 113 764 l 113 391 q 152 199 113 283 q 264 68 192 115 q 428 22 336 22 z "},"œ":{"ha":1305,"x_min":62,"x_max":1258,"o":"m 62 381 q 103 570 62 486 q 217 701 143 654 q 383 747 290 747 q 576 683 496 747 q 688 507 656 618 q 798 682 720 616 q 977 747 876 747 q 1180 665 1103 747 q 1258 445 1258 583 l 1258 391 l 708 391 l 708 339 q 744 180 708 254 q 842 65 779 107 q 979 23 905 23 q 1211 112 1136 23 l 1231 83 q 979 -14 1144 -14 q 799 52 880 -14 q 687 224 718 118 q 573 49 654 111 q 385 -14 492 -14 q 218 33 292 -14 q 104 162 144 79 q 62 349 63 245 l 62 381 m 99 353 q 135 185 99 261 q 236 66 172 109 q 385 23 301 23 q 589 117 510 23 q 668 360 668 212 l 668 381 q 631 548 668 471 q 530 668 595 625 q 383 711 465 711 q 178 615 258 711 q 99 374 99 519 l 99 353 m 977 711 q 797 632 870 711 q 710 428 723 553 l 1221 428 l 1221 450 q 1153 638 1221 565 q 977 711 1084 711 z "},"ſ":{"ha":286,"x_min":118,"x_max":396,"o":"m 118 0 l 118 838 q 169 1000 118 944 q 309 1056 219 1056 q 396 1044 360 1056 l 391 1009 q 310 1019 355 1019 q 196 972 237 1019 q 155 838 155 925 l 155 0 l 118 0 z "},"Ə":{"ha":985,"x_min":106,"x_max":900,"o":"m 511 -14 q 216 99 326 -14 q 106 402 106 211 l 106 482 l 863 482 l 863 566 q 766 859 863 753 q 494 964 669 964 q 317 935 394 964 q 185 860 240 906 l 165 889 l 208 922 q 494 1001 319 1001 q 790 885 681 1001 q 900 559 900 768 l 900 450 q 850 211 900 317 q 711 45 800 104 q 511 -14 622 -14 m 511 23 q 693 76 614 23 q 818 227 772 129 q 863 445 863 325 l 142 445 l 142 396 q 187 203 142 289 q 316 71 232 118 q 511 23 400 23 z "},"ƒ":{"ha":437,"x_min":-61,"x_max":450,"o":"m 402 696 l 208 696 l 208 -60 q 157 -236 208 -176 q 15 -296 106 -296 q -61 -283 -22 -296 l -52 -248 q 15 -260 -20 -260 q 131 -208 91 -260 q 172 -60 172 -157 l 172 696 l 44 696 l 44 734 l 172 734 l 172 841 q 223 999 172 943 q 363 1056 273 1056 q 450 1044 414 1056 l 445 1009 q 364 1019 410 1019 q 250 972 292 1019 q 208 838 208 925 l 208 734 l 402 734 l 402 696 z "},"Ơ":{"ha":984,"x_min":111,"x_max":989,"o":"m 856 420 q 810 193 856 292 q 680 40 764 94 q 484 -14 595 -14 q 214 105 317 -14 q 111 425 111 224 l 111 568 q 157 794 111 695 q 288 947 203 893 q 483 1001 373 1001 q 660 958 583 1001 q 785 840 736 916 q 913 885 873 841 q 953 1045 953 930 l 989 1045 q 945 869 989 927 q 805 804 901 811 q 856 574 854 703 l 856 420 m 819 569 q 728 856 819 748 q 483 964 637 964 q 239 857 330 964 q 149 564 149 749 l 149 420 q 190 211 149 302 q 307 72 231 121 q 484 23 382 23 q 729 131 639 23 q 819 425 819 239 l 819 569 z "},"ơ":{"ha":761,"x_min":59,"x_max":785,"o":"m 59 381 q 99 570 59 486 q 213 701 140 654 q 380 747 287 747 q 611 646 522 747 q 716 683 684 648 q 748 811 748 718 l 785 811 q 750 667 785 714 q 637 611 715 620 q 701 386 700 516 l 701 353 q 661 163 701 247 q 548 33 621 80 q 381 -14 474 -14 q 215 33 288 -14 q 100 162 141 79 q 59 349 60 245 l 59 381 m 96 353 q 132 185 96 261 q 233 66 168 109 q 381 23 298 23 q 586 117 507 23 q 665 360 665 212 l 665 381 q 628 548 665 471 q 527 668 591 625 q 380 711 462 711 q 175 615 254 711 q 96 374 96 519 l 96 353 z "},"Ư":{"ha":926,"x_min":125,"x_max":996,"o":"m 800 987 l 800 846 q 921 895 883 850 q 959 1052 959 941 l 996 1052 q 948 871 996 928 q 800 810 901 814 l 800 319 q 709 74 800 162 q 463 -14 618 -14 q 217 74 308 -14 q 125 316 126 162 l 125 987 l 162 987 l 162 320 q 244 103 162 183 q 463 23 327 23 q 682 103 600 23 q 764 321 764 183 l 764 987 l 800 987 z "},"ư":{"ha":768,"x_min":114,"x_max":805,"o":"m 805 807 q 767 659 805 707 q 646 606 728 612 l 646 0 l 608 0 l 608 119 q 513 22 576 58 q 355 -14 451 -14 q 175 57 235 -14 q 114 261 115 127 l 114 734 l 151 734 l 151 260 q 203 83 152 143 q 354 23 255 23 q 525 73 459 23 q 608 218 591 122 l 608 734 l 646 734 l 646 642 q 739 682 710 647 q 768 807 768 718 l 805 807 z "},"ȷ":{"ha":286,"x_min":-106,"x_max":163,"o":"m 163 734 l 163 -60 q 112 -236 163 -176 q -31 -296 61 -296 q -106 -283 -67 -296 l -98 -248 q -31 -260 -65 -260 q 86 -208 45 -260 q 126 -60 126 -157 l 126 734 l 163 734 z "},"ə":{"ha":700,"x_min":59,"x_max":646,"o":"m 338 747 q 491 700 419 747 q 604 572 563 653 q 646 395 646 491 l 646 351 q 605 164 646 248 q 495 33 565 80 q 340 -14 425 -14 q 137 68 214 -14 q 59 288 59 150 l 59 342 l 608 342 l 609 394 q 573 553 609 480 q 475 668 538 626 q 338 711 412 711 q 205 690 262 711 q 106 621 148 669 l 86 650 q 338 747 174 747 m 606 305 l 96 305 l 96 283 q 164 95 96 168 q 340 22 233 22 q 520 101 446 22 q 606 305 593 180 z "},"ˆ":{"ha":540,"x_min":103,"x_max":445,"o":"m 445 864 l 445 857 l 399 857 l 272 990 l 146 857 l 103 857 l 103 867 l 259 1029 l 286 1029 l 445 864 z "},"ˇ":{"ha":518,"x_min":99,"x_max":436,"o":"m 269 874 l 400 1021 l 436 1021 l 436 1013 l 288 843 l 248 843 l 99 1014 l 99 1021 l 138 1021 l 269 874 z "},"ˉ":{"ha":550,"x_min":90,"x_max":474,"o":"m 474 938 l 90 938 l 90 974 l 474 974 l 474 938 z "},"˘":{"ha":581,"x_min":100,"x_max":477,"o":"m 477 1008 q 426 886 477 932 q 289 840 375 840 q 151 886 202 840 q 100 1008 100 932 l 136 1008 q 175 912 136 946 q 289 878 214 878 q 401 912 361 878 q 441 1008 441 947 l 477 1008 z "},"˙":{"ha":286,"x_min":106,"x_max":181,"o":"m 106 947 q 117 974 106 963 q 143 985 127 985 q 170 974 159 985 q 181 947 181 963 q 170 921 181 932 q 143 910 159 910 q 117 921 127 910 q 106 947 106 932 z "},"˚":{"ha":397,"x_min":77,"x_max":309,"o":"m 193 1055 q 276 1021 242 1055 q 309 937 309 986 q 276 855 309 888 q 193 822 242 822 q 112 854 146 822 q 77 937 77 886 q 112 1022 77 988 q 193 1055 146 1055 m 114 937 q 136 880 114 902 q 193 859 159 859 q 250 880 228 859 q 273 937 273 902 q 250 996 273 974 q 193 1019 228 1019 q 136 996 159 1019 q 114 937 114 974 z "},"˛":{"ha":319,"x_min":48,"x_max":233,"o":"m 212 0 q 111 -95 136 -59 q 85 -167 85 -132 q 148 -231 85 -231 q 222 -205 186 -231 l 233 -238 q 148 -268 195 -268 q 75 -243 102 -268 q 48 -167 48 -218 q 183 14 48 -87 l 212 0 z "},"˜":{"ha":554,"x_min":61,"x_max":494,"o":"m 494 998 q 460 907 494 943 q 375 872 426 872 q 271 915 320 872 q 180 957 222 957 q 120 934 142 957 q 98 872 98 911 l 61 872 q 95 960 61 926 q 180 994 129 994 q 284 951 233 994 q 375 909 336 909 q 434 934 412 909 q 457 998 457 958 l 494 998 z "},"˝":{"ha":531,"x_min":99,"x_max":503,"o":"m 449 1042 l 503 1042 l 308 836 l 258 836 l 449 1042 m 259 1042 l 311 1042 l 146 836 l 99 836 l 259 1042 z "},"˳":{"ha":435,"x_min":128,"x_max":309,"o":"m 128 -149 q 154 -92 128 -116 q 219 -67 180 -67 q 283 -92 257 -67 q 309 -149 309 -116 q 282 -204 309 -182 q 219 -227 256 -227 q 155 -204 182 -227 q 128 -149 128 -182 m 168 -149 q 182 -178 168 -166 q 219 -189 197 -189 q 256 -178 241 -189 q 271 -149 271 -166 q 256 -118 271 -130 q 219 -106 241 -106 q 182 -118 197 -106 q 168 -149 168 -130 z "},"̀":{"ha":0,"x_min":-505,"x_max":-332,"o":"m -332 861 l -372 861 l -505 1042 l -460 1042 l -332 861 z "},"́":{"ha":0,"x_min":-389,"x_max":-216,"o":"m -261 1042 l -216 1042 l -349 861 l -389 861 l -261 1042 z "},"̃":{"ha":0,"x_min":-557,"x_max":-124,"o":"m -124 998 q -158 907 -124 943 q -243 872 -193 872 q -347 915 -298 872 q -438 957 -396 957 q -498 934 -476 957 q -520 872 -520 911 l -557 872 q -524 960 -557 926 q -438 994 -490 994 q -334 951 -385 994 q -243 909 -283 909 q -184 934 -207 909 q -161 998 -161 958 l -124 998 z "},"̉":{"ha":0,"x_min":-437,"x_max":-239,"o":"m -406 832 l -406 899 q -308 922 -338 905 q -277 977 -277 939 q -321 1031 -277 1011 q -437 1051 -364 1051 l -433 1084 q -294 1056 -349 1084 q -239 977 -239 1027 q -273 901 -239 929 q -373 869 -307 873 l -373 832 l -406 832 z "},"̏":{"ha":0,"x_min":-657,"x_max":-253,"o":"m -406 849 l -455 849 l -657 1029 l -603 1029 l -406 849 m -253 849 l -300 849 l -471 1029 l -420 1029 l -253 849 z "},"̣":{"ha":0,"x_min":-429,"x_max":-353,"o":"m -429 -148 q -418 -121 -429 -132 q -391 -110 -407 -110 q -365 -121 -376 -110 q -353 -148 -353 -132 q -365 -174 -353 -163 q -391 -185 -376 -185 q -418 -174 -407 -185 q -429 -148 -429 -163 z "},"΄":{"ha":349,"x_min":146,"x_max":252,"o":"m 210 1070 l 252 1070 l 182 885 l 146 885 l 210 1070 z "},"΅":{"ha":629,"x_min":132,"x_max":509,"o":"m 316 1124 l 370 1124 l 340 961 l 300 961 l 316 1124 m 132 964 q 142 990 132 979 q 169 1002 153 1002 q 196 990 184 1002 q 207 964 207 979 q 196 937 207 948 q 169 926 184 926 q 142 937 153 926 q 132 964 132 948 m 433 964 q 444 990 433 979 q 471 1002 455 1002 q 497 990 486 1002 q 509 964 509 979 q 497 937 509 948 q 471 926 486 926 q 444 937 455 926 q 433 964 433 948 z "},"·":{"ha":320,"x_min":121,"x_max":197,"o":"m 121 479 q 132 506 121 494 q 159 517 143 517 q 185 506 174 517 q 197 479 197 494 q 185 452 197 463 q 159 441 174 441 q 132 452 143 441 q 121 479 121 463 z "},"Γ":{"ha":761,"x_min":131,"x_max":715,"o":"m 715 951 l 168 951 l 168 0 l 131 0 l 131 987 l 715 987 l 715 951 z "},"Δ":{"ha":957,"x_min":39,"x_max":920,"o":"m 457 987 l 501 987 l 920 0 l 39 0 l 457 987 m 95 37 l 863 37 l 499 899 l 479 953 l 458 899 l 95 37 z "},"Θ":{"ha":925,"x_min":90,"x_max":835,"o":"m 659 469 l 258 469 l 258 505 l 659 505 l 659 469 m 835 420 q 789 193 835 292 q 659 40 743 94 q 463 -14 574 -14 q 193 105 296 -14 q 90 425 90 224 l 90 568 q 136 794 90 695 q 267 947 182 893 q 462 1001 352 1001 q 657 947 572 1001 q 789 794 743 893 q 835 568 835 694 l 835 420 m 798 569 q 707 856 798 748 q 462 964 616 964 q 218 857 309 964 q 127 564 127 749 l 127 420 q 169 211 127 302 q 286 72 210 121 q 463 23 361 23 q 708 131 618 23 q 798 425 798 239 l 798 569 z "},"Λ":{"ha":890,"x_min":59,"x_max":828,"o":"m 443 940 l 99 0 l 59 0 l 421 987 l 465 987 l 828 0 l 788 0 l 443 940 z "},"Ξ":{"ha":760,"x_min":76,"x_max":690,"o":"m 76 37 l 690 37 l 690 0 l 76 0 l 76 37 m 149 503 l 611 503 l 611 466 l 149 466 l 149 503 m 90 987 l 663 987 l 663 951 l 90 951 l 90 987 z "},"Π":{"ha":975,"x_min":136,"x_max":840,"o":"m 840 0 l 803 0 l 803 951 l 172 951 l 172 0 l 136 0 l 136 987 l 840 987 l 840 0 z "},"Σ":{"ha":760,"x_min":39,"x_max":711,"o":"m 445 521 l 90 37 l 711 37 l 711 0 l 39 0 l 39 30 l 410 534 l 39 958 l 39 987 l 64 987 l 65 985 l 65 987 l 671 987 l 671 951 l 95 951 l 445 553 l 445 521 z "},"Φ":{"ha":991,"x_min":68,"x_max":924,"o":"m 513 859 q 727 811 634 857 q 872 684 821 766 q 924 501 924 602 q 872 318 924 400 q 728 190 821 236 q 513 142 634 143 l 513 0 l 476 0 l 476 142 q 180 244 293 144 q 68 500 68 345 l 69 531 q 180 755 81 666 q 476 858 293 855 l 476 987 l 513 987 l 513 859 m 886 501 q 840 667 886 593 q 709 780 793 741 q 513 822 625 820 l 513 178 q 784 269 682 180 q 886 501 886 359 m 105 500 q 206 270 105 358 q 476 178 307 181 l 476 821 q 282 779 366 820 q 152 665 198 738 q 105 500 105 591 z "},"Ψ":{"ha":968,"x_min":106,"x_max":864,"o":"m 503 319 q 735 409 644 322 q 827 636 825 495 l 827 987 l 864 987 l 864 637 q 819 452 863 532 q 692 328 774 372 q 503 282 610 284 l 503 0 l 465 0 l 465 282 q 205 382 302 286 q 106 638 107 477 l 106 987 l 143 987 l 143 645 q 232 412 143 500 q 465 319 321 323 l 465 987 l 503 987 l 503 319 z "},"Ω":{"ha":896,"x_min":83,"x_max":810,"o":"m 516 53 q 760 493 758 174 l 760 577 q 720 777 760 688 q 608 915 680 865 q 444 964 536 964 q 217 854 304 964 q 130 571 130 745 l 130 496 q 378 53 130 176 l 378 0 l 83 0 l 83 37 l 331 37 q 157 216 218 101 q 94 479 96 330 l 94 576 q 138 799 94 702 q 262 948 182 896 q 444 1001 342 1001 q 627 948 547 1001 q 752 798 707 895 q 796 576 796 701 l 796 496 q 737 224 796 342 q 561 37 677 106 l 810 37 l 810 0 l 516 0 l 516 53 z "},"α":{"ha":779,"x_min":83,"x_max":779,"o":"m 644 734 l 644 160 q 728 22 647 22 q 772 28 743 22 l 779 -5 q 730 -14 760 -14 q 642 23 671 -14 q 608 147 612 60 q 506 27 572 69 q 358 -14 441 -14 q 163 76 237 -14 q 83 323 90 165 l 83 368 q 157 646 83 545 q 359 747 231 747 q 507 701 444 747 q 608 568 570 655 l 608 579 l 612 734 l 644 734 m 121 353 q 182 110 121 198 q 357 22 243 22 q 517 77 453 22 q 608 233 581 132 l 608 471 q 513 648 578 585 q 359 711 448 711 q 184 619 247 711 q 121 353 121 528 z "},"β":{"ha":823,"x_min":131,"x_max":732,"o":"m 395 1001 q 587 931 513 1001 q 661 747 661 861 q 624 612 661 672 q 515 522 587 552 q 674 432 616 501 q 732 261 732 363 q 651 60 732 135 q 430 -14 570 -14 q 280 17 351 -14 q 169 100 208 47 l 169 -280 l 132 -280 l 132 193 l 131 216 l 132 216 l 132 715 q 168 861 132 795 q 264 964 203 928 q 395 1001 324 1001 m 624 751 q 562 905 624 845 q 395 964 499 964 q 234 893 299 964 q 169 711 169 821 l 169 165 q 268 62 196 102 q 430 22 340 22 q 626 84 557 22 q 694 258 694 146 q 623 435 694 372 q 422 498 552 498 l 323 498 l 323 536 l 391 536 q 624 751 624 536 z "},"γ":{"ha":663,"x_min":29,"x_max":634,"o":"m 595 734 l 634 734 l 350 3 l 350 -281 l 313 -281 l 313 1 l 29 734 l 68 734 l 295 155 l 332 50 l 369 155 l 595 734 z "},"δ":{"ha":760,"x_min":59,"x_max":701,"o":"m 146 888 q 214 1010 146 960 q 385 1060 282 1060 q 593 1008 508 1060 l 581 975 l 532 997 q 386 1023 470 1023 q 239 986 295 1023 q 182 888 182 949 q 236 782 182 821 q 398 720 290 743 q 617 593 534 691 q 701 361 701 495 l 701 339 q 661 157 701 237 q 548 32 621 77 q 381 -14 474 -14 q 149 85 239 -14 q 59 345 59 183 l 59 368 q 91 523 59 452 q 183 642 123 595 q 311 698 243 688 l 311 705 q 146 888 146 769 m 96 339 q 132 178 96 252 q 233 64 168 105 q 381 23 298 23 q 586 113 507 23 q 665 347 665 203 l 665 368 q 629 509 665 444 q 530 620 594 574 q 395 676 467 665 q 181 588 266 676 q 96 359 96 499 l 96 339 z "},"ε":{"ha":761,"x_min":79,"x_max":676,"o":"m 79 197 q 248 376 79 339 q 133 441 174 397 q 92 544 92 486 q 165 693 92 638 q 373 747 239 747 q 581 689 498 747 q 664 542 664 631 l 627 542 q 556 663 627 615 q 373 711 484 711 q 192 667 255 711 q 130 546 130 623 q 378 393 130 393 l 487 393 l 487 356 l 367 356 q 180 317 245 355 q 115 195 115 279 q 183 69 115 115 q 373 24 252 24 q 565 75 492 24 q 639 204 639 126 l 676 204 q 590 46 676 106 q 373 -14 503 -14 q 159 44 239 -14 q 79 197 79 102 z "},"ζ":{"ha":647,"x_min":26,"x_max":602,"o":"m 602 987 l 602 962 l 282 544 q 185 379 216 455 q 153 231 153 304 q 207 122 153 163 q 388 48 260 80 l 461 28 q 563 -20 535 8 q 591 -92 591 -48 q 558 -197 591 -146 q 486 -266 526 -248 l 460 -245 q 525 -183 495 -229 q 555 -92 555 -137 q 534 -42 555 -60 q 459 -8 513 -23 l 349 21 q 170 106 222 57 q 117 231 117 155 q 242 551 117 378 l 547 951 l 26 951 l 26 987 l 602 987 z "},"η":{"ha":760,"x_min":117,"x_max":647,"o":"m 153 581 q 248 703 185 658 q 407 747 310 747 q 587 679 528 747 q 647 467 646 610 l 647 -282 l 610 -282 l 610 469 q 560 650 609 590 q 408 711 511 711 q 234 645 300 711 q 153 452 169 579 l 153 0 l 117 0 l 117 734 l 153 734 l 153 581 z "},"θ":{"ha":801,"x_min":105,"x_max":696,"o":"m 696 403 q 618 95 696 204 q 401 -14 541 -14 q 184 96 262 -14 q 105 406 105 206 l 105 585 q 183 891 105 781 q 400 1002 260 1002 q 618 891 541 1002 q 696 582 696 781 l 696 403 m 142 508 l 659 508 l 659 585 q 592 865 659 764 q 400 965 524 965 q 209 864 275 965 q 142 581 142 764 l 142 508 m 659 471 l 142 471 l 142 404 q 210 124 142 225 q 401 23 279 23 q 592 124 525 23 q 659 408 659 225 l 659 471 z "},"ι":{"ha":383,"x_min":115,"x_max":342,"o":"m 153 734 l 153 178 q 179 67 153 104 q 263 31 204 31 q 336 37 293 31 l 342 3 q 265 -5 319 -5 q 151 39 185 -5 q 115 179 116 83 l 115 734 l 153 734 z "},"λ":{"ha":760,"x_min":42,"x_max":737,"o":"m 165 1029 q 317 902 270 1029 l 597 137 q 643 55 620 78 q 699 33 667 33 q 731 37 718 33 l 737 3 q 699 -4 725 -4 q 572 95 611 -4 l 556 136 l 366 663 l 359 679 l 82 0 l 42 0 l 341 729 l 275 905 q 166 993 239 993 l 134 989 l 127 1023 q 165 1029 140 1029 z "},"ξ":{"ha":682,"x_min":93,"x_max":630,"o":"m 626 934 q 442 965 541 965 q 254 917 321 965 q 186 779 186 868 q 454 604 186 606 l 542 604 l 542 566 l 465 566 q 217 496 304 566 q 130 302 130 426 q 158 183 130 232 q 240 100 185 135 q 407 34 295 66 l 492 11 q 590 -35 563 -9 q 617 -102 617 -60 q 588 -186 617 -144 q 514 -251 559 -227 l 492 -229 q 557 -170 533 -205 q 581 -101 581 -136 q 556 -55 581 -73 q 439 -12 531 -37 q 291 35 348 12 q 93 304 93 115 q 153 483 93 410 q 326 584 214 555 q 195 658 241 608 q 149 776 149 708 q 226 942 149 883 q 444 1001 303 1001 q 630 968 544 1001 l 626 934 z "},"π":{"ha":827,"x_min":42,"x_max":810,"o":"m 766 696 l 621 696 l 621 184 q 646 68 621 106 q 731 31 671 31 q 804 37 761 31 l 810 3 q 733 -5 787 -5 q 618 39 653 -5 q 583 179 584 83 l 583 696 l 211 696 l 211 0 l 174 0 l 174 696 l 42 696 l 42 734 l 766 734 l 766 696 z "},"ρ":{"ha":760,"x_min":117,"x_max":677,"o":"m 401 747 q 603 646 529 747 q 677 363 677 545 l 677 353 q 604 85 677 183 q 402 -14 530 -14 q 154 111 227 -14 l 153 -282 l 117 -282 l 117 435 q 196 663 118 579 q 401 747 273 747 m 154 177 q 248 63 184 104 q 403 23 312 23 q 578 110 516 23 q 640 357 640 197 l 640 368 q 577 619 640 527 q 401 711 514 711 q 221 632 288 711 q 155 412 155 553 l 154 177 z "},"ς":{"ha":739,"x_min":83,"x_max":655,"o":"m 389 747 q 581 677 507 747 q 655 488 655 608 l 618 488 q 555 651 618 591 q 389 711 492 711 q 193 621 265 711 q 121 376 121 532 l 121 353 q 198 139 121 222 q 420 24 275 56 q 532 -22 500 6 q 565 -111 565 -50 q 534 -197 565 -150 q 471 -257 503 -243 l 447 -235 q 504 -183 479 -220 q 528 -111 528 -146 q 505 -47 528 -66 q 409 -11 482 -27 q 165 116 246 25 q 83 345 85 206 l 83 381 q 120 572 83 488 q 228 701 158 655 q 389 747 298 747 z "},"σ":{"ha":758,"x_min":59,"x_max":758,"o":"m 758 696 l 524 696 q 654 572 608 654 q 701 381 701 490 l 701 353 q 661 163 701 247 q 548 33 621 80 q 381 -14 474 -14 q 215 33 288 -14 q 100 162 141 79 q 59 349 60 245 l 59 381 q 99 562 59 481 q 212 688 140 643 q 376 734 285 733 l 758 734 l 758 696 m 96 353 q 132 185 96 261 q 233 66 168 109 q 381 23 298 23 q 586 117 507 23 q 665 360 665 212 l 665 381 q 629 540 665 467 q 528 655 593 613 q 380 696 463 696 q 175 606 254 696 q 96 374 96 515 l 96 353 z "},"τ":{"ha":696,"x_min":50,"x_max":647,"o":"m 647 696 l 351 696 l 351 189 q 381 64 351 105 q 477 22 411 22 q 549 28 505 22 l 555 -5 q 479 -14 527 -14 q 354 33 393 -14 q 314 182 315 81 l 314 696 l 50 696 l 50 734 l 647 734 l 647 696 z "},"υ":{"ha":728,"x_min":114,"x_max":630,"o":"m 151 734 l 151 254 q 201 82 152 141 q 340 23 250 23 q 526 113 458 23 q 594 353 594 202 q 518 734 594 547 l 563 734 q 616 538 603 621 q 630 355 630 455 q 553 87 630 187 q 342 -14 477 -14 q 172 57 230 -14 q 114 262 114 127 l 114 734 l 151 734 z "},"φ":{"ha":926,"x_min":95,"x_max":836,"o":"m 443 -14 q 184 91 274 -7 q 95 370 95 189 q 142 583 95 486 q 273 734 190 681 l 290 705 q 174 567 218 661 q 131 369 131 473 q 211 117 131 204 q 443 23 291 30 l 443 606 q 477 698 443 663 q 561 734 511 734 q 702 688 639 734 q 801 558 765 642 q 836 370 836 474 q 792 176 836 264 q 668 39 748 89 q 479 -14 587 -10 l 479 -325 l 443 -325 l 443 -14 m 479 22 q 648 70 576 25 q 760 194 720 115 q 800 369 800 273 q 769 533 800 456 q 682 653 737 610 q 561 697 627 697 q 503 672 527 697 q 479 605 479 646 l 479 22 z "},"ψ":{"ha":926,"x_min":100,"x_max":837,"o":"m 479 734 l 479 23 q 719 123 637 26 q 800 399 800 219 q 697 734 800 570 l 743 734 l 776 670 q 837 400 837 551 q 745 97 837 203 q 479 -13 653 -9 l 479 -281 l 443 -281 l 443 -13 q 190 97 278 -7 q 100 393 102 201 l 100 734 l 137 734 l 137 389 q 218 123 139 217 q 443 24 296 30 l 443 734 l 479 734 z "},"ω":{"ha":1146,"x_min":103,"x_max":1045,"o":"m 242 734 q 139 339 139 537 q 196 110 139 197 q 352 23 254 23 q 501 99 448 23 q 555 321 554 176 l 555 522 l 593 522 l 593 317 q 647 99 595 176 q 796 23 699 23 q 951 110 894 23 q 1009 339 1009 197 q 985 529 1009 433 q 906 734 962 625 l 951 734 l 983 661 q 1045 341 1045 519 q 978 83 1045 180 q 797 -14 911 -14 q 654 34 710 -14 q 574 170 597 81 q 494 34 550 81 q 351 -14 437 -14 q 169 84 235 -14 q 103 341 103 182 q 164 660 103 517 l 197 734 l 242 734 z "},"ϑ":{"ha":790,"x_min":99,"x_max":771,"o":"m 771 488 q 715 473 753 481 q 644 465 677 466 l 644 276 q 575 59 642 132 q 371 -14 507 -14 q 174 62 246 -14 q 99 278 101 138 l 99 506 l 136 507 l 136 280 q 198 89 137 154 q 371 23 260 23 q 549 84 494 23 q 608 272 605 144 l 608 465 q 347 556 439 471 q 254 787 254 640 l 254 799 q 305 954 254 893 q 435 1015 356 1015 q 589 941 534 1015 q 644 728 644 867 l 644 501 q 764 524 711 504 l 771 488 m 290 783 q 372 579 290 651 q 608 502 454 508 l 608 735 q 565 917 607 855 q 435 979 523 979 q 332 931 372 979 q 290 805 292 884 l 290 783 z "},"ϒ":{"ha":750,"x_min":-39,"x_max":798,"o":"m 729 995 q 798 976 768 995 l 783 948 q 726 963 758 963 q 649 933 680 963 q 587 838 618 903 l 400 418 l 400 0 l 363 0 l 363 422 l 179 824 q 113 931 144 899 q 34 963 81 963 q -23 948 2 963 l -39 976 q 31 995 -6 995 q 131 960 91 995 q 209 840 170 926 l 344 540 l 380 454 l 416 540 l 551 840 q 630 961 591 928 q 729 995 669 995 z "},"ϖ":{"ha":1093,"x_min":26,"x_max":1074,"o":"m 1074 697 l 940 697 l 966 635 q 1017 341 1017 504 q 951 82 1017 178 q 770 -14 884 -14 q 631 30 690 -14 q 547 169 573 73 q 462 30 520 73 q 323 -14 404 -14 q 142 84 208 -14 q 76 341 76 182 q 127 635 76 502 l 153 697 l 26 697 l 26 734 l 1074 734 l 1074 697 m 981 339 q 897 697 981 518 l 197 697 q 112 339 112 518 q 169 110 112 197 q 325 23 227 23 q 474 99 422 23 q 528 317 526 176 l 528 524 l 566 524 l 565 307 q 621 97 568 170 q 768 23 673 23 q 924 110 866 23 q 981 339 981 197 z "},"Ђ":{"ha":1026,"x_min":45,"x_max":964,"o":"m 800 951 l 387 951 l 387 535 q 513 579 442 562 q 638 597 583 597 q 881 516 798 597 q 964 281 964 435 q 921 132 964 202 q 808 27 878 62 q 652 -7 739 -7 l 652 27 q 795 60 734 27 q 892 153 857 94 q 927 281 927 212 q 852 488 927 416 q 638 561 777 561 q 387 498 522 561 l 387 0 l 350 0 l 350 951 l 45 951 l 45 987 l 800 987 l 800 951 z "},"Є":{"ha":899,"x_min":98,"x_max":807,"o":"m 807 302 q 702 68 793 150 q 455 -14 611 -14 q 269 40 350 -14 q 143 191 188 93 q 98 415 98 289 l 98 568 q 142 793 98 694 q 268 947 186 892 q 455 1001 349 1001 q 701 920 610 1001 q 807 686 793 838 l 770 686 q 675 893 755 823 q 455 964 596 964 q 223 856 311 964 q 134 565 134 747 l 134 519 l 571 519 l 571 483 l 134 483 l 134 420 q 174 213 134 303 q 287 73 213 123 q 455 23 360 23 q 676 93 597 23 q 770 302 756 163 l 807 302 z "},"Љ":{"ha":1444,"x_min":37,"x_max":1352,"o":"m 782 548 l 1042 548 q 1269 472 1186 545 q 1352 274 1352 399 q 1268 75 1352 149 q 1034 0 1183 1 l 745 0 l 745 951 l 332 951 l 302 498 q 260 180 286 276 q 190 43 235 85 q 66 0 144 2 l 37 0 l 37 37 l 69 37 q 173 80 137 39 q 231 218 210 121 q 267 507 253 315 l 298 987 l 782 987 l 782 548 m 782 511 l 782 37 l 1032 37 q 1240 101 1164 37 q 1316 275 1316 165 q 1241 445 1316 380 q 1038 511 1166 510 l 782 511 z "},"Њ":{"ha":1498,"x_min":132,"x_max":1407,"o":"m 169 507 l 800 507 l 800 987 l 836 987 l 836 549 l 1097 549 q 1323 474 1240 547 q 1407 275 1407 401 q 1322 75 1407 150 q 1085 0 1237 0 l 800 0 l 800 471 l 169 471 l 169 0 l 132 0 l 132 987 l 169 987 l 169 507 m 836 513 l 836 36 l 1086 36 q 1294 100 1217 36 q 1370 276 1370 165 q 1296 446 1370 382 q 1098 513 1221 510 l 836 513 z "},"Ћ":{"ha":1105,"x_min":31,"x_max":989,"o":"m 787 951 l 387 951 l 387 512 q 664 555 545 555 q 909 482 831 555 q 989 258 987 409 l 989 0 l 952 0 l 952 260 q 880 455 950 391 q 664 518 810 518 q 387 475 533 518 l 387 0 l 350 0 l 350 951 l 31 951 l 31 987 l 787 987 l 787 951 z "},"Џ":{"ha":968,"x_min":132,"x_max":836,"o":"m 132 987 l 169 987 l 169 37 l 800 37 l 800 987 l 836 987 l 836 0 l 505 0 l 505 -237 l 469 -237 l 469 0 l 132 0 l 132 987 z "},"Б":{"ha":868,"x_min":131,"x_max":737,"o":"m 715 951 l 168 951 l 168 534 l 426 534 q 654 462 570 532 q 737 267 737 392 q 653 72 737 144 q 420 0 570 1 l 131 0 l 131 987 l 715 987 l 715 951 m 168 498 l 168 37 l 418 37 q 626 99 552 37 q 700 269 700 161 q 627 434 700 372 q 424 498 554 496 l 168 498 z "},"Д":{"ha":966,"x_min":62,"x_max":917,"o":"m 836 37 l 917 37 l 917 -237 l 880 -237 l 880 0 l 99 0 l 99 -237 l 62 -237 l 62 37 l 114 37 q 211 184 164 83 q 286 415 258 285 q 319 674 313 545 l 334 987 l 836 987 l 836 37 m 161 37 l 799 37 l 799 951 l 368 951 l 356 673 q 296 317 346 487 q 173 52 247 146 l 161 37 z "},"Ж":{"ha":1183,"x_min":13,"x_max":1164,"o":"m 723 488 l 607 488 l 607 0 l 570 0 l 570 488 l 453 488 l 62 0 l 13 0 l 414 500 l 37 987 l 85 987 l 444 525 l 570 525 l 570 987 l 607 987 l 607 525 l 733 525 l 1092 987 l 1139 987 l 762 500 l 1164 0 l 1115 0 l 723 488 z "},"З":{"ha":828,"x_min":68,"x_max":759,"o":"m 707 737 q 629 905 707 846 q 409 964 551 964 q 202 899 285 964 q 119 729 119 834 l 82 729 q 124 869 82 808 q 243 966 167 931 q 409 1001 319 1001 q 656 931 568 1001 q 743 734 743 861 q 690 591 743 652 q 546 505 637 530 q 759 262 759 460 q 663 61 759 136 q 409 -14 568 -14 q 233 23 312 -14 q 111 125 153 60 q 68 274 68 189 l 105 274 q 190 94 105 165 q 409 22 274 22 q 640 85 557 22 q 722 259 722 147 q 648 428 722 372 q 414 485 573 484 l 281 485 l 281 523 l 410 523 q 631 577 556 524 q 707 737 707 631 z "},"И":{"ha":983,"x_min":136,"x_max":847,"o":"m 810 987 l 847 987 l 847 0 l 810 0 l 810 925 l 172 0 l 136 0 l 136 987 l 172 987 l 172 64 l 810 987 z "},"Л":{"ha":968,"x_min":23,"x_max":836,"o":"m 836 987 l 836 0 l 800 0 l 800 951 l 319 951 l 289 498 q 247 180 273 276 q 176 43 221 85 q 53 0 131 2 l 23 0 l 23 37 l 56 37 q 160 80 123 39 q 218 218 196 121 q 253 507 239 315 l 285 987 l 836 987 z "},"У":{"ha":870,"x_min":22,"x_max":835,"o":"m 453 306 l 790 987 l 835 987 l 429 176 l 405 130 q 189 -14 326 -14 q 130 -5 151 -14 l 140 29 q 193 22 159 22 q 298 58 252 22 q 387 176 345 94 l 433 267 l 22 987 l 68 987 l 453 306 z "},"Ф":{"ha":991,"x_min":47,"x_max":944,"o":"m 513 886 l 537 886 q 748 836 655 885 q 892 697 841 786 q 944 501 944 609 q 892 303 944 393 q 746 164 840 214 q 533 115 652 115 l 513 115 l 513 -41 l 476 -41 l 476 115 l 454 115 q 243 165 336 115 q 99 302 150 214 q 47 500 47 391 q 97 695 47 607 q 239 833 147 783 q 448 886 332 884 l 476 886 l 476 1029 l 513 1029 l 513 886 m 513 849 l 513 151 l 534 151 q 728 195 643 151 q 860 319 812 239 q 907 501 907 400 q 861 679 907 600 q 731 804 815 759 q 538 849 646 848 l 513 849 m 459 849 q 263 804 349 849 q 131 679 178 760 q 85 500 85 599 q 131 320 85 400 q 260 197 176 241 q 452 151 343 153 l 476 151 l 476 849 l 459 849 z "},"Ц":{"ha":967,"x_min":125,"x_max":919,"o":"m 125 987 l 161 987 l 161 37 l 792 37 l 792 987 l 829 987 l 829 37 l 919 37 l 919 -238 l 882 -238 l 882 0 l 125 0 l 125 987 z "},"Ч":{"ha":899,"x_min":132,"x_max":766,"o":"m 766 987 l 766 0 l 730 0 l 730 488 q 457 446 580 446 q 211 519 290 446 q 132 746 133 592 l 132 987 l 169 987 l 169 741 q 241 546 171 610 q 457 483 311 483 q 730 524 588 483 l 730 987 l 766 987 z "},"Ш":{"ha":1265,"x_min":127,"x_max":1138,"o":"m 165 987 l 165 37 l 614 37 l 614 987 l 652 987 l 652 37 l 1101 37 l 1101 987 l 1138 987 l 1138 0 l 127 0 l 127 987 l 165 987 z "},"Щ":{"ha":1273,"x_min":127,"x_max":1225,"o":"m 165 987 l 165 37 l 614 37 l 614 987 l 652 987 l 652 37 l 1101 37 l 1101 987 l 1138 987 l 1138 37 l 1225 37 l 1225 -238 l 1189 -238 l 1189 0 l 127 0 l 127 987 l 165 987 z "},"Ъ":{"ha":1097,"x_min":-25,"x_max":966,"o":"m -25 987 l 396 987 l 396 534 l 654 534 q 882 462 799 532 q 966 267 966 392 q 882 72 966 144 q 649 0 798 1 l 359 0 l 359 951 l -25 951 l -25 987 m 396 498 l 396 37 l 646 37 q 854 99 781 37 q 928 269 928 161 q 856 434 928 372 q 652 498 783 496 l 396 498 z "},"Ы":{"ha":1118,"x_min":131,"x_max":981,"o":"m 168 534 l 426 534 q 654 462 570 532 q 737 267 737 392 q 653 72 737 144 q 420 0 570 1 l 131 0 l 131 987 l 168 987 l 168 534 m 168 498 l 168 37 l 418 37 q 626 99 552 37 q 700 269 700 161 q 627 434 700 372 q 424 498 554 496 l 168 498 m 981 0 l 945 0 l 945 987 l 981 987 l 981 0 z "},"Ь":{"ha":829,"x_min":131,"x_max":737,"o":"m 168 534 l 426 534 q 654 462 570 532 q 737 267 737 392 q 653 72 737 144 q 420 0 570 1 l 131 0 l 131 987 l 168 987 l 168 534 m 168 498 l 168 37 l 418 37 q 626 99 552 37 q 700 269 700 161 q 627 434 700 372 q 424 498 554 496 l 168 498 z "},"Э":{"ha":899,"x_min":92,"x_max":801,"o":"m 128 302 q 222 93 142 163 q 444 23 302 23 q 675 131 586 23 q 764 425 764 239 l 764 481 l 329 481 l 329 518 l 764 518 l 764 569 q 676 856 764 747 q 444 964 587 964 q 223 893 302 964 q 128 686 144 823 l 92 686 q 197 920 106 838 q 444 1001 289 1001 q 630 948 549 1001 q 755 797 711 895 q 801 575 800 700 l 801 420 q 756 193 801 292 q 630 40 712 94 q 444 -14 549 -14 q 196 68 287 -14 q 92 302 106 151 l 128 302 z "},"Ю":{"ha":1286,"x_min":160,"x_max":1163,"o":"m 1163 420 q 1117 193 1163 292 q 987 40 1072 94 q 791 -14 902 -14 q 522 105 625 -14 q 418 425 418 224 l 418 497 l 197 497 l 197 0 l 160 0 l 160 987 l 197 987 l 197 534 l 418 534 l 418 562 q 521 883 418 764 q 790 1001 623 1001 q 986 947 901 1001 q 1117 794 1071 893 q 1163 568 1163 694 l 1163 420 m 1126 569 q 1036 856 1126 748 q 790 964 945 964 q 547 857 637 964 q 456 564 456 749 l 456 420 q 497 211 456 302 q 614 72 538 121 q 791 23 690 23 q 1036 131 946 23 q 1126 425 1126 239 l 1126 569 z "},"Я":{"ha":814,"x_min":64,"x_max":711,"o":"m 673 0 l 673 420 l 333 420 l 106 0 l 64 0 l 300 429 l 296 432 q 152 528 203 460 q 100 690 100 595 q 185 909 100 831 q 425 987 271 987 l 711 987 l 711 0 l 673 0 m 137 692 q 204 521 137 585 q 381 457 271 457 l 673 457 l 673 951 l 422 951 q 211 884 286 951 q 137 692 137 818 z "},"б":{"ha":761,"x_min":66,"x_max":709,"o":"m 387 680 q 619 589 529 680 q 709 348 709 498 l 709 326 q 668 150 709 228 q 554 29 627 72 q 388 -14 480 -14 q 221 30 295 -14 q 106 151 146 73 q 66 326 66 228 l 66 401 q 153 762 66 623 q 395 922 240 901 q 550 968 502 937 q 599 1053 599 998 l 635 1053 q 576 940 635 982 q 403 886 517 898 q 213 782 289 874 q 112 533 137 690 q 223 641 153 602 q 387 680 294 680 m 387 643 q 182 560 261 643 q 102 348 102 477 l 102 326 q 139 172 102 241 q 240 62 175 102 q 388 23 304 23 q 592 110 513 23 q 671 332 671 196 l 671 354 q 635 500 671 433 q 534 605 600 567 q 387 643 469 643 z "},"в":{"ha":760,"x_min":123,"x_max":682,"o":"m 123 0 l 123 734 l 375 734 q 579 685 509 734 q 650 544 650 637 q 613 437 650 483 q 505 376 575 392 l 506 376 q 631 318 581 368 q 682 199 682 268 q 613 52 682 104 q 418 0 543 0 l 123 0 m 159 353 l 159 37 l 422 37 q 587 79 527 37 q 646 198 646 121 q 586 310 646 267 q 420 353 525 353 l 159 353 m 159 390 l 389 390 q 557 429 500 390 q 614 546 614 469 q 553 661 614 625 q 375 696 492 696 l 159 696 l 159 390 z "},"г":{"ha":588,"x_min":117,"x_max":557,"o":"m 557 696 l 153 696 l 153 0 l 117 0 l 117 734 l 557 734 l 557 696 z "},"д":{"ha":754,"x_min":40,"x_max":697,"o":"m 89 37 l 115 71 q 231 467 214 208 l 245 734 l 639 734 l 639 37 l 697 37 l 697 -216 l 661 -216 l 661 0 l 70 0 l 70 -216 l 40 -216 l 40 37 l 89 37 m 134 37 l 602 37 l 602 697 l 279 697 l 267 454 q 134 37 248 178 z "},"ж":{"ha":1067,"x_min":18,"x_max":1039,"o":"m 652 358 l 546 358 l 546 0 l 509 0 l 509 358 l 404 358 l 66 0 l 18 0 l 365 374 l 61 734 l 106 734 l 398 395 l 509 395 l 509 734 l 546 734 l 546 395 l 659 395 l 950 734 l 997 734 l 691 374 l 1039 0 l 991 0 l 652 358 z "},"з":{"ha":702,"x_min":74,"x_max":624,"o":"m 574 546 q 516 667 574 624 q 349 711 459 711 q 189 663 254 711 q 123 542 123 614 l 86 542 q 163 689 86 631 q 349 747 240 747 q 543 693 474 747 q 611 544 611 640 q 574 441 611 486 q 469 376 536 397 q 624 197 624 340 q 550 44 624 100 q 350 -13 475 -13 q 212 14 277 -13 q 111 90 148 41 q 74 204 74 139 l 111 204 q 179 76 111 128 q 350 24 247 24 q 527 70 467 24 q 587 195 587 116 q 528 317 587 279 q 352 356 469 355 l 250 356 l 250 393 l 359 393 q 574 546 574 397 z "},"и":{"ha":760,"x_min":117,"x_max":644,"o":"m 607 734 l 644 734 l 644 0 l 607 0 l 607 669 l 153 0 l 117 0 l 117 734 l 153 734 l 153 65 l 607 734 z "},"к":{"ha":689,"x_min":116,"x_max":681,"o":"m 288 359 l 153 359 l 153 0 l 116 0 l 116 734 l 153 734 l 153 395 l 294 395 l 585 734 l 638 734 l 326 374 l 681 0 l 626 0 l 288 359 z "},"л":{"ha":761,"x_min":30,"x_max":644,"o":"m 644 734 l 644 0 l 607 0 l 607 696 l 256 696 l 241 353 q 189 79 231 157 q 56 0 147 1 l 30 0 l 30 36 l 60 36 q 162 109 130 39 q 204 342 194 178 l 220 734 l 644 734 z "},"м":{"ha":1001,"x_min":123,"x_max":884,"o":"m 507 56 l 840 734 l 884 734 l 884 0 l 847 0 l 847 663 l 521 0 l 492 0 l 159 680 l 159 0 l 123 0 l 123 734 l 173 734 l 507 56 z "},"н":{"ha":760,"x_min":117,"x_max":644,"o":"m 644 0 l 607 0 l 607 359 l 153 359 l 153 0 l 117 0 l 117 734 l 153 734 l 153 395 l 607 395 l 607 734 l 644 734 l 644 0 z "},"п":{"ha":760,"x_min":117,"x_max":644,"o":"m 644 0 l 607 0 l 607 696 l 153 696 l 153 0 l 117 0 l 117 734 l 644 734 l 644 0 z "},"т":{"ha":652,"x_min":27,"x_max":625,"o":"m 625 696 l 337 696 l 337 0 l 300 0 l 300 696 l 27 696 l 27 734 l 625 734 l 625 696 z "},"ф":{"ha":1006,"x_min":83,"x_max":924,"o":"m 83 368 q 153 645 83 542 q 346 747 222 747 q 486 702 430 747 l 486 1042 l 522 1042 l 522 703 q 661 747 576 747 q 852 647 782 747 q 924 376 922 547 l 924 353 q 853 84 924 182 q 662 -14 783 -14 q 522 28 579 -14 l 522 -282 l 486 -282 l 486 28 q 345 -14 427 -14 q 159 76 229 -14 q 83 325 90 165 l 83 368 m 121 353 q 179 109 121 195 q 344 22 238 22 q 471 59 418 22 l 486 69 l 486 653 q 345 711 447 711 q 181 620 241 711 q 121 353 121 529 m 887 368 q 828 618 887 526 q 661 711 768 711 q 522 654 559 711 l 522 68 q 663 22 580 22 q 829 110 770 22 q 887 368 887 197 z "},"ц":{"ha":760,"x_min":117,"x_max":706,"o":"m 117 734 l 153 734 l 153 37 l 607 37 l 607 734 l 644 734 l 644 37 l 706 37 l 706 -218 l 669 -218 l 669 0 l 117 0 l 117 734 z "},"ч":{"ha":724,"x_min":79,"x_max":607,"o":"m 607 0 l 570 0 l 570 354 q 460 315 522 330 q 357 300 399 300 q 190 326 247 300 q 106 411 133 352 q 79 574 79 471 l 79 734 l 116 734 l 116 574 q 139 432 116 484 q 212 359 162 381 q 357 336 262 336 q 473 354 411 339 q 570 389 535 370 l 570 734 l 607 734 l 607 0 z "},"ш":{"ha":1081,"x_min":117,"x_max":990,"o":"m 153 734 l 153 37 l 538 37 l 538 734 l 575 734 l 575 37 l 954 37 l 954 734 l 990 734 l 990 0 l 117 0 l 117 734 l 153 734 z "},"щ":{"ha":1080,"x_min":117,"x_max":1063,"o":"m 153 734 l 153 37 l 538 37 l 538 734 l 575 734 l 575 37 l 954 37 l 954 734 l 990 734 l 990 37 l 1063 37 l 1063 -218 l 1027 -218 l 1027 0 l 117 0 l 117 734 l 153 734 z "},"ъ":{"ha":888,"x_min":27,"x_max":810,"o":"m 27 734 l 314 734 l 314 454 l 555 454 q 741 391 672 452 q 810 227 810 330 q 742 64 810 125 q 555 0 673 2 l 277 0 l 277 697 l 27 697 l 27 734 m 314 418 l 314 37 l 548 37 q 714 89 654 37 q 774 229 774 140 q 715 365 774 313 q 553 418 656 416 l 314 418 z "},"ы":{"ha":1008,"x_min":123,"x_max":892,"o":"m 159 454 l 400 454 q 587 391 517 452 q 656 227 656 330 q 587 64 656 125 q 400 0 519 2 l 123 0 l 123 734 l 159 734 l 159 454 m 159 418 l 159 37 l 393 37 q 559 89 499 37 q 619 229 619 140 q 561 365 619 313 q 399 418 502 416 l 159 418 m 892 0 l 855 0 l 855 734 l 892 734 l 892 0 z "},"ь":{"ha":732,"x_min":123,"x_max":656,"o":"m 159 454 l 400 454 q 587 391 517 452 q 656 227 656 330 q 587 64 656 125 q 400 0 519 2 l 123 0 l 123 734 l 159 734 l 159 454 m 159 418 l 159 37 l 393 37 q 559 89 499 37 q 619 229 619 140 q 561 365 619 313 q 399 418 502 416 l 159 418 z "},"э":{"ha":739,"x_min":83,"x_max":655,"o":"m 349 711 q 183 656 246 711 q 121 508 121 601 l 83 508 q 159 681 83 614 q 349 747 236 747 q 571 647 487 747 q 655 376 655 547 l 655 353 q 571 86 655 186 q 350 -14 487 -14 q 156 57 230 -14 q 83 245 83 128 l 121 245 q 183 83 121 144 q 350 23 246 23 q 545 112 472 23 q 618 350 617 200 l 231 350 l 231 387 l 618 387 q 545 622 617 534 q 349 711 473 711 z "},"ю":{"ha":1125,"x_min":123,"x_max":1044,"o":"m 159 378 l 402 378 q 492 645 402 543 q 723 747 582 747 q 888 702 815 747 q 1003 573 962 656 q 1044 385 1044 490 l 1044 353 q 1004 163 1044 247 q 891 33 964 80 q 724 -14 817 -14 q 561 31 633 -14 q 446 156 488 75 q 402 341 405 237 l 159 341 l 159 0 l 123 0 l 123 734 l 159 734 l 159 378 m 439 353 q 475 185 439 261 q 576 66 511 109 q 724 23 641 23 q 929 117 850 23 q 1008 360 1008 212 l 1008 381 q 971 548 1008 471 q 870 668 935 625 q 723 711 805 711 q 518 615 597 711 q 439 374 439 519 l 439 353 z "},"я":{"ha":747,"x_min":94,"x_max":627,"o":"m 627 734 l 627 0 l 590 0 l 590 305 l 321 305 l 138 0 l 94 0 l 279 309 q 154 378 200 321 q 108 519 108 434 q 173 673 108 615 q 349 734 237 732 l 627 734 m 144 518 q 192 391 144 439 q 321 342 240 344 l 590 342 l 590 696 l 355 696 q 200 649 256 696 q 144 518 144 602 z "},"ђ":{"ha":760,"x_min":-20,"x_max":647,"o":"m 378 855 l 153 855 l 153 563 q 259 698 189 648 q 414 747 329 747 q 589 681 532 747 q 647 479 646 614 l 647 -60 q 596 -236 647 -176 q 453 -296 545 -296 q 363 -283 410 -296 l 372 -248 q 453 -260 409 -260 q 570 -208 529 -260 q 610 -60 610 -157 l 610 475 q 563 654 610 596 q 412 711 516 711 q 247 644 317 711 q 153 470 178 576 l 153 0 l 117 0 l 117 855 l -20 855 l -20 892 l 117 892 l 117 1042 l 153 1042 l 153 892 l 378 892 l 378 855 z "},"є":{"ha":739,"x_min":76,"x_max":648,"o":"m 376 23 q 540 76 475 23 q 611 222 605 129 l 648 222 q 566 51 642 116 q 376 -14 489 -14 q 157 86 238 -14 q 76 357 76 186 l 76 381 q 157 648 76 548 q 374 747 238 747 q 567 677 491 747 q 648 492 643 608 l 611 492 q 542 651 606 591 q 374 711 477 711 q 183 624 253 711 q 113 387 114 537 l 507 387 l 507 350 l 113 350 q 182 111 113 199 q 376 23 252 23 z "},"љ":{"ha":1196,"x_min":23,"x_max":1141,"o":"m 644 427 l 886 427 q 1072 367 1002 425 q 1141 214 1141 309 q 1073 60 1141 119 q 886 0 1004 2 l 607 0 l 607 696 l 249 696 l 235 353 q 182 79 224 157 q 49 0 140 1 l 23 0 l 23 36 l 54 36 q 155 109 123 39 q 197 342 187 178 l 214 734 l 644 734 l 644 427 m 644 391 l 644 37 l 878 37 q 1045 85 985 37 q 1104 215 1104 134 q 1046 341 1104 293 q 886 391 987 389 l 644 391 z "},"њ":{"ha":1196,"x_min":117,"x_max":1141,"o":"m 153 429 l 607 429 l 607 734 l 644 734 l 644 427 l 886 427 q 1072 367 1002 425 q 1141 214 1141 309 q 1073 60 1141 119 q 886 0 1004 2 l 607 0 l 607 392 l 153 392 l 153 0 l 117 0 l 117 734 l 153 734 l 153 429 m 644 391 l 644 37 l 878 37 q 1045 85 985 37 q 1104 215 1104 134 q 1046 341 1104 293 q 886 391 987 389 l 644 391 z "},"ћ":{"ha":760,"x_min":-20,"x_max":647,"o":"m 378 868 l 153 868 l 153 563 q 259 698 189 648 q 414 747 329 747 q 589 681 532 747 q 647 479 646 614 l 647 0 l 610 0 l 610 480 q 562 655 610 598 q 412 711 515 711 q 247 644 317 711 q 153 470 178 576 l 153 0 l 117 0 l 117 868 l -20 868 l -20 905 l 117 905 l 117 1042 l 153 1042 l 153 905 l 378 905 l 378 868 z "},"џ":{"ha":760,"x_min":117,"x_max":644,"o":"m 153 734 l 153 37 l 607 37 l 607 734 l 644 734 l 644 0 l 401 0 l 401 -237 l 365 -237 l 365 0 l 117 0 l 117 734 l 153 734 z "},"Ѡ":{"ha":1245,"x_min":125,"x_max":1113,"o":"m 1113 987 l 1113 286 q 1044 66 1112 146 q 857 -14 976 -14 q 706 33 768 -14 q 619 161 644 79 q 532 33 594 79 q 382 -14 469 -14 q 196 66 264 -14 q 125 286 127 145 l 125 987 l 162 987 l 162 286 q 223 94 163 165 q 382 23 283 23 q 541 95 481 23 q 601 289 600 167 l 601 987 l 637 987 l 637 286 q 698 94 639 165 q 857 23 758 23 q 1016 95 956 23 q 1076 289 1076 167 l 1076 987 l 1113 987 z "},"ѡ":{"ha":1217,"x_min":125,"x_max":1059,"o":"m 1059 734 l 1059 274 q 994 63 1058 141 q 817 -14 930 -14 q 676 28 734 -14 q 592 149 617 71 q 506 26 565 67 q 368 -14 446 -14 q 192 62 256 -14 q 125 272 127 138 l 125 734 l 162 734 l 162 273 q 219 91 163 159 q 368 22 275 22 q 518 91 462 22 q 574 279 574 159 l 574 734 l 610 734 l 610 273 q 667 91 612 159 q 817 22 723 22 q 966 91 910 22 q 1022 279 1022 159 l 1022 734 l 1059 734 z "},"ѣ":{"ha":732,"x_min":-16,"x_max":656,"o":"m 382 734 l 159 734 l 159 454 l 400 454 q 587 391 517 452 q 656 227 656 330 q 587 64 656 125 q 400 0 519 2 l 123 0 l 123 734 l -16 734 l -16 770 l 123 770 l 123 1043 l 159 1043 l 159 770 l 382 770 l 382 734 m 159 418 l 159 37 l 393 37 q 559 89 499 37 q 619 229 619 140 q 561 365 619 313 q 399 418 502 416 l 159 418 z "},"Ѥ":{"ha":1238,"x_min":161,"x_max":1124,"o":"m 197 538 l 414 538 l 414 572 q 459 796 415 698 q 585 948 504 895 q 772 1002 667 1002 q 1018 920 926 1002 q 1124 687 1109 839 l 1087 687 q 992 894 1072 823 q 772 965 913 965 q 539 857 628 965 q 451 566 451 748 l 451 538 l 804 538 l 804 502 l 451 502 l 451 420 q 490 214 451 304 q 603 74 530 124 q 772 24 677 24 q 993 94 913 24 q 1087 303 1073 163 l 1124 303 q 1019 69 1109 151 q 772 -13 928 -13 q 586 40 667 -13 q 460 192 505 94 q 414 416 415 290 l 414 502 l 197 502 l 197 0 l 161 0 l 161 987 l 197 987 l 197 538 z "},"ѥ":{"ha":1029,"x_min":121,"x_max":937,"o":"m 158 399 l 366 399 q 450 653 370 558 q 664 747 530 747 q 857 677 781 747 q 937 492 932 608 l 901 492 q 831 651 896 591 q 664 711 766 711 q 475 627 544 711 q 402 399 407 544 l 746 399 l 746 362 l 402 362 l 402 353 q 472 111 402 199 q 665 23 543 23 q 830 76 765 23 q 901 222 895 129 l 937 222 q 855 51 932 116 q 665 -14 779 -14 q 447 86 528 -14 q 366 362 366 186 l 158 362 l 158 0 l 121 0 l 121 734 l 158 734 l 158 399 z "},"Ѧ":{"ha":830,"x_min":23,"x_max":806,"o":"m 637 345 l 429 345 l 429 0 l 392 0 l 392 345 l 192 345 l 63 0 l 23 0 l 392 987 l 437 987 l 806 0 l 766 0 l 637 345 m 205 381 l 623 381 l 435 884 l 414 948 l 394 884 l 205 381 z "},"ѧ":{"ha":724,"x_min":24,"x_max":685,"o":"m 528 268 l 376 268 l 376 0 l 339 0 l 339 268 l 181 268 l 64 0 l 24 0 l 337 732 l 337 734 l 372 734 l 685 0 l 646 0 l 528 268 m 197 304 l 511 304 l 391 578 l 355 684 l 317 578 l 197 304 z "},"Ѩ":{"ha":1216,"x_min":173,"x_max":1165,"o":"m 210 381 l 524 381 l 751 987 l 795 987 l 1165 0 l 1125 0 l 996 345 l 787 345 l 787 0 l 751 0 l 751 345 l 551 345 l 422 0 l 382 0 l 511 345 l 210 345 l 210 0 l 173 0 l 173 987 l 210 987 l 210 381 m 564 381 l 982 381 l 794 884 l 773 948 l 753 884 l 564 381 z "},"ѩ":{"ha":1042,"x_min":145,"x_max":988,"o":"m 182 304 l 457 304 l 640 732 l 640 734 l 675 734 l 988 0 l 949 0 l 831 268 l 679 268 l 679 0 l 642 0 l 642 268 l 484 268 l 368 0 l 328 0 l 441 268 l 182 268 l 182 0 l 145 0 l 145 734 l 182 734 l 182 304 m 500 304 l 814 304 l 694 578 l 658 684 l 621 578 l 500 304 z "},"Ѫ":{"ha":1080,"x_min":113,"x_max":966,"o":"m 113 0 l 113 271 q 182 448 115 389 q 389 508 250 508 l 498 508 l 178 987 l 901 987 l 579 508 l 692 508 q 897 449 830 508 q 966 271 964 390 l 966 0 l 930 0 l 930 268 q 874 423 929 376 q 696 471 820 471 l 557 471 l 557 0 l 521 0 l 521 471 l 389 471 q 206 423 261 471 q 151 265 151 375 l 151 0 l 113 0 m 831 951 l 245 951 l 521 531 l 535 508 l 543 508 l 557 531 l 831 951 z "},"ѫ":{"ha":942,"x_min":113,"x_max":829,"o":"m 523 397 l 553 397 q 760 338 692 397 q 829 161 827 279 l 829 0 l 792 0 l 792 161 q 736 311 790 264 q 562 359 683 358 l 495 359 l 490 353 l 490 0 l 454 0 l 454 353 l 450 359 l 390 359 q 208 312 263 359 q 151 161 153 265 l 151 0 l 113 0 l 113 161 q 182 337 115 278 q 387 397 249 396 l 422 397 l 171 734 l 774 734 l 523 397 m 702 696 l 243 696 l 461 404 l 465 397 l 479 397 l 484 405 l 702 696 z "},"Ѭ":{"ha":1437,"x_min":160,"x_max":1322,"o":"m 197 508 l 854 508 l 534 987 l 1257 987 l 935 508 l 1048 508 q 1253 449 1186 508 q 1322 271 1320 390 l 1322 0 l 1286 0 l 1286 268 q 1231 423 1285 376 q 1052 471 1176 471 l 913 471 l 913 0 l 877 0 l 877 471 l 745 471 q 562 423 617 471 q 507 265 507 375 l 507 0 l 469 0 l 469 271 q 572 471 471 415 l 197 471 l 197 0 l 160 0 l 160 987 l 197 987 l 197 508 m 1187 951 l 602 951 l 877 531 l 891 508 l 899 508 l 913 531 l 1187 951 z "},"ѭ":{"ha":1218,"x_min":123,"x_max":1104,"o":"m 159 397 l 697 397 l 446 734 l 1049 734 l 798 397 l 829 397 q 1035 338 968 397 q 1104 161 1102 279 l 1104 0 l 1067 0 l 1067 161 q 1012 311 1065 264 q 837 359 958 358 l 770 359 l 766 353 l 766 0 l 729 0 l 729 353 l 725 359 l 653 359 q 480 310 533 357 q 426 159 427 263 l 426 0 l 389 0 l 389 164 q 489 359 392 303 l 159 359 l 159 0 l 123 0 l 123 734 l 159 734 l 159 397 m 977 696 l 518 696 l 736 404 l 740 397 l 755 397 l 759 405 l 977 696 z "},"Ѯ":{"ha":711,"x_min":104,"x_max":685,"o":"m 632 737 q 560 893 632 838 q 355 951 488 949 l 121 951 l 121 987 l 346 987 q 585 921 500 987 q 669 734 669 854 q 617 592 669 653 q 473 505 565 531 q 685 262 685 460 q 585 73 685 146 q 319 1 486 1 l 271 1 q 172 -22 204 1 q 140 -96 140 -45 q 178 -171 140 -134 q 262 -221 217 -209 l 252 -256 q 149 -193 195 -240 q 104 -96 104 -146 q 146 2 104 -33 q 271 37 188 37 l 323 37 q 560 97 473 37 q 648 259 648 157 q 573 428 648 372 q 340 485 498 484 l 249 485 l 249 523 l 344 523 q 559 578 486 525 q 632 737 632 632 m 410 1139 l 542 1286 l 578 1286 l 578 1278 l 430 1108 l 390 1108 l 241 1279 l 241 1286 l 279 1286 l 410 1139 z "},"ѯ":{"ha":675,"x_min":76,"x_max":587,"o":"m 534 554 q 472 658 534 621 q 297 696 410 696 l 101 696 l 101 734 l 298 734 q 500 685 429 732 q 572 551 572 637 q 533 449 572 494 q 418 379 494 403 q 587 206 587 342 q 499 58 587 115 q 266 1 411 1 l 243 1 q 144 -22 176 1 q 112 -96 112 -45 q 151 -172 112 -134 q 235 -221 190 -210 l 224 -256 q 122 -193 168 -240 q 76 -96 76 -146 q 253 37 76 37 q 503 102 429 37 q 550 203 550 144 q 480 323 550 287 q 276 359 410 359 l 193 359 l 193 397 l 289 397 q 534 554 534 401 m 301 924 l 433 1072 l 469 1072 l 469 1063 l 321 893 l 281 893 l 132 1064 l 132 1072 l 170 1072 l 301 924 z "},"Ѳ":{"ha":925,"x_min":90,"x_max":835,"o":"m 835 420 q 789 193 835 292 q 659 40 743 94 q 463 -14 574 -14 q 193 105 296 -14 q 90 425 90 224 l 90 568 q 136 794 90 695 q 267 947 182 893 q 462 1001 352 1001 q 657 947 572 1001 q 789 794 743 893 q 835 568 835 694 l 835 420 m 127 512 l 798 512 l 798 569 q 707 856 798 748 q 462 964 616 964 q 218 857 309 964 q 127 564 127 749 l 127 512 m 798 475 l 127 475 l 127 420 q 169 211 127 302 q 286 72 210 121 q 463 23 361 23 q 708 131 618 23 q 798 425 798 239 l 798 475 z "},"ѳ":{"ha":782,"x_min":59,"x_max":701,"o":"m 59 381 q 99 570 59 486 q 213 701 140 654 q 380 747 287 747 q 545 702 472 747 q 660 573 618 656 q 701 385 701 490 l 701 353 q 661 163 701 247 q 548 33 621 80 q 381 -14 474 -14 q 215 33 288 -14 q 100 162 141 79 q 59 349 60 245 l 59 381 m 96 385 l 665 385 q 628 549 664 474 q 527 668 591 625 q 380 711 462 711 q 233 668 298 711 q 133 550 169 625 q 96 385 96 474 m 381 23 q 527 65 463 23 q 628 182 591 107 q 665 348 664 258 l 96 348 q 133 183 96 258 q 234 65 169 108 q 381 23 298 23 z "},"Ѵ":{"ha":836,"x_min":24,"x_max":827,"o":"m 366 38 l 386 98 l 624 833 q 697 961 650 920 q 827 1001 743 1001 l 827 969 l 787 967 q 659 831 701 956 l 388 0 l 344 0 l 24 987 l 64 987 l 366 38 z "},"ѵ":{"ha":672,"x_min":29,"x_max":688,"o":"m 303 50 l 341 155 l 501 631 q 554 721 523 696 q 632 747 586 747 q 688 734 665 747 l 680 703 q 629 715 659 715 q 572 692 592 715 q 534 623 551 670 l 321 0 l 286 0 l 286 1 l 29 734 l 68 734 l 303 50 z "},"Ѻ":{"ha":925,"x_min":90,"x_max":835,"o":"m 835 420 q 739 112 835 230 q 481 -13 642 -6 l 481 -98 l 444 -98 l 444 -13 q 187 112 284 -6 q 90 425 90 231 l 90 568 q 186 876 90 758 q 444 1000 283 994 l 444 1084 l 481 1084 l 481 1000 q 738 875 642 994 q 835 563 835 757 l 835 420 m 798 569 q 713 849 798 742 q 481 964 627 957 l 481 876 l 444 876 l 444 964 q 212 849 297 957 q 127 564 127 741 l 127 420 q 213 138 127 245 q 444 24 298 31 l 444 111 l 481 111 l 481 23 q 713 136 627 30 q 798 425 798 243 l 798 569 z "},"ѻ":{"ha":760,"x_min":59,"x_max":701,"o":"m 59 381 q 97 565 59 483 q 204 695 135 648 q 362 747 273 742 l 362 825 l 399 825 l 399 747 q 618 637 536 739 q 701 377 701 536 l 701 353 q 663 168 701 250 q 556 38 625 85 q 399 -13 486 -9 l 399 -99 l 362 -99 l 362 -13 q 142 97 225 -5 q 59 357 59 198 l 59 381 m 399 24 q 590 122 515 30 q 665 359 665 215 l 665 381 q 631 542 665 467 q 536 661 597 617 q 399 710 476 705 l 399 617 l 362 617 l 362 710 q 170 609 245 703 q 96 374 96 516 l 96 353 q 129 190 96 264 q 223 72 163 115 q 362 24 284 28 l 362 109 l 399 109 l 399 24 z "},"Ѽ":{"ha":1237,"x_min":125,"x_max":1113,"o":"m 857 986 q 1043 907 974 986 q 1113 686 1112 827 l 1113 291 q 1044 66 1113 147 q 857 -14 975 -14 q 707 31 768 -14 q 619 160 645 77 q 532 32 594 78 q 382 -14 469 -14 q 196 65 264 -14 q 125 286 127 144 l 125 681 q 194 905 125 825 q 382 986 263 986 l 382 949 q 222 877 283 949 q 162 680 162 804 l 162 291 q 222 95 162 168 q 382 22 283 22 q 541 95 481 22 q 601 288 600 167 l 601 637 l 637 637 l 637 290 q 665 147 637 208 q 743 54 693 86 q 857 22 792 22 q 1016 95 956 22 q 1076 292 1076 168 l 1076 681 q 1016 877 1076 804 q 857 949 956 949 l 857 986 m 939 1097 l 939 1067 l 927 1067 q 760 1130 838 1067 q 628 1194 682 1194 q 536 1159 570 1194 q 503 1057 503 1125 l 465 1057 l 465 1072 q 509 1185 465 1141 q 625 1230 553 1230 q 693 1215 661 1230 q 770 1163 725 1200 q 851 1112 815 1127 q 939 1097 888 1097 m 583 936 q 632 1023 631 967 l 632 1095 l 669 1095 l 669 1025 q 648 959 669 991 q 597 910 628 926 l 583 936 z "},"ѽ":{"ha":1152,"x_min":106,"x_max":1039,"o":"m 796 744 q 973 668 908 744 q 1039 458 1038 591 l 1039 277 q 974 64 1039 142 q 796 -14 909 -14 q 655 29 713 -14 q 572 149 597 72 q 486 26 545 67 q 349 -14 427 -14 q 172 62 237 -14 q 106 272 107 138 l 106 452 q 171 666 106 588 q 349 744 235 744 l 349 707 q 199 639 255 707 q 142 455 143 570 l 142 277 q 198 92 142 161 q 349 22 254 22 q 498 91 442 22 q 554 279 554 159 l 554 450 l 591 450 l 591 270 q 648 89 593 155 q 796 22 703 22 q 946 91 890 22 q 1002 275 1002 159 l 1002 452 q 946 638 1002 569 q 796 707 890 707 l 796 744 m 885 893 l 885 863 l 873 863 q 706 927 784 863 q 574 990 629 990 q 483 956 517 990 q 449 854 449 922 l 412 854 l 412 869 q 456 982 412 938 q 572 1026 500 1026 q 639 1011 607 1026 q 716 960 671 996 q 798 908 762 924 q 885 893 834 893 m 517 724 q 566 810 564 755 l 566 883 l 602 883 l 602 813 q 582 746 602 779 q 531 698 562 714 l 517 724 z "},"Ѿ":{"ha":1245,"x_min":125,"x_max":1113,"o":"m 1113 987 l 1113 286 q 1044 66 1112 146 q 857 -14 976 -14 q 706 33 768 -14 q 619 161 644 79 q 532 33 594 79 q 382 -14 469 -14 q 196 66 264 -14 q 125 286 127 145 l 125 987 l 162 987 l 162 286 q 223 94 163 165 q 382 23 283 23 q 541 95 481 23 q 601 289 600 167 l 601 987 l 637 987 l 637 286 q 698 94 639 165 q 857 23 758 23 q 1016 95 956 23 q 1076 289 1076 167 l 1076 987 l 1113 987 m 383 1156 l 383 1194 l 857 1194 l 859 1156 l 633 1156 l 633 1086 l 597 1086 l 597 1156 l 383 1156 z "},"ѿ":{"ha":1217,"x_min":125,"x_max":1059,"o":"m 1059 734 l 1059 274 q 994 63 1058 141 q 817 -14 930 -14 q 676 28 734 -14 q 592 149 617 71 q 506 26 565 67 q 368 -14 446 -14 q 192 62 256 -14 q 125 272 127 138 l 125 734 l 162 734 l 162 273 q 219 91 163 159 q 368 22 275 22 q 518 91 462 22 q 574 279 574 159 l 574 734 l 610 734 l 610 273 q 667 91 612 159 q 817 22 723 22 q 966 91 910 22 q 1022 279 1022 159 l 1022 734 l 1059 734 m 354 949 l 356 987 l 830 987 l 831 949 l 606 949 l 606 859 l 569 859 l 569 949 l 354 949 z "},"Ҁ":{"ha":856,"x_min":98,"x_max":800,"o":"m 486 -238 l 449 -238 l 449 -14 q 266 48 346 -12 q 142 218 186 108 q 98 469 98 328 l 98 527 q 144 775 98 666 q 274 943 190 884 q 469 1002 359 1002 q 704 920 617 1002 q 800 686 790 839 l 764 686 q 676 894 748 823 q 469 965 604 965 q 227 845 319 965 q 134 523 134 725 l 134 474 q 223 146 134 271 q 458 22 311 22 l 486 22 l 486 -238 z "},"ҁ":{"ha":711,"x_min":83,"x_max":655,"o":"m 421 -238 l 385 -238 l 385 -14 q 166 87 250 -13 q 83 357 83 187 l 83 381 q 120 572 83 488 q 228 701 158 655 q 389 747 298 747 q 581 677 507 747 q 655 488 655 608 l 618 488 q 556 650 618 590 q 389 711 493 711 q 193 621 265 711 q 121 376 121 532 l 121 353 q 191 115 121 204 q 379 22 260 26 l 421 22 l 421 -238 z "},"҂":{"ha":828,"x_min":106,"x_max":761,"o":"m 376 284 l 572 168 l 545 121 l 348 237 l 218 0 l 149 0 l 302 270 l 106 386 l 132 432 l 330 316 l 490 601 l 293 717 l 320 764 l 517 648 l 665 910 l 732 910 l 562 615 l 761 499 l 732 454 l 536 569 l 376 284 z "},"҃":{"ha":0,"x_min":-544,"x_max":-180,"o":"m -505 924 l -505 842 l -544 842 l -544 959 l -218 959 l -218 1032 l -180 1032 l -180 924 l -505 924 z "},"҄":{"ha":0,"x_min":-599,"x_max":-125,"o":"m -286 1056 q -170 1012 -214 1056 q -125 898 -125 968 l -125 884 l -163 884 q -197 986 -163 951 q -288 1020 -231 1020 q -348 1006 -319 1020 q -418 958 -377 991 q -500 909 -460 924 q -599 893 -541 893 l -599 923 q -512 938 -548 923 q -430 990 -475 954 q -353 1041 -385 1026 q -286 1056 -321 1056 z "},"҅":{"ha":0,"x_min":-433,"x_max":-323,"o":"m -433 1017 l -433 1114 l -367 1114 l -367 1019 l -323 934 l -348 915 l -433 1017 z "},"҆":{"ha":0,"x_min":-406,"x_max":-296,"o":"m -381 915 l -406 934 l -362 1019 l -362 1114 l -296 1114 l -296 1017 l -381 915 z "},"҈":{"ha":0,"x_min":-1017,"x_max":304,"o":"m -509 859 q -470 951 -509 916 q -367 987 -431 987 q -263 951 -302 987 q -224 859 -224 916 l -300 859 q -317 909 -300 890 q -367 928 -334 928 q -415 910 -398 928 q -433 859 -433 892 l -509 859 m -109 671 q -69 764 -109 729 q 34 799 -29 799 q 138 764 98 799 q 178 671 178 729 l 101 671 q 83 722 101 705 q 34 740 65 740 q -14 722 3 740 q -31 671 -31 704 l -109 671 m 18 330 q 58 423 18 388 q 161 458 98 458 q 264 422 225 458 q 304 330 304 387 l 228 330 q 210 381 228 363 q 161 399 192 399 q 112 380 130 399 q 95 330 95 361 l 18 330 m -115 -22 q -76 71 -115 36 q 27 106 -36 106 q 131 71 92 106 q 170 -22 170 35 l 94 -22 q 76 29 94 12 q 27 47 58 47 q -21 28 -4 47 q -39 -22 -39 9 l -115 -22 m -506 -214 q -467 -122 -506 -157 q -363 -87 -428 -87 q -260 -122 -299 -87 q -220 -214 -220 -157 l -296 -214 q -314 -164 -296 -183 q -363 -146 -331 -146 q -412 -164 -395 -146 q -429 -214 -429 -183 l -506 -214 m -898 671 q -859 764 -898 728 q -755 799 -819 799 q -651 764 -690 799 q -612 671 -612 728 l -688 671 q -705 721 -688 703 q -755 740 -722 740 q -803 722 -786 740 q -821 671 -821 704 l -898 671 m -1017 330 q -978 423 -1017 388 q -875 458 -938 458 q -771 422 -810 458 q -732 330 -732 387 l -808 330 q -826 381 -808 363 q -875 399 -844 399 q -923 380 -906 399 q -941 330 -941 361 l -1017 330 m -905 -22 q -865 71 -905 36 q -762 106 -825 106 q -658 71 -698 106 q -618 -22 -618 36 l -695 -22 q -713 29 -695 12 q -762 47 -731 47 q -810 29 -793 47 q -827 -22 -827 11 l -905 -22 z "},"҉":{"ha":0,"x_min":-1017,"x_max":241,"o":"m -321 -41 l -313 -50 l -396 -280 l -461 -280 l -414 -41 l -321 -41 m -453 764 l -461 773 l -378 1002 l -313 1002 l -361 764 l -453 764 m 7 428 l 16 436 l 241 352 l 241 286 l 7 334 l 7 428 m -783 294 l -791 286 l -1017 370 l -1017 436 l -783 388 l -783 294 m -156 680 l -155 690 l 63 794 l 109 748 l -90 612 l -156 680 m -620 14 l -621 3 l -838 -101 l -885 -54 l -686 81 l -620 14 m -715 583 l -726 585 l -827 806 l -783 852 l -648 650 l -715 583 m -62 109 l -51 108 l 50 -113 l 5 -161 l -128 42 l -62 109 z "},"Ҋ":{"ha":930,"x_min":136,"x_max":883,"o":"m 810 987 l 847 987 l 847 0 l 810 0 l 810 925 l 172 0 l 136 0 l 136 987 l 172 987 l 172 64 l 810 987 m 687 1227 q 636 1105 687 1152 q 498 1059 585 1059 q 360 1105 412 1059 q 309 1227 309 1152 l 346 1227 q 385 1132 346 1166 q 498 1097 423 1097 q 611 1132 571 1097 q 650 1227 650 1167 l 687 1227 m 811 -189 l 786 -168 q 846 -22 841 -97 l 846 92 l 883 92 l 883 -7 q 811 -189 880 -115 z "},"ҋ":{"ha":733,"x_min":117,"x_max":680,"o":"m 607 734 l 644 734 l 644 0 l 607 0 l 607 669 l 153 0 l 117 0 l 117 734 l 153 734 l 153 65 l 607 734 m 564 996 q 513 873 564 920 q 376 827 462 827 q 238 873 289 827 q 186 996 186 920 l 223 996 q 262 900 223 934 q 376 865 300 865 q 488 900 448 865 q 528 996 528 935 l 564 996 m 608 -189 l 583 -168 q 642 -22 637 -97 l 643 92 l 680 92 l 680 -7 q 608 -189 677 -115 z "},"ҍ":{"ha":732,"x_min":-16,"x_max":656,"o":"m 382 951 l 159 951 l 159 454 l 400 454 q 587 391 517 452 q 656 227 656 330 q 587 64 656 125 q 400 0 519 2 l 123 0 l 123 951 l -16 951 l -16 987 l 123 987 l 123 1100 l 159 1100 l 159 987 l 382 987 l 382 951 m 159 418 l 159 37 l 393 37 q 559 89 499 37 q 619 229 619 140 q 561 365 619 313 q 399 418 502 416 l 159 418 z "},"Ҏ":{"ha":869,"x_min":131,"x_max":758,"o":"m 168 417 l 168 0 l 131 0 l 131 987 l 439 987 q 674 911 591 987 q 758 699 758 835 q 648 469 758 543 l 736 367 l 708 343 l 615 452 q 439 417 543 417 l 168 417 m 623 499 q 722 698 722 564 q 647 884 722 817 q 439 951 573 951 l 168 951 l 168 454 l 439 454 q 589 481 527 454 l 504 583 l 532 606 l 623 499 z "},"ҏ":{"ha":781,"x_min":115,"x_max":677,"o":"m 677 360 q 652 184 677 261 q 579 58 627 107 l 652 -43 l 623 -65 l 551 34 q 402 -14 488 -14 q 254 20 319 -14 q 152 114 189 54 l 152 -282 l 115 -282 l 115 734 l 152 734 l 152 603 q 254 710 190 673 q 401 747 319 747 q 604 649 530 747 q 677 372 677 550 l 677 360 m 640 374 q 577 622 640 532 q 401 711 515 711 q 245 663 309 711 q 152 526 180 615 l 152 182 q 245 65 180 106 q 403 23 310 23 q 530 63 477 23 l 453 170 l 484 191 l 557 88 q 640 364 640 176 l 640 374 z "},"Ґ":{"ha":761,"x_min":131,"x_max":715,"o":"m 715 950 l 679 950 l 679 951 l 168 951 l 168 0 l 131 0 l 131 987 l 679 987 l 679 1240 l 715 1240 l 715 950 z "},"ґ":{"ha":597,"x_min":117,"x_max":559,"o":"m 559 696 l 153 696 l 153 0 l 117 0 l 117 734 l 522 734 l 522 986 l 559 986 l 559 696 z "},"Ҕ":{"ha":760,"x_min":131,"x_max":715,"o":"m 715 951 l 168 951 l 168 558 l 326 558 q 612 460 516 558 q 709 175 709 362 q 668 -11 709 77 q 561 -144 627 -99 q 410 -189 495 -189 l 410 -154 q 546 -111 487 -154 q 638 10 605 -68 q 672 175 672 87 q 583 432 672 342 q 324 522 493 522 l 168 522 l 168 0 l 131 0 l 131 987 l 715 987 l 715 951 z "},"ҕ":{"ha":684,"x_min":117,"x_max":623,"o":"m 557 696 l 153 696 l 153 411 l 267 411 q 533 334 443 411 q 623 109 623 257 l 622 89 q 548 -83 614 -14 q 376 -173 482 -153 l 365 -144 q 523 -60 465 -125 q 586 109 582 5 q 507 306 589 237 q 265 375 425 375 l 153 375 l 153 0 l 117 0 l 117 734 l 557 734 l 557 696 z "},"Җ":{"ha":1216,"x_min":13,"x_max":1172,"o":"m 723 488 l 607 488 l 607 0 l 570 0 l 570 488 l 453 488 l 62 0 l 13 0 l 414 500 l 37 987 l 85 987 l 444 525 l 570 525 l 570 987 l 607 987 l 607 525 l 733 525 l 1092 987 l 1139 987 l 762 500 l 1164 0 l 1115 0 l 723 488 m 1172 -239 l 1135 -239 l 1135 64 l 1172 64 l 1172 -239 z "},"җ":{"ha":1047,"x_min":18,"x_max":1039,"o":"m 652 358 l 546 358 l 546 0 l 509 0 l 509 358 l 404 358 l 66 0 l 18 0 l 365 374 l 61 734 l 106 734 l 398 395 l 509 395 l 509 734 l 546 734 l 546 395 l 659 395 l 950 734 l 997 734 l 691 374 l 1039 0 l 991 0 l 652 358 m 1038 -239 l 1001 -239 l 1001 64 l 1038 64 l 1038 -239 z "},"Қ":{"ha":884,"x_min":136,"x_max":837,"o":"m 323 482 l 172 482 l 172 0 l 136 0 l 136 987 l 172 987 l 172 518 l 334 518 l 753 987 l 801 987 l 364 495 l 832 0 l 784 0 l 323 482 m 837 -262 l 800 -262 l 800 41 l 837 41 l 837 -262 z "},"қ":{"ha":734,"x_min":116,"x_max":681,"o":"m 288 359 l 153 359 l 153 0 l 116 0 l 116 734 l 153 734 l 153 395 l 294 395 l 585 734 l 638 734 l 326 374 l 681 0 l 626 0 l 288 359 m 679 -239 l 642 -239 l 642 64 l 679 64 l 679 -239 z "},"Ҝ":{"ha":829,"x_min":133,"x_max":809,"o":"m 758 987 l 439 501 l 809 0 l 761 0 l 401 489 l 332 489 l 332 269 l 295 269 l 295 489 l 170 489 l 170 0 l 133 0 l 133 987 l 170 987 l 170 525 l 295 525 l 295 733 l 332 733 l 332 525 l 412 525 l 709 987 l 758 987 z "},"ҝ":{"ha":721,"x_min":116,"x_max":694,"o":"m 651 734 l 412 374 l 694 0 l 639 0 l 376 359 l 307 359 l 307 170 l 270 170 l 270 359 l 153 359 l 153 0 l 116 0 l 116 734 l 153 734 l 153 395 l 270 395 l 270 576 l 307 576 l 307 395 l 382 395 l 598 734 l 651 734 z "},"Ҡ":{"ha":1107,"x_min":64,"x_max":1100,"o":"m 591 482 l 440 482 l 440 0 l 404 0 l 404 951 l 64 951 l 64 987 l 440 987 l 440 518 l 602 518 l 1021 987 l 1069 987 l 632 495 l 1100 0 l 1052 0 l 591 482 z "},"ҡ":{"ha":876,"x_min":27,"x_max":856,"o":"m 463 359 l 328 359 l 328 0 l 291 0 l 291 697 l 27 697 l 27 734 l 328 734 l 328 395 l 469 395 l 760 734 l 813 734 l 501 374 l 856 0 l 801 0 l 463 359 z "},"Ң":{"ha":924,"x_min":136,"x_max":876,"o":"m 840 0 l 803 0 l 803 490 l 172 490 l 172 0 l 136 0 l 136 987 l 172 987 l 172 526 l 803 526 l 803 987 l 840 987 l 840 0 m 876 -239 l 840 -239 l 840 64 l 876 64 l 876 -239 z "},"ң":{"ha":733,"x_min":117,"x_max":680,"o":"m 644 0 l 607 0 l 607 359 l 153 359 l 153 0 l 117 0 l 117 734 l 153 734 l 153 395 l 607 395 l 607 734 l 644 734 l 644 0 m 680 -239 l 643 -239 l 643 64 l 680 64 l 680 -239 z "},"Ҥ":{"ha":1443,"x_min":132,"x_max":1385,"o":"m 169 526 l 800 526 l 800 987 l 1385 987 l 1385 951 l 836 951 l 836 0 l 800 0 l 800 490 l 169 490 l 169 0 l 132 0 l 132 987 l 169 987 l 169 526 z "},"ҥ":{"ha":1021,"x_min":117,"x_max":973,"o":"m 153 395 l 607 395 l 607 734 l 973 734 l 973 696 l 644 696 l 644 0 l 607 0 l 607 359 l 153 359 l 153 0 l 117 0 l 117 734 l 153 734 l 153 395 z "},"Ҧ":{"ha":1410,"x_min":121,"x_max":1350,"o":"m 825 568 l 967 568 q 1254 470 1158 568 q 1350 185 1350 372 q 1310 -1 1350 87 q 1203 -134 1269 -89 q 1052 -178 1137 -178 l 1052 -144 q 1187 -101 1128 -144 q 1280 20 1246 -58 q 1314 185 1314 98 q 1224 443 1314 353 q 966 532 1135 532 l 825 532 l 825 0 l 789 0 l 789 951 l 158 951 l 158 0 l 121 0 l 121 987 l 825 987 l 825 568 z "},"ҧ":{"ha":1159,"x_min":117,"x_max":1107,"o":"m 644 411 l 751 411 q 1018 334 928 411 q 1107 109 1107 257 l 1107 89 q 1033 -83 1099 -14 q 861 -173 967 -153 l 850 -144 q 1008 -60 949 -125 q 1071 109 1067 5 q 992 306 1074 237 q 750 375 909 375 l 644 375 l 644 0 l 607 0 l 607 696 l 153 696 l 153 0 l 117 0 l 117 734 l 644 734 l 644 411 z "},"Ҩ":{"ha":1035,"x_min":90,"x_max":966,"o":"m 966 -15 q 721 31 833 -15 q 507 -14 625 -14 q 203 117 317 -14 q 90 467 90 248 l 90 623 q 129 816 90 730 q 238 952 168 903 q 398 1002 309 1002 l 401 965 q 205 867 283 965 q 127 616 127 768 l 127 459 q 176 233 127 334 q 310 77 224 132 q 507 22 397 22 q 675 52 600 22 q 499 215 562 111 q 435 447 435 319 l 435 637 q 507 894 435 796 q 693 992 578 992 q 883 893 810 992 q 957 632 957 794 l 957 444 q 905 210 957 310 q 760 52 854 110 q 966 21 850 21 l 966 -15 m 473 444 q 536 219 473 318 q 715 70 600 121 q 865 217 811 121 q 920 439 919 313 l 920 637 q 859 867 920 779 q 693 956 797 956 q 532 867 592 956 q 473 631 473 778 l 473 444 z "},"ҩ":{"ha":812,"x_min":86,"x_max":763,"o":"m 763 -8 q 571 28 659 -8 q 406 -14 498 -14 q 176 92 266 -14 q 86 367 86 199 l 86 425 q 149 656 86 564 q 311 747 212 747 l 311 711 q 180 629 235 711 q 123 434 125 548 l 123 361 q 201 116 123 210 q 406 22 279 22 q 531 47 475 22 q 397 179 445 96 q 350 371 350 262 l 350 444 q 405 663 350 580 q 545 747 459 747 q 687 657 631 747 q 742 425 742 567 l 742 361 q 707 183 742 263 q 608 53 671 104 q 763 28 681 28 l 763 -8 m 387 370 q 434 188 387 265 q 569 68 482 110 q 669 188 633 111 q 705 362 705 264 l 705 432 q 660 630 705 551 q 545 710 614 710 q 430 638 473 710 q 387 441 387 566 l 387 370 z "},"Ҳ":{"ha":840,"x_min":37,"x_max":796,"o":"m 414 532 l 733 987 l 779 987 l 437 504 l 792 0 l 747 0 l 414 475 l 81 0 l 37 0 l 391 504 l 50 987 l 96 987 l 414 532 m 796 -239 l 760 -239 l 760 64 l 796 64 l 796 -239 z "},"ҳ":{"ha":648,"x_min":37,"x_max":640,"o":"m 332 408 l 566 734 l 612 734 l 354 376 l 625 0 l 580 0 l 331 345 l 83 0 l 37 0 l 309 376 l 51 734 l 97 734 l 332 408 m 640 -239 l 604 -239 l 604 64 l 640 64 l 640 -239 z "},"Ҵ":{"ha":1166,"x_min":12,"x_max":1093,"o":"m 298 950 l 12 950 l 12 987 l 298 987 l 298 987 l 335 987 l 335 987 l 652 987 l 652 950 l 335 950 l 335 37 l 966 37 l 966 987 l 1002 987 l 1002 37 l 1093 37 l 1093 -238 l 1056 -238 l 1056 0 l 298 0 l 298 950 z "},"ҵ":{"ha":885,"x_min":18,"x_max":829,"o":"m 239 697 l 18 697 l 18 734 l 498 734 l 498 697 l 276 697 l 276 37 l 730 37 l 730 734 l 767 734 l 767 37 l 829 37 l 829 -218 l 792 -218 l 792 0 l 239 0 l 239 697 z "},"Ҷ":{"ha":850,"x_min":132,"x_max":802,"o":"m 766 987 l 766 0 l 730 0 l 730 488 q 457 446 580 446 q 211 519 290 446 q 132 746 133 592 l 132 987 l 169 987 l 169 741 q 241 546 171 610 q 457 483 311 483 q 730 524 588 483 l 730 987 l 766 987 m 802 -239 l 766 -239 l 766 64 l 802 64 l 802 -239 z "},"ҷ":{"ha":696,"x_min":79,"x_max":643,"o":"m 607 0 l 570 0 l 570 354 q 460 315 522 330 q 357 300 399 300 q 190 326 247 300 q 106 411 133 352 q 79 574 79 471 l 79 734 l 116 734 l 116 574 q 139 432 116 484 q 212 359 162 381 q 357 336 262 336 q 473 354 411 339 q 570 389 535 370 l 570 734 l 607 734 l 607 0 m 643 -239 l 606 -239 l 606 64 l 643 64 l 643 -239 z "},"Ҹ":{"ha":899,"x_min":132,"x_max":766,"o":"m 169 987 l 169 746 q 237 550 170 615 q 444 483 304 486 l 444 734 l 481 734 l 481 483 q 730 524 606 487 l 730 987 l 766 987 l 766 0 l 730 0 l 730 488 q 481 446 588 450 l 481 272 l 444 272 l 444 446 q 210 521 285 449 q 132 738 135 593 l 132 987 l 169 987 z "},"ҹ":{"ha":761,"x_min":117,"x_max":644,"o":"m 644 0 l 608 0 l 608 354 q 435 302 522 313 l 435 165 l 397 165 l 397 300 q 227 326 284 300 q 143 411 170 352 q 117 574 117 471 l 117 734 l 153 734 l 153 574 q 176 432 153 484 q 249 359 199 381 q 397 336 299 336 l 397 542 l 435 542 l 435 340 q 608 389 539 354 l 608 734 l 644 734 l 644 0 z "},"Һ":{"ha":899,"x_min":132,"x_max":766,"o":"m 132 0 l 132 987 l 169 987 l 169 500 q 441 541 319 541 q 687 468 609 541 q 766 244 765 395 l 766 0 l 730 0 l 730 247 q 657 441 728 378 q 441 505 587 505 q 169 464 311 505 l 169 0 l 132 0 z "},"Ҽ":{"ha":1023,"x_min":7,"x_max":935,"o":"m 601 -14 q 314 92 419 -14 q 210 383 210 198 l 210 517 q 60 578 113 525 q 7 728 7 631 l 44 728 q 86 606 44 650 q 210 555 127 562 l 210 591 q 256 801 210 707 q 385 948 302 895 q 570 1000 468 1000 q 833 892 734 1000 q 935 599 932 784 l 935 517 l 246 517 l 246 379 q 339 118 246 213 q 601 23 432 23 q 897 125 781 23 l 917 96 q 775 12 853 38 q 601 -14 698 -14 m 246 555 l 899 555 l 899 589 q 858 783 899 697 q 743 916 818 869 q 570 963 668 963 q 336 858 425 963 q 246 585 246 753 l 246 555 z "},"ҽ":{"ha":816,"x_min":9,"x_max":741,"o":"m 475 -14 q 312 34 387 -14 q 196 165 238 82 q 154 351 154 249 l 154 397 q 47 454 85 409 q 9 578 9 500 l 47 578 q 157 434 47 454 q 258 660 173 572 q 462 747 344 747 q 663 660 585 747 q 741 430 741 572 l 741 391 l 191 391 l 191 351 q 228 185 191 262 q 332 66 266 109 q 475 22 398 22 q 601 47 549 22 q 693 123 653 72 l 719 105 q 475 -14 637 -14 m 201 428 l 704 428 l 704 437 q 672 575 704 511 q 586 675 641 640 q 462 711 530 711 q 282 633 357 711 q 193 431 208 555 l 201 431 l 201 428 z "},"Ӄ":{"ha":829,"x_min":133,"x_max":790,"o":"m 367 525 l 407 525 q 694 427 597 525 q 790 142 790 329 q 749 -44 790 44 q 643 -177 709 -132 q 492 -222 576 -222 l 492 -187 q 627 -144 568 -187 q 720 -23 686 -101 q 753 142 753 54 q 664 399 753 309 q 406 489 574 489 l 170 489 l 170 0 l 133 0 l 133 987 l 170 987 l 170 525 l 317 525 l 709 987 l 758 987 l 367 525 z "},"ӄ":{"ha":709,"x_min":116,"x_max":650,"o":"m 326 395 q 566 311 484 388 q 648 92 648 234 q 618 -35 650 28 q 531 -137 587 -98 q 401 -190 476 -176 l 390 -161 q 549 -76 490 -142 q 612 92 608 -10 q 532 290 615 221 q 293 359 448 359 l 292 359 l 153 359 l 153 0 l 116 0 l 116 734 l 153 734 l 153 396 l 275 396 l 585 734 l 638 734 l 326 395 z "},"Ӆ":{"ha":920,"x_min":23,"x_max":872,"o":"m 836 987 l 836 0 l 800 0 l 800 951 l 319 951 l 289 498 q 247 180 273 276 q 176 43 221 85 q 53 0 131 2 l 23 0 l 23 37 l 56 37 q 160 80 123 39 q 218 218 196 121 q 253 507 239 315 l 285 987 l 836 987 m 800 -189 l 775 -168 q 835 -22 830 -97 l 836 92 l 872 92 l 872 -7 q 800 -189 869 -115 z "},"ӆ":{"ha":733,"x_min":30,"x_max":680,"o":"m 644 734 l 644 0 l 607 0 l 607 696 l 256 696 l 241 353 q 189 79 231 157 q 56 0 147 1 l 30 0 l 30 36 l 60 36 q 162 109 130 39 q 204 342 194 178 l 220 734 l 644 734 m 608 -189 l 583 -168 q 642 -22 637 -97 l 643 92 l 680 92 l 680 -7 q 608 -189 677 -115 z "},"Ӈ":{"ha":968,"x_min":132,"x_max":836,"o":"m 169 987 l 169 508 l 800 508 l 800 987 l 836 987 l 836 -60 q 785 -236 836 -176 q 644 -296 734 -296 q 567 -283 606 -296 l 576 -248 q 644 -260 607 -260 q 759 -208 718 -260 q 800 -60 800 -157 l 800 471 l 169 471 l 169 0 l 132 0 l 132 987 l 169 987 z "},"ӈ":{"ha":760,"x_min":117,"x_max":644,"o":"m 153 734 l 153 395 l 607 395 l 607 734 l 644 734 l 644 -60 q 593 -236 644 -176 q 450 -296 542 -296 q 374 -283 414 -296 l 383 -248 q 450 -260 414 -260 q 567 -208 526 -260 q 607 -60 607 -157 l 607 359 l 153 359 l 153 0 l 117 0 l 117 734 l 153 734 z "},"Ӊ":{"ha":923,"x_min":136,"x_max":876,"o":"m 840 0 l 803 0 l 803 490 l 172 490 l 172 0 l 136 0 l 136 987 l 172 987 l 172 526 l 803 526 l 803 987 l 840 987 l 840 0 m 804 -189 l 779 -168 q 838 -22 833 -97 l 839 92 l 876 92 l 876 -7 q 804 -189 873 -115 z "},"ӊ":{"ha":732,"x_min":117,"x_max":679,"o":"m 644 0 l 607 0 l 607 359 l 153 359 l 153 0 l 117 0 l 117 734 l 153 734 l 153 395 l 607 395 l 607 734 l 644 734 l 644 0 m 607 -189 l 582 -168 q 642 -22 637 -97 l 642 92 l 679 92 l 679 -7 q 607 -189 676 -115 z "},"Ӎ":{"ha":1139,"x_min":136,"x_max":1091,"o":"m 188 987 l 594 54 l 1002 987 l 1055 987 l 1055 0 l 1019 0 l 1019 933 l 609 0 l 580 0 l 172 928 l 172 0 l 136 0 l 136 987 l 188 987 m 1019 -189 l 994 -168 q 1054 -22 1049 -97 l 1055 92 l 1091 92 l 1091 -7 q 1019 -189 1088 -115 z "},"ӎ":{"ha":975,"x_min":123,"x_max":921,"o":"m 507 56 l 840 734 l 884 734 l 884 0 l 847 0 l 847 663 l 521 0 l 492 0 l 159 680 l 159 0 l 123 0 l 123 734 l 173 734 l 507 56 m 849 -189 l 824 -168 q 884 -22 879 -97 l 884 92 l 921 92 l 921 -7 q 849 -189 918 -115 z "},"Ә":{"ha":985,"x_min":106,"x_max":900,"o":"m 494 1001 q 790 885 681 1001 q 900 559 900 768 l 900 450 q 850 211 900 317 q 711 45 800 104 q 511 -14 622 -14 q 216 99 326 -14 q 106 402 106 211 l 106 482 l 863 482 l 863 566 q 766 859 863 753 q 494 964 669 964 q 317 935 394 964 q 185 860 240 906 l 165 889 l 208 922 q 494 1001 319 1001 m 511 23 q 693 76 614 23 q 818 227 772 129 q 863 445 863 325 l 142 445 l 142 396 q 187 203 142 289 q 316 71 232 118 q 511 23 400 23 z "},"Ӡ":{"ha":791,"x_min":83,"x_max":688,"o":"m 686 987 l 688 941 l 362 561 l 393 561 q 612 482 541 559 q 683 262 683 405 q 602 60 683 135 q 389 -14 520 -14 q 232 22 303 -14 q 122 122 161 58 q 83 274 83 186 l 121 274 q 194 93 121 164 q 389 22 268 22 q 578 85 510 22 q 646 259 646 148 q 583 462 646 395 q 386 528 519 528 l 317 528 l 317 566 l 647 951 l 97 951 l 97 987 l 686 987 z "},"ӡ":{"ha":791,"x_min":83,"x_max":688,"o":"m 648 696 l 97 696 l 97 734 l 686 734 l 688 688 l 361 307 q 601 228 519 307 q 683 7 683 150 q 602 -193 683 -118 q 389 -268 521 -268 q 232 -232 303 -268 q 122 -132 161 -196 q 83 20 83 -67 l 121 20 q 194 -160 121 -90 q 389 -231 268 -231 q 578 -169 510 -231 q 646 5 646 -106 q 575 205 646 136 q 363 274 505 274 l 317 274 l 317 312 l 648 696 z "},"Ӻ":{"ha":761,"x_min":-75,"x_max":715,"o":"m 715 951 l 168 951 l 168 0 l 131 0 l 131 987 l 715 987 l 715 951 m 393 538 l -5 538 l -5 574 l 393 574 l 393 538 m 195 80 l 195 -64 q 143 -237 194 -177 q 1 -296 92 -296 q -75 -283 -35 -296 l -66 -248 q 1 -260 -31 -260 q 118 -209 77 -260 q 158 -60 158 -157 l 158 80 l 195 80 z "},"ӻ":{"ha":588,"x_min":-80,"x_max":557,"o":"m 557 696 l 153 696 l 153 0 l 117 0 l 117 734 l 557 734 l 557 696 m 399 399 l 1 399 l 1 436 l 399 436 l 399 399 m 189 80 l 189 -64 q 138 -237 189 -177 q -4 -296 87 -296 q -80 -283 -41 -296 l -71 -248 q -4 -260 -37 -260 q 112 -209 72 -260 q 153 -60 153 -157 l 153 80 l 189 80 z "},"Ӽ":{"ha":840,"x_min":37,"x_max":796,"o":"m 414 532 l 733 987 l 779 987 l 437 504 l 792 0 l 747 0 l 414 475 l 81 0 l 37 0 l 391 504 l 50 987 l 96 987 l 414 532 m 796 80 l 796 -64 q 745 -237 795 -177 q 603 -296 694 -296 q 527 -283 566 -296 l 536 -248 q 603 -260 570 -260 q 719 -209 679 -260 q 760 -60 760 -157 l 760 80 l 796 80 z "},"ӽ":{"ha":648,"x_min":37,"x_max":640,"o":"m 332 408 l 566 734 l 612 734 l 354 376 l 625 0 l 580 0 l 331 345 l 83 0 l 37 0 l 309 376 l 51 734 l 97 734 l 332 408 m 640 80 l 640 -64 q 589 -237 640 -177 q 447 -296 538 -296 q 371 -283 410 -296 l 380 -248 q 447 -260 414 -260 q 563 -209 523 -260 q 604 -60 604 -157 l 604 80 l 640 80 z "},"Ԁ":{"ha":730,"x_min":43,"x_max":650,"o":"m 613 548 l 613 987 l 650 987 l 650 0 l 362 0 q 128 74 213 0 q 43 274 43 149 q 127 473 43 400 q 357 548 212 547 l 613 548 m 613 37 l 613 511 l 362 511 q 156 447 231 511 q 80 275 80 382 q 152 104 80 169 q 351 37 224 39 l 613 37 z "},"Ԃ":{"ha":1027,"x_min":43,"x_max":989,"o":"m 362 0 q 128 74 213 0 q 43 274 43 149 q 127 473 43 400 q 357 548 212 547 l 613 548 l 613 987 l 650 987 l 650 35 l 757 35 q 900 96 850 37 q 951 259 949 156 q 910 505 954 376 l 944 505 q 976 384 962 446 q 988 259 989 321 q 922 70 985 140 q 751 0 859 0 l 362 0 m 613 37 l 613 511 l 362 511 q 156 447 231 511 q 80 275 80 382 q 152 104 80 169 q 351 37 224 39 l 613 37 z "},"ԃ":{"ha":1190,"x_min":83,"x_max":1072,"o":"m 83 368 q 157 646 83 545 q 359 747 231 747 q 505 710 442 747 q 606 602 568 673 l 606 1058 l 644 1058 l 644 239 q 798 22 644 22 q 969 112 907 24 q 1034 359 1031 199 q 1021 495 1035 427 q 987 631 1007 564 l 1025 632 q 1058 497 1043 566 q 1071 359 1072 429 q 995 83 1068 180 q 798 -14 922 -14 q 618 136 654 -17 q 515 25 584 65 q 358 -14 447 -14 q 163 76 237 -14 q 83 323 90 165 l 83 368 m 606 524 q 515 663 578 616 q 359 711 452 711 q 184 619 247 711 q 121 353 121 528 q 182 110 121 198 q 357 22 243 22 q 516 66 452 22 q 609 192 581 110 l 606 223 l 606 524 z "},"Ԅ":{"ha":1093,"x_min":33,"x_max":995,"o":"m 172 485 l 172 522 l 302 522 q 574 750 574 522 q 499 900 574 850 q 281 951 425 950 l 33 951 l 33 987 l 287 987 q 528 925 445 985 q 610 749 610 865 q 553 581 610 650 q 401 496 496 512 q 551 279 546 459 l 551 209 q 593 73 551 123 q 705 22 635 22 q 832 66 777 24 q 922 189 888 109 q 956 359 955 268 q 943 495 958 427 q 908 632 928 564 l 947 632 l 962 572 q 993 359 995 446 q 954 168 991 253 q 852 34 918 82 q 705 -14 787 -14 q 567 38 615 -17 q 514 206 518 93 l 514 260 q 297 485 514 485 l 172 485 z "},"ԅ":{"ha":890,"x_min":30,"x_max":836,"o":"m 462 144 q 493 50 462 77 q 589 22 524 22 q 740 91 686 24 q 798 284 795 157 q 745 500 800 395 l 789 500 q 821 392 807 446 q 834 284 836 338 q 765 66 831 146 q 589 -14 698 -14 q 468 22 508 -17 q 425 145 428 60 l 425 203 q 378 308 425 271 q 241 347 331 345 l 89 347 l 87 382 l 239 382 q 384 424 328 382 q 439 532 439 465 q 376 652 439 604 q 209 700 314 700 l 34 700 l 30 734 l 220 734 q 408 678 340 732 q 476 532 476 625 q 443 430 476 475 q 345 362 409 384 q 462 214 458 330 l 462 144 z "},"Ԇ":{"ha":737,"x_min":77,"x_max":649,"o":"m 154 463 l 154 500 l 274 500 q 484 560 408 501 q 560 722 560 619 q 489 891 560 833 q 273 950 418 950 l 77 950 l 77 987 l 279 987 q 514 919 431 985 q 597 722 597 852 q 543 570 597 637 q 399 482 488 503 q 597 262 591 450 l 597 153 q 612 66 597 100 l 649 66 l 649 -24 q 577 -215 649 -138 l 552 -193 q 612 -47 607 -123 l 612 -1 l 610 -1 q 560 159 561 58 l 560 249 q 491 407 560 351 q 295 463 422 463 l 154 463 z "},"ԇ":{"ha":692,"x_min":71,"x_max":590,"o":"m 138 335 l 137 372 l 305 372 q 468 412 416 373 q 520 533 520 451 q 466 656 520 617 q 300 696 412 696 l 71 696 l 73 734 l 296 734 q 490 683 423 734 q 557 532 557 632 q 523 417 557 463 q 423 352 488 371 q 555 187 553 321 l 555 86 l 590 86 l 590 -3 q 518 -195 590 -118 l 493 -173 q 538 -95 524 -134 q 553 0 553 -57 l 529 0 q 518 84 519 24 l 518 182 q 468 295 518 254 q 321 335 417 335 l 138 335 z "},"Ԉ":{"ha":1339,"x_min":43,"x_max":1246,"o":"m 782 951 l 339 951 l 309 498 q 267 180 293 276 q 196 43 241 85 q 73 0 151 2 l 43 0 l 43 37 l 76 37 q 180 80 144 39 q 238 218 216 121 q 273 507 260 315 l 305 987 l 819 987 l 819 234 q 860 73 819 125 q 972 22 901 22 q 1144 112 1082 24 q 1208 359 1206 199 q 1162 631 1210 469 l 1200 632 q 1237 469 1228 528 q 1246 359 1246 410 q 1171 84 1243 182 q 972 -14 1099 -14 q 830 48 879 -14 q 782 233 782 111 l 782 951 z "},"ԉ":{"ha":1114,"x_min":26,"x_max":1024,"o":"m 587 696 l 252 696 l 238 353 q 185 79 227 157 q 52 0 144 1 l 26 0 l 26 36 l 57 36 q 158 109 126 39 q 201 342 191 178 l 217 734 l 623 734 l 623 234 q 661 73 623 125 q 764 22 699 22 q 925 96 867 24 q 986 301 983 168 q 974 430 987 366 q 940 559 960 495 l 977 560 q 1016 397 1008 448 q 1023 301 1024 347 q 952 69 1021 152 q 764 -14 884 -14 q 632 47 677 -14 q 587 229 587 109 l 587 696 z "},"Ԋ":{"ha":1320,"x_min":142,"x_max":1191,"o":"m 762 987 l 762 230 q 802 76 762 130 q 916 22 841 22 q 1088 112 1026 24 q 1152 359 1149 199 q 1105 631 1154 467 l 1143 632 l 1159 572 q 1189 359 1191 448 q 1113 83 1186 180 q 916 -14 1040 -14 q 777 45 825 -17 q 725 234 729 108 l 725 470 l 179 470 l 179 0 l 142 0 l 142 987 l 179 987 l 179 507 l 725 507 l 725 987 l 762 987 z "},"ԋ":{"ha":1144,"x_min":106,"x_max":1024,"o":"m 587 352 l 143 352 l 143 0 l 106 0 l 106 734 l 143 734 l 143 388 l 587 388 l 587 734 l 623 734 l 623 239 q 764 22 623 22 q 925 96 867 24 q 986 301 983 169 q 973 430 987 366 q 939 559 959 495 l 977 560 q 1016 397 1008 448 q 1023 301 1024 347 q 951 67 1021 149 q 764 -14 882 -14 q 635 45 680 -17 q 587 234 591 107 l 587 352 z "},"Ԍ":{"ha":854,"x_min":104,"x_max":785,"o":"m 469 -14 q 282 39 366 -14 q 152 187 199 92 q 104 401 105 283 l 104 583 q 151 798 104 702 q 281 948 197 895 q 469 1002 365 1002 q 684 958 602 1002 l 670 919 q 469 965 579 965 q 233 859 324 965 q 141 577 141 752 l 141 405 q 181 209 141 296 q 297 72 222 121 q 469 22 372 22 q 672 94 600 24 q 747 288 745 163 q 713 533 749 387 l 753 533 q 776 410 766 470 q 784 288 785 349 q 742 127 783 196 q 630 22 702 59 q 469 -14 559 -14 z "},"ԍ":{"ha":707,"x_min":91,"x_max":652,"o":"m 399 22 q 558 70 503 24 q 615 204 614 117 q 596 364 615 292 l 633 364 q 652 204 652 262 q 583 43 649 100 q 399 -14 516 -14 q 176 90 260 -14 q 91 360 91 194 l 91 381 q 127 568 91 484 q 231 700 163 652 q 385 747 298 747 q 562 707 510 747 l 545 674 q 385 711 483 711 q 198 619 268 711 q 127 372 127 528 l 127 353 q 161 185 127 262 q 257 66 195 109 q 399 22 319 22 z "},"Ԏ":{"ha":979,"x_min":21,"x_max":861,"o":"m 395 951 l 21 951 l 21 987 l 802 987 l 802 951 l 433 951 l 433 234 q 471 78 431 133 q 587 22 510 22 q 758 112 696 24 q 823 359 820 199 q 776 631 824 467 l 814 632 q 846 497 831 566 q 859 359 861 429 q 784 84 857 182 q 587 -14 712 -14 q 447 46 496 -17 q 395 234 399 109 l 395 951 z "},"ԏ":{"ha":883,"x_min":44,"x_max":778,"o":"m 326 698 l 44 698 l 44 734 l 659 734 l 659 698 l 363 698 l 363 234 q 404 75 363 128 q 518 22 444 22 q 679 96 621 24 q 741 303 738 168 q 694 563 742 404 l 732 564 q 770 404 762 454 q 777 303 778 353 q 706 69 774 153 q 518 -14 637 -14 q 379 46 427 -17 q 326 234 330 109 l 326 698 z "},"Ԑ":{"ha":899,"x_min":94,"x_max":831,"o":"m 94 262 q 322 505 94 460 q 166 592 223 531 q 109 734 109 652 q 205 932 109 863 q 471 1002 302 1002 q 647 967 566 1002 q 773 870 728 932 q 818 729 818 808 l 781 729 q 694 900 781 834 q 471 965 607 965 q 229 905 313 965 q 145 737 145 845 q 225 578 145 632 q 461 523 306 525 l 598 523 l 598 485 l 465 485 q 211 428 292 484 q 130 259 130 372 q 220 85 130 147 q 471 23 310 23 q 705 93 615 23 q 795 274 795 163 l 831 274 q 789 127 831 192 q 661 25 747 63 q 471 -14 576 -14 q 196 61 299 -14 q 94 262 94 135 z "},"Ԓ":{"ha":920,"x_min":23,"x_max":873,"o":"m 836 987 l 836 0 l 800 0 l 800 951 l 319 951 l 289 498 q 247 180 273 276 q 176 43 221 85 q 53 0 131 2 l 23 0 l 23 37 l 56 37 q 160 80 123 39 q 218 218 196 121 q 253 507 239 315 l 285 987 l 836 987 m 873 80 l 873 -64 q 821 -237 872 -177 q 680 -296 770 -296 q 604 -283 643 -296 l 612 -248 q 680 -260 647 -260 q 796 -209 755 -260 q 836 -60 836 -157 l 836 80 l 873 80 z "},"ԓ":{"ha":734,"x_min":30,"x_max":680,"o":"m 644 734 l 644 0 l 607 0 l 607 696 l 256 696 l 241 353 q 189 79 231 157 q 56 0 147 1 l 30 0 l 30 36 l 60 36 q 162 109 130 39 q 204 342 194 178 l 220 734 l 644 734 m 680 80 l 680 -64 q 629 -237 680 -177 q 487 -296 578 -296 q 411 -283 450 -296 l 420 -248 q 487 -260 454 -260 q 603 -209 563 -260 q 644 -60 644 -157 l 644 80 l 680 80 z "}," ":{"ha":708,"x_min":0,"x_max":0,"o":""}," ":{"ha":1417,"x_min":0,"x_max":0,"o":""}," ":{"ha":708,"x_min":0,"x_max":0,"o":""}," ":{"ha":1417,"x_min":0,"x_max":0,"o":""}," ":{"ha":473,"x_min":0,"x_max":0,"o":""}," ":{"ha":354,"x_min":0,"x_max":0,"o":""}," ":{"ha":236,"x_min":0,"x_max":0,"o":""}," ":{"ha":781,"x_min":0,"x_max":0,"o":""}," ":{"ha":380,"x_min":0,"x_max":0,"o":""}," ":{"ha":283,"x_min":0,"x_max":0,"o":""}," ":{"ha":142,"x_min":0,"x_max":0,"o":""},"​":{"ha":0,"x_min":0,"x_max":0,"o":""},"‐":{"ha":401,"x_min":41,"x_max":360,"o":"m 360 433 l 41 433 l 41 470 l 360 470 l 360 433 z "},"‑":{"ha":401,"x_min":41,"x_max":360,"o":"m 360 433 l 41 433 l 41 470 l 360 470 l 360 433 z "},"–":{"ha":898,"x_min":106,"x_max":786,"o":"m 786 489 l 106 489 l 106 526 l 786 526 l 786 489 z "},"—":{"ha":1059,"x_min":75,"x_max":981,"o":"m 980 489 l 74 489 l 74 526 l 980 526 l 980 489 z "},"‗":{"ha":626,"x_min":52,"x_max":626,"o":"m 626 -195 l 52 -195 l 52 -159 l 626 -159 l 626 -195 m 626 -37 l 52 -37 l 52 0 l 626 0 l 626 -37 z "},"‘":{"ha":217,"x_min":68,"x_max":165,"o":"m 140 1054 l 165 1032 q 105 873 107 959 l 105 792 l 68 792 l 68 872 q 140 1054 71 980 z "},"’":{"ha":217,"x_min":52,"x_max":149,"o":"m 77 781 l 52 802 q 112 948 107 873 l 113 1042 l 149 1042 l 149 962 q 77 781 146 854 z "},"‚":{"ha":203,"x_min":32,"x_max":129,"o":"m 57 -123 l 32 -102 q 92 44 87 -31 l 92 155 l 129 155 l 129 58 q 57 -123 126 -50 z "},"‛":{"ha":217,"x_min":68,"x_max":165,"o":"m 104 1042 l 105 948 q 165 802 110 873 l 140 781 q 68 962 71 854 l 68 1042 l 104 1042 z "},"“":{"ha":339,"x_min":65,"x_max":288,"o":"m 137 1054 l 162 1032 q 102 873 104 959 l 102 792 l 65 792 l 65 872 q 137 1054 68 980 m 262 1054 l 288 1032 q 227 873 229 959 l 227 792 l 191 792 l 191 872 q 262 1054 193 980 z "},"”":{"ha":340,"x_min":52,"x_max":273,"o":"m 77 781 l 52 802 q 112 948 107 873 l 113 1042 l 149 1042 l 149 962 q 77 781 146 854 m 201 781 l 176 802 q 235 948 231 873 l 236 1042 l 273 1042 l 273 962 q 201 781 270 854 z "},"„":{"ha":326,"x_min":32,"x_max":245,"o":"m 57 -123 l 32 -102 q 92 44 87 -31 l 92 155 l 129 155 l 129 58 q 57 -123 126 -50 m 173 -123 l 148 -102 q 208 44 203 -31 l 208 155 l 245 155 l 245 58 q 173 -123 242 -50 z "},"†":{"ha":764,"x_min":44,"x_max":715,"o":"m 715 694 l 403 694 l 403 0 l 366 0 l 366 694 l 44 694 l 44 734 l 366 734 l 366 987 l 403 987 l 403 734 l 715 734 l 715 694 z "},"‡":{"ha":774,"x_min":56,"x_max":726,"o":"m 726 0 l 400 0 l 400 -282 l 363 -282 l 363 0 l 56 0 l 56 37 l 363 37 l 363 696 l 56 696 l 56 734 l 363 734 l 363 987 l 400 987 l 400 734 l 726 734 l 726 696 l 400 696 l 400 37 l 726 37 l 726 0 z "},"•":{"ha":431,"x_min":105,"x_max":332,"o":"m 105 497 q 136 575 105 545 q 218 606 167 606 q 300 576 269 606 q 332 495 332 546 l 332 477 q 300 399 332 429 q 218 370 268 370 q 138 398 170 370 q 105 475 106 427 l 105 497 z "},"‥":{"ha":606,"x_min":125,"x_max":461,"o":"m 125 33 q 136 60 125 49 q 163 71 147 71 q 190 60 178 71 q 201 33 201 49 q 190 7 201 18 q 163 -4 178 -4 q 136 7 147 -4 q 125 33 125 18 m 386 33 q 397 60 386 49 q 423 71 408 71 q 450 60 439 71 q 461 33 461 49 q 450 7 461 18 q 423 -4 439 -4 q 397 7 408 -4 q 386 33 386 18 z "},"…":{"ha":851,"x_min":125,"x_max":711,"o":"m 125 33 q 136 60 125 49 q 163 71 147 71 q 190 60 178 71 q 201 33 201 49 q 190 7 201 18 q 163 -4 178 -4 q 136 7 147 -4 q 125 33 125 18 m 386 33 q 397 60 386 49 q 423 71 408 71 q 450 60 439 71 q 461 33 461 49 q 450 7 461 18 q 423 -4 439 -4 q 397 7 408 -4 q 386 33 386 18 m 636 33 q 647 60 636 49 q 673 71 658 71 q 700 60 689 71 q 711 33 711 49 q 700 7 711 18 q 673 -4 689 -4 q 647 7 658 -4 q 636 33 636 18 z "},"‧":{"ha":211,"x_min":68,"x_max":143,"o":"m 68 452 q 79 478 68 467 q 105 490 90 490 q 132 478 121 490 q 143 452 143 467 q 132 425 143 436 q 105 414 121 414 q 79 425 90 414 q 68 452 68 436 z "},"‰":{"ha":1379,"x_min":78,"x_max":1295,"o":"m 590 242 q 643 388 590 330 q 773 446 695 446 q 876 412 832 446 q 939 326 920 379 q 1006 412 961 379 q 1111 446 1052 446 q 1243 388 1190 446 q 1295 237 1295 330 l 1295 189 q 1243 44 1295 102 q 1112 -14 1190 -14 q 1008 18 1054 -14 q 939 105 962 51 q 876 18 920 50 q 774 -14 831 -14 q 643 43 696 -14 q 590 193 590 101 l 590 242 m 78 798 q 130 943 78 884 q 262 1002 182 1002 q 393 943 340 1002 q 446 794 446 885 l 446 745 q 394 601 446 659 q 263 543 342 543 q 131 600 184 543 q 78 749 78 658 l 78 798 m 627 189 q 668 70 627 117 q 774 23 708 23 q 881 70 840 23 q 921 193 921 117 l 921 242 q 881 362 921 317 q 773 408 842 408 q 667 362 707 408 q 627 239 627 317 l 627 189 m 958 189 q 998 70 958 117 q 1105 23 1038 23 q 1212 71 1173 23 q 1251 193 1251 118 l 1251 242 q 1212 363 1251 318 q 1104 408 1173 408 q 997 362 1036 408 q 958 239 958 316 l 958 189 m 115 745 q 156 627 115 673 q 263 580 196 580 q 369 627 330 580 q 409 749 409 674 l 409 798 q 369 918 409 871 q 262 964 328 964 q 156 917 197 964 q 115 793 115 870 l 115 745 m 283 89 l 253 110 l 735 882 l 766 861 l 283 89 z "},"‹":{"ha":410,"x_min":73,"x_max":321,"o":"m 121 380 l 321 123 l 273 123 l 73 374 l 73 387 l 273 637 l 321 637 l 121 380 z "},"›":{"ha":410,"x_min":72,"x_max":319,"o":"m 119 637 l 319 380 l 319 367 l 119 116 l 72 116 l 271 373 l 72 637 l 119 637 z "},"⁄":{"ha":614,"x_min":44,"x_max":557,"o":"m 75 89 l 44 110 l 526 882 l 557 861 l 75 89 z "},"⁴":{"ha":494,"x_min":44,"x_max":467,"o":"m 368 622 l 467 622 l 467 589 l 368 589 l 368 450 l 332 450 l 332 589 l 45 589 l 44 610 l 327 985 l 368 985 l 368 622 m 92 622 l 332 622 l 332 943 l 302 895 l 92 622 z "},"ⁿ":{"ha":584,"x_min":84,"x_max":501,"o":"m 114 987 l 120 882 q 194 964 148 934 q 303 994 241 994 q 501 783 501 994 l 501 441 l 465 441 l 465 800 q 303 961 461 961 q 187 921 235 961 q 121 810 139 882 l 121 441 l 84 441 l 84 987 l 114 987 z "},"₤":{"ha":780,"x_min":67,"x_max":720,"o":"m 492 328 l 248 328 l 251 228 q 205 37 254 96 l 719 37 l 720 0 l 67 0 l 67 37 l 149 37 q 198 101 181 46 q 214 228 216 155 l 211 328 l 69 328 l 69 366 l 210 366 l 206 502 l 69 502 l 69 540 l 205 540 l 200 705 q 267 922 200 843 q 448 1001 334 1001 q 634 930 566 1001 q 702 739 702 860 l 665 739 q 607 905 665 846 q 448 964 549 964 q 293 897 349 964 q 237 705 237 829 l 241 540 l 492 540 l 492 502 l 243 502 l 247 366 l 492 366 l 492 328 z "},"₦":{"ha":1037,"x_min":27,"x_max":1010,"o":"m 874 603 l 1010 603 l 1010 566 l 874 566 l 874 399 l 1010 399 l 1010 363 l 874 363 l 874 0 l 838 0 l 587 363 l 200 363 l 200 0 l 163 0 l 163 363 l 27 363 l 27 399 l 163 399 l 163 566 l 27 566 l 27 603 l 163 603 l 163 987 l 200 987 l 465 603 l 838 603 l 838 987 l 874 987 l 874 603 m 200 399 l 562 399 l 447 566 l 200 566 l 200 399 m 606 399 l 838 399 l 838 566 l 491 566 l 606 399 m 200 603 l 422 603 l 200 925 l 200 603 m 838 64 l 838 363 l 631 363 l 838 64 z "},"₧":{"ha":1133,"x_min":138,"x_max":1021,"o":"m 999 696 l 832 696 l 832 176 q 858 60 832 98 q 943 23 883 23 q 1015 29 972 23 l 1021 -5 q 945 -14 999 -14 q 830 31 865 -14 q 795 171 795 75 l 795 696 l 669 696 q 583 487 668 564 q 351 410 498 411 l 174 410 l 174 0 l 138 0 l 138 987 l 350 987 q 571 920 486 987 q 668 734 656 853 l 795 734 l 795 932 l 832 932 l 832 734 l 999 734 l 999 696 m 174 447 l 350 447 q 556 515 480 447 q 632 698 632 583 q 561 879 632 811 q 363 951 489 947 l 174 951 l 174 447 z "},"₨":{"ha":1437,"x_min":132,"x_max":1352,"o":"m 511 422 l 169 422 l 169 0 l 132 0 l 132 987 l 447 987 q 683 911 595 987 q 771 703 771 834 q 708 526 771 602 q 549 432 646 450 l 812 9 l 812 0 l 774 0 l 511 422 m 169 459 l 480 459 q 664 528 594 459 q 734 703 734 597 q 657 884 734 818 q 444 951 579 951 l 169 951 l 169 459 m 1315 180 q 1087 361 1315 313 q 897 436 950 391 q 843 562 843 482 q 911 695 843 643 q 1088 747 979 747 q 1279 691 1207 747 q 1351 538 1351 634 l 1314 538 q 1251 661 1314 612 q 1088 711 1189 711 q 936 669 992 711 q 880 564 880 627 q 901 486 880 514 q 969 435 922 458 q 1107 391 1017 412 q 1251 342 1198 370 q 1328 274 1304 313 q 1352 179 1352 235 q 1280 39 1352 92 q 1094 -14 1209 -14 q 895 42 970 -14 q 819 186 819 98 l 856 186 q 924 66 861 109 q 1094 23 987 23 q 1254 69 1192 23 q 1315 180 1315 115 z "},"₩":{"ha":1082,"x_min":27,"x_max":1055,"o":"m 643 644 l 897 644 l 972 987 l 1013 987 l 937 644 l 1055 644 l 1055 607 l 928 607 l 891 440 l 1055 440 l 1055 404 l 883 404 l 794 0 l 753 0 l 659 404 l 424 404 l 329 0 l 288 0 l 198 404 l 27 404 l 27 440 l 190 440 l 153 607 l 27 607 l 27 644 l 144 644 l 68 987 l 109 987 l 185 644 l 440 644 l 522 987 l 562 987 l 643 644 m 231 440 l 392 440 l 431 607 l 193 607 l 231 440 m 690 440 l 851 440 l 888 607 l 651 607 l 690 440 m 432 440 l 650 440 l 611 607 l 471 607 l 432 440 m 344 238 l 383 404 l 239 404 l 275 239 l 309 89 l 344 238 m 809 250 l 843 404 l 699 404 l 736 248 l 773 89 l 809 250 m 480 644 l 603 644 l 578 748 l 541 905 l 505 747 l 480 644 z "},"₪":{"ha":1048,"x_min":115,"x_max":932,"o":"m 412 734 q 588 668 532 734 q 646 463 643 602 l 646 231 l 609 231 l 609 461 q 562 641 607 584 q 411 698 517 698 l 152 698 l 152 0 l 115 0 l 115 734 l 412 734 m 402 0 l 402 503 l 439 503 l 439 36 l 697 36 q 849 93 804 36 q 896 273 894 150 l 896 734 l 932 734 l 932 279 q 877 68 931 136 q 703 0 822 1 l 402 0 z "},"€":{"ha":760,"x_min":49,"x_max":700,"o":"m 533 396 l 224 396 l 224 362 q 312 111 224 200 q 551 22 399 22 q 700 45 631 22 l 700 7 q 551 -14 629 -14 q 285 86 382 -14 q 188 364 188 186 l 188 396 l 49 396 l 49 433 l 188 433 l 188 563 l 49 563 l 49 601 l 188 601 l 188 629 q 285 902 189 804 q 549 1001 380 1001 q 700 980 614 1001 l 700 941 q 549 964 624 964 q 310 877 394 964 q 224 629 225 789 l 224 601 l 533 601 l 533 563 l 224 563 l 224 433 l 533 433 l 533 396 z "},"₱":{"ha":890,"x_min":27,"x_max":870,"o":"m 199 417 l 199 0 l 163 0 l 163 580 l 27 580 l 27 616 l 163 616 l 163 783 l 27 783 l 27 820 l 163 820 l 163 987 l 471 987 q 663 943 588 987 q 768 820 738 898 l 870 820 l 870 783 l 781 783 q 790 699 790 744 q 781 616 790 656 l 870 616 l 870 580 l 769 580 q 467 417 705 417 l 199 417 m 753 698 q 741 783 753 743 l 199 783 l 199 616 l 742 616 q 753 698 753 655 m 199 820 l 727 820 q 465 951 663 951 l 199 951 l 199 820 m 727 580 l 199 580 l 199 454 l 464 454 q 727 580 664 454 z "},"₹":{"ha":639,"x_min":41,"x_max":598,"o":"m 585 951 l 319 951 q 427 858 387 918 q 472 715 467 799 l 598 715 l 585 678 l 472 678 q 387 489 466 562 q 182 416 309 416 l 514 9 l 514 0 l 475 0 l 132 416 l 132 452 l 188 452 q 360 516 293 454 q 435 678 428 578 l 41 678 l 54 715 l 435 715 q 353 886 429 823 q 155 951 277 949 l 41 951 l 54 987 l 598 987 l 585 951 z "},"₺":{"ha":652,"x_min":39,"x_max":571,"o":"m 571 526 l 571 438 q 469 118 571 237 q 199 -1 367 -1 l 163 0 l 163 513 l 39 464 l 39 504 l 163 553 l 163 669 l 39 620 l 39 660 l 163 709 l 163 987 l 199 987 l 199 724 l 357 787 l 357 747 l 199 684 l 199 568 l 357 631 l 357 591 l 199 528 l 199 35 q 444 143 353 35 q 534 437 534 252 l 534 526 l 571 526 z "},"₼":{"ha":907,"x_min":81,"x_max":826,"o":"m 471 594 q 730 468 634 587 q 826 157 826 349 l 826 0 l 789 0 l 789 158 q 704 444 789 336 q 471 557 618 551 l 471 0 l 434 0 l 434 557 q 204 444 290 551 q 119 158 119 338 l 119 0 l 81 0 l 81 156 q 177 469 81 350 q 434 594 273 587 l 434 734 l 471 734 l 471 594 z "},"₽":{"ha":861,"x_min":27,"x_max":790,"o":"m 471 272 l 199 272 l 199 0 l 163 0 l 163 272 l 27 272 l 27 309 l 163 309 l 163 417 l 27 417 l 27 454 l 163 454 l 163 987 l 471 987 q 706 911 623 987 q 790 699 790 835 q 708 492 790 565 q 476 417 627 418 l 199 417 l 199 309 l 471 309 l 471 272 m 199 454 l 471 454 q 679 518 605 454 q 753 698 753 583 q 679 884 753 817 q 471 951 605 951 l 199 951 l 199 454 z "},"℅":{"ha":1018,"x_min":77,"x_max":958,"o":"m 431 688 q 384 585 431 627 q 263 543 336 543 q 132 602 187 543 q 77 750 77 661 l 77 798 q 132 942 77 882 q 262 1002 186 1002 q 383 960 335 1002 q 431 855 431 918 l 394 855 q 357 933 394 903 q 262 964 321 964 q 157 915 200 964 q 115 793 115 866 l 115 745 q 157 629 115 677 q 263 580 199 580 q 357 610 320 580 q 394 688 394 641 l 431 688 m 590 242 q 643 388 590 330 q 774 446 695 446 q 906 388 853 446 q 958 237 958 330 l 958 189 q 906 44 958 102 q 775 -14 853 -14 q 643 43 696 -14 q 590 193 590 101 l 590 242 m 627 189 q 668 70 627 117 q 775 23 708 23 q 881 70 842 23 q 921 193 921 117 l 921 242 q 881 363 921 319 q 774 408 842 408 q 667 362 707 408 q 627 239 627 317 l 627 189 m 285 89 l 254 110 l 736 882 l 767 861 l 285 89 z "},"ℓ":{"ha":632,"x_min":53,"x_max":525,"o":"m 468 -14 q 303 65 361 -14 q 245 294 245 145 l 245 342 q 53 301 157 301 l 53 337 q 245 380 158 337 l 245 784 q 283 973 245 904 q 391 1042 322 1042 q 487 985 450 1042 q 525 825 525 927 l 525 806 q 459 548 525 669 q 281 361 393 426 l 281 292 q 331 93 281 163 q 468 22 380 22 l 468 -14 m 281 401 q 432 574 375 462 q 488 810 488 686 l 488 828 q 461 962 488 919 q 391 1006 434 1006 q 281 781 281 1006 l 281 401 z "},"№":{"ha":1404,"x_min":130,"x_max":1303,"o":"m 1303 307 l 909 307 l 909 344 l 1303 344 l 1303 307 m 890 771 q 947 936 890 873 q 1097 998 1004 998 q 1246 936 1190 998 q 1303 768 1303 873 l 1303 692 q 1247 527 1303 589 q 1098 465 1190 465 q 948 527 1005 465 q 890 695 890 589 l 890 771 m 927 692 q 972 552 927 603 q 1098 502 1017 502 q 1222 554 1177 502 q 1267 694 1267 606 l 1267 771 q 1221 910 1267 858 q 1097 962 1175 962 q 973 910 1019 962 q 927 767 927 859 l 927 692 m 740 0 l 703 0 l 168 918 l 168 0 l 130 0 l 130 987 l 168 987 l 703 71 l 703 987 l 740 987 l 740 0 z "},"™":{"ha":846,"x_min":75,"x_max":734,"o":"m 697 920 l 586 623 l 551 623 l 439 929 l 439 623 l 402 623 l 402 987 l 449 987 l 568 676 l 688 987 l 734 987 l 734 623 l 697 623 l 697 920 m 344 949 l 229 949 l 229 623 l 191 623 l 191 949 l 75 949 l 75 987 l 344 987 l 344 949 z "},"℮":{"ha":877,"x_min":100,"x_max":791,"o":"m 706 64 q 455 -14 582 -14 q 274 40 357 -14 q 145 180 191 93 q 100 367 100 267 q 149 552 100 464 q 281 693 197 640 q 455 747 366 747 q 622 700 545 747 q 744 571 699 653 q 791 391 789 488 l 791 349 l 270 349 l 270 126 q 455 52 351 52 q 705 134 588 52 l 706 64 m 455 684 q 270 601 353 684 l 270 413 l 636 413 l 636 607 q 455 684 558 684 z "},"⅛":{"ha":1057,"x_min":78,"x_max":964,"o":"m 283 438 l 246 438 l 246 928 l 78 873 l 78 909 l 277 975 l 283 975 l 283 438 m 239 89 l 209 110 l 691 882 l 722 861 l 239 89 m 947 397 q 919 321 947 353 q 845 274 891 289 q 931 223 898 259 q 964 141 964 187 q 911 33 964 73 q 772 -7 859 -7 q 631 33 684 -7 q 579 141 579 73 q 612 224 579 190 q 698 274 645 259 q 624 321 652 290 q 596 397 596 353 q 644 503 596 463 q 771 543 692 543 q 899 503 850 543 q 947 397 947 464 m 927 140 q 883 224 927 191 q 771 257 840 257 q 659 224 703 257 q 616 140 616 192 q 657 57 616 89 q 772 25 699 25 q 885 57 844 25 q 927 140 927 89 m 771 509 q 671 479 710 509 q 632 398 632 448 q 671 320 632 349 q 772 290 711 290 q 873 320 834 290 q 911 398 911 351 q 871 477 911 446 q 771 509 831 509 z "},"⅜":{"ha":1194,"x_min":106,"x_max":1082,"o":"m 235 736 l 286 736 q 394 767 354 737 q 434 844 434 798 q 398 927 434 897 q 297 957 361 957 q 194 925 235 957 q 153 842 153 894 l 117 842 q 169 949 117 907 q 297 990 220 990 q 424 951 378 990 q 471 842 471 911 q 444 770 471 804 q 366 721 416 736 q 454 673 424 707 q 484 591 484 640 q 433 481 484 523 q 300 440 383 440 q 161 483 216 440 q 106 595 106 526 l 142 595 q 186 507 142 542 q 300 473 231 473 q 409 504 370 473 q 447 590 447 535 q 275 703 447 703 l 235 703 l 235 736 m 360 89 l 330 110 l 812 882 l 842 861 l 360 89 m 1066 397 q 1038 321 1066 353 q 964 274 1010 289 q 1049 223 1017 259 q 1082 141 1082 187 q 1030 33 1082 73 q 891 -7 978 -7 q 750 33 802 -7 q 698 141 698 73 q 731 224 698 190 q 817 274 764 259 q 743 321 770 290 q 715 397 715 353 q 763 503 715 463 q 890 543 810 543 q 1018 503 969 543 q 1066 397 1066 464 m 1046 140 q 1002 224 1046 191 q 890 257 958 257 q 778 224 821 257 q 734 140 734 192 q 776 57 734 89 q 891 25 818 25 q 1004 57 962 25 q 1046 140 1046 89 m 890 509 q 790 479 829 509 q 751 398 751 448 q 790 320 751 349 q 891 290 829 290 q 991 320 953 290 q 1030 398 1030 351 q 990 477 1030 446 q 890 509 950 509 z "},"⅝":{"ha":1167,"x_min":96,"x_max":1056,"o":"m 109 729 l 141 988 l 444 988 l 444 954 l 172 954 l 146 762 q 195 782 162 772 q 269 793 227 793 q 401 746 351 793 q 452 623 452 700 q 404 491 452 537 q 271 446 357 446 q 152 486 201 446 q 96 594 102 526 l 132 594 q 175 510 137 542 q 271 478 213 478 q 416 623 416 478 q 377 723 416 685 q 266 760 338 760 q 160 736 199 760 l 137 720 l 109 729 m 339 89 l 309 110 l 791 882 l 821 861 l 339 89 m 1040 397 q 1011 321 1040 353 q 937 274 983 289 q 1023 223 990 259 q 1056 141 1056 187 q 1004 33 1056 73 q 865 -7 951 -7 q 724 33 776 -7 q 671 141 671 73 q 704 224 671 190 q 790 274 737 259 q 716 321 744 290 q 688 397 688 353 q 736 503 688 463 q 863 543 784 543 q 991 503 943 543 q 1040 397 1040 464 m 1019 140 q 976 224 1019 191 q 863 257 932 257 q 751 224 795 257 q 708 140 708 192 q 750 57 708 89 q 865 25 791 25 q 978 57 936 25 q 1019 140 1019 89 m 863 509 q 763 479 802 509 q 724 398 724 448 q 764 320 724 349 q 865 290 803 290 q 965 320 926 290 q 1004 398 1004 351 q 964 477 1004 446 q 863 509 924 509 z "},"⅞":{"ha":1114,"x_min":85,"x_max":1004,"o":"m 475 968 l 214 454 l 176 454 l 435 956 l 85 956 l 85 989 l 475 989 l 475 968 m 270 89 l 239 110 l 722 882 l 752 861 l 270 89 m 987 397 q 959 321 987 353 q 885 274 931 289 q 971 223 938 259 q 1004 141 1004 187 q 951 33 1004 73 q 812 -7 899 -7 q 671 33 724 -7 q 619 141 619 73 q 652 224 619 190 q 738 274 685 259 q 664 321 692 290 q 636 397 636 353 q 684 503 636 463 q 811 543 732 543 q 939 503 890 543 q 987 397 987 464 m 967 140 q 923 224 967 191 q 811 257 880 257 q 699 224 743 257 q 656 140 656 192 q 697 57 656 89 q 812 25 739 25 q 925 57 884 25 q 967 140 967 89 m 811 509 q 711 479 750 509 q 672 398 672 448 q 711 320 672 349 q 812 290 751 290 q 913 320 874 290 q 951 398 951 351 q 911 477 951 446 q 811 509 871 509 z "},"∂":{"ha":795,"x_min":72,"x_max":728,"o":"m 690 532 q 602 880 681 760 q 380 1001 522 1001 q 272 982 317 1001 q 179 918 226 964 l 159 946 q 385 1038 245 1038 q 636 896 546 1038 q 728 489 726 754 l 728 427 q 686 200 728 301 q 566 42 643 98 q 393 -14 490 -14 q 228 28 301 -14 q 113 149 155 70 q 72 325 72 227 l 72 354 q 113 530 72 452 q 227 650 153 608 q 394 693 301 693 q 563 652 487 693 q 690 532 639 612 m 394 656 q 189 570 269 656 q 109 347 109 484 l 109 326 q 145 172 109 242 q 245 62 181 101 q 393 22 310 22 q 608 138 525 22 q 692 437 692 253 l 692 460 q 623 568 673 518 q 394 656 532 656 z "},"∏":{"ha":861,"x_min":122,"x_max":739,"o":"m 739 -184 l 702 -184 l 702 951 l 159 951 l 159 -184 l 122 -184 l 122 987 l 739 987 l 739 -184 z "},"∑":{"ha":791,"x_min":39,"x_max":789,"o":"m 486 393 l 90 -146 l 789 -146 l 789 -183 l 39 -183 l 39 -154 l 443 401 l 39 958 l 39 987 l 64 987 l 65 985 l 65 987 l 750 987 l 750 951 l 90 951 l 486 410 l 486 393 z "},"−":{"ha":791,"x_min":111,"x_max":677,"o":"m 677 489 l 111 489 l 111 526 l 677 526 l 677 489 z "},"√":{"ha":689,"x_min":44,"x_max":636,"o":"m 271 162 l 307 54 l 597 987 l 636 987 l 325 0 l 290 0 l 290 1 l 128 441 l 44 441 l 44 478 l 155 478 l 271 162 z "},"∞":{"ha":1508,"x_min":95,"x_max":1402,"o":"m 1402 351 q 1362 165 1402 250 q 1253 33 1323 80 q 1094 -14 1182 -14 q 892 70 982 -14 q 748 311 803 154 q 603 68 690 151 q 404 -14 515 -14 q 182 90 269 -14 q 95 359 95 193 l 95 383 q 134 568 95 484 q 244 700 174 653 q 402 747 314 747 q 604 663 513 747 q 748 422 694 578 q 893 662 802 577 q 1095 747 983 747 q 1315 643 1229 747 q 1402 375 1402 539 l 1402 351 m 1365 383 q 1331 547 1365 471 q 1236 667 1297 624 q 1095 711 1175 711 q 904 623 989 711 q 772 381 820 536 l 772 353 l 774 345 q 906 109 822 195 q 1094 22 989 22 q 1290 117 1215 22 q 1365 359 1365 212 l 1365 383 m 132 351 q 166 184 132 261 q 262 65 201 108 q 404 22 323 22 q 592 110 508 22 q 722 345 676 198 l 725 353 l 725 381 l 724 383 q 593 623 677 534 q 402 711 509 711 q 208 616 283 711 q 132 373 132 522 l 132 351 z "},"∫":{"ha":349,"x_min":-108,"x_max":403,"o":"m 161 -60 q 111 -236 161 -176 q -32 -296 60 -296 q -108 -283 -68 -296 l -99 -248 q -32 -260 -66 -260 q 84 -208 44 -260 q 125 -60 125 -157 l 125 838 q 175 1000 125 944 q 316 1056 226 1056 q 403 1044 367 1056 l 397 1009 q 317 1019 362 1019 q 203 972 244 1019 q 161 838 161 925 l 161 -60 z "},"≈":{"ha":783,"x_min":68,"x_max":707,"o":"m 75 568 q 235 667 144 667 q 341 644 291 668 l 445 591 q 545 568 492 568 q 702 669 631 568 l 707 625 q 547 526 637 526 q 449 547 494 526 l 340 603 q 237 625 291 626 q 80 523 151 625 l 75 568 m 68 303 q 229 402 138 402 q 334 380 284 404 l 438 326 q 538 303 486 303 q 695 405 625 303 l 699 361 q 539 262 630 262 q 441 283 486 262 l 333 340 q 230 361 283 363 q 73 260 143 361 l 68 303 z "},"≠":{"ha":774,"x_min":100,"x_max":665,"o":"m 665 296 l 307 296 l 198 103 l 166 119 l 266 296 l 100 296 l 100 332 l 287 332 l 422 572 l 100 572 l 100 608 l 443 608 l 552 800 l 584 784 l 484 608 l 665 608 l 665 572 l 463 572 l 328 332 l 665 332 l 665 296 z "},"≤":{"ha":714,"x_min":52,"x_max":623,"o":"m 105 515 l 623 280 l 623 239 l 56 498 l 56 532 l 623 789 l 623 749 l 105 515 m 618 1 l 52 1 l 52 37 l 618 37 l 618 1 z "},"≥":{"ha":714,"x_min":72,"x_max":644,"o":"m 591 518 l 77 753 l 77 793 l 644 536 l 644 502 l 77 244 l 77 284 l 591 518 m 638 1 l 72 1 l 72 38 l 638 38 l 638 1 z "},"◊":{"ha":703,"x_min":46,"x_max":651,"o":"m 332 987 l 366 987 l 651 493 l 366 0 l 332 0 l 46 493 l 332 987 m 349 943 l 93 493 l 349 42 l 605 493 l 349 943 z "},"":{"ha":306,"x_min":104,"x_max":183,"o":"m 104 150 q 115 177 104 165 q 142 188 126 188 q 169 177 157 188 q 180 150 180 165 q 169 123 180 134 q 142 113 157 113 q 115 123 126 113 q 104 150 104 134 m 108 802 q 119 829 108 818 q 145 840 130 840 q 172 829 161 840 q 183 802 183 818 q 172 776 183 787 q 145 765 161 765 q 119 776 130 765 q 108 802 108 787 z "},"":{"ha":353,"x_min":85,"x_max":279,"o":"m 122 478 l 85 478 l 85 734 l 122 734 l 122 478 m 279 478 l 242 478 l 242 734 l 279 734 l 279 478 z "},"":{"ha":311,"x_min":102,"x_max":186,"o":"m 127 -138 l 102 -116 q 149 3 144 -58 l 149 79 l 186 79 l 186 25 q 127 -138 185 -72 z "},"ﬁ":{"ha":724,"x_min":45,"x_max":600,"o":"m 172 0 l 172 696 l 45 696 l 45 734 l 172 734 l 172 826 q 231 996 173 935 q 391 1056 288 1056 q 573 1017 490 1056 l 568 982 l 528 998 q 392 1019 471 1019 q 258 967 307 1019 q 209 823 209 916 l 209 734 l 403 734 l 403 696 l 209 696 l 209 0 l 172 0 m 600 0 l 563 0 l 563 734 l 600 734 l 600 0 z "},"ﬂ":{"ha":724,"x_min":45,"x_max":600,"o":"m 563 990 q 365 1019 434 1019 q 251 972 292 1019 q 209 838 209 925 l 209 734 l 403 734 l 403 696 l 209 696 l 209 0 l 172 0 l 172 696 l 45 696 l 45 734 l 172 734 l 172 841 q 223 999 173 943 q 364 1056 274 1056 q 600 1015 448 1056 l 600 0 l 563 0 l 563 990 z "},"ﬃ":{"ha":1114,"x_min":45,"x_max":990,"o":"m 172 0 l 172 696 l 45 696 l 45 734 l 172 734 l 172 841 q 223 999 173 943 q 364 1056 274 1056 q 451 1044 414 1056 l 446 1009 q 365 1019 410 1019 q 251 972 292 1019 q 209 838 209 925 l 209 734 l 563 734 l 563 826 q 621 996 564 935 q 782 1056 679 1056 q 964 1017 880 1056 l 958 982 l 918 998 q 783 1019 862 1019 q 649 967 698 1019 q 600 823 600 916 l 600 734 l 793 734 l 793 696 l 600 696 l 600 0 l 563 0 l 563 696 l 209 696 l 209 0 l 172 0 m 990 0 l 954 0 l 954 734 l 990 734 l 990 0 z "},"ﬄ":{"ha":1114,"x_min":45,"x_max":990,"o":"m 172 0 l 172 696 l 45 696 l 45 734 l 172 734 l 172 841 q 223 999 173 943 q 364 1056 274 1056 q 451 1044 414 1056 l 446 1009 q 365 1019 410 1019 q 251 972 292 1019 q 209 838 209 925 l 209 734 l 563 734 l 563 841 q 614 999 564 943 q 755 1056 665 1056 q 990 1015 838 1056 l 990 0 l 954 0 l 954 990 q 755 1019 825 1019 q 641 972 683 1019 q 600 838 600 925 l 600 734 l 793 734 l 793 696 l 600 696 l 600 0 l 563 0 l 563 696 l 209 696 l 209 0 l 172 0 z "},"﻿":{"ha":0,"x_min":0,"x_max":0,"o":""},"￼":{"ha":1417,"x_min":58,"x_max":1373,"o":"m 556 317 q 512 210 556 251 q 401 169 469 169 q 288 210 332 169 q 243 314 245 250 l 243 393 q 286 500 243 458 q 399 542 329 542 q 511 501 468 542 q 556 397 555 460 l 556 317 m 602 171 l 602 543 l 729 543 q 834 518 795 543 q 873 441 873 494 q 816 363 873 385 q 867 330 850 354 q 885 276 885 307 q 744 171 885 171 l 602 171 m 494 393 q 469 467 494 440 q 399 493 444 493 q 331 467 356 493 q 306 393 306 440 l 306 317 q 331 244 306 271 q 401 218 356 218 q 469 244 444 218 q 494 317 494 271 l 494 393 m 1141 545 l 1203 545 l 1203 288 q 1167 204 1203 235 q 1076 172 1132 172 q 980 200 1017 172 q 943 283 943 227 l 1006 283 q 1076 222 1006 222 q 1122 240 1104 222 q 1141 288 1141 258 l 1141 545 m 58 -270 l 58 -56 l 135 -56 l 135 -193 l 268 -193 l 268 -270 l 58 -270 m 1163 -270 l 1163 -193 l 1298 -193 l 1298 -56 l 1373 -56 l 1373 -270 l 1163 -270 m 58 793 l 58 986 l 268 986 l 268 907 l 135 907 l 135 793 l 58 793 m 1163 907 l 1163 986 l 1373 986 l 1373 793 l 1298 793 l 1298 907 l 1163 907 m 666 336 l 666 222 l 751 222 q 821 278 821 222 q 755 336 821 334 l 666 336 m 892 907 l 892 986 l 1081 986 l 1081 907 l 892 907 m 622 907 l 622 986 l 810 986 l 810 907 l 622 907 m 351 907 l 351 986 l 538 986 l 538 907 l 351 907 m 892 -270 l 892 -193 l 1081 -193 l 1081 -270 l 892 -270 m 622 -270 l 622 -193 l 810 -193 l 810 -270 l 622 -270 m 351 -270 l 351 -193 l 538 -193 l 538 -270 l 351 -270 m 666 384 l 729 384 q 809 438 809 384 q 789 476 809 466 q 729 486 770 486 l 666 486 l 666 384 m 135 282 l 58 282 l 58 453 l 135 453 l 135 282 m 135 538 l 58 538 l 58 708 l 135 708 l 135 538 m 135 28 l 58 28 l 58 197 l 135 197 l 135 28 m 1373 282 l 1298 282 l 1298 453 l 1373 453 l 1373 282 m 1373 538 l 1298 538 l 1298 708 l 1373 708 l 1373 538 m 1373 28 l 1298 28 l 1298 197 l 1373 197 l 1373 28 z "},"�":{"ha":1425,"x_min":62,"x_max":1361,"o":"m 711 1097 l 1361 436 l 711 -225 l 62 436 l 711 1097 m 767 273 q 777 332 767 312 q 812 368 787 351 q 893 440 862 394 q 924 536 924 486 q 868 674 924 623 q 710 725 811 725 q 558 678 612 725 q 503 545 504 631 l 640 545 q 661 597 642 579 q 710 614 681 614 q 768 593 749 614 q 787 536 787 571 q 724 431 787 471 q 646 355 662 387 q 630 273 630 324 l 767 273 m 767 211 l 630 211 l 630 96 l 767 96 l 767 211 m 716 -374 l 719 -374 l 719 -376 l 716 -376 l 716 -374 m 715 1467 l 718 1467 l 718 1464 l 715 1464 l 715 1467 z "}," ":{"ha":332,"x_min":0,"x_max":0,"o":""},"­":{"ha":412,"x_min":41,"x_max":360,"o":"m 360 433 l 41 433 l 41 470 l 360 470 l 360 433 z "},"Đ":{"ha":929,"x_min":41,"x_max":837,"o":"m 156 0 l 156 484 l 41 484 l 41 520 l 156 520 l 156 987 l 429 987 q 637 933 544 987 q 783 781 730 879 q 837 562 836 683 l 837 433 q 785 211 837 310 q 640 56 733 112 q 433 0 547 1 l 156 0 m 439 484 l 193 484 l 193 37 l 422 37 q 695 149 590 37 q 800 439 800 262 l 800 556 q 753 757 800 667 q 622 898 706 847 q 435 951 537 949 l 193 951 l 193 520 l 439 520 l 439 484 z "},"Ð":{"ha":929,"x_min":41,"x_max":837,"o":"m 156 0 l 156 484 l 41 484 l 41 520 l 156 520 l 156 987 l 429 987 q 637 933 544 987 q 783 781 730 879 q 837 562 836 683 l 837 433 q 785 211 837 310 q 640 56 733 112 q 433 0 547 1 l 156 0 m 439 484 l 193 484 l 193 37 l 422 37 q 695 149 590 37 q 800 439 800 262 l 800 556 q 753 757 800 667 q 622 898 706 847 q 435 951 537 949 l 193 951 l 193 520 l 439 520 l 439 484 z "},"ħ":{"ha":781,"x_min":21,"x_max":667,"o":"m 419 869 l 174 869 l 174 563 q 279 698 210 648 q 434 747 349 747 q 609 681 552 747 q 667 479 667 614 l 667 0 l 631 0 l 631 480 q 583 655 630 598 q 432 711 535 711 q 268 644 337 711 q 174 470 198 576 l 174 0 l 137 0 l 137 869 l 21 869 l 21 905 l 137 905 l 137 1042 l 174 1042 l 174 905 l 419 905 l 419 869 z "},"Ŧ":{"ha":830,"x_min":37,"x_max":793,"o":"m 602 574 l 433 574 l 433 0 l 397 0 l 397 574 l 204 574 l 204 611 l 397 611 l 397 951 l 37 951 l 37 987 l 793 987 l 793 951 l 433 951 l 433 611 l 602 611 l 602 574 z "},"ŧ":{"ha":439,"x_min":26,"x_max":426,"o":"m 199 932 l 199 734 l 366 734 l 366 696 l 199 696 l 199 467 l 426 467 l 426 430 l 199 430 l 199 176 q 224 60 199 98 q 309 23 250 23 q 382 29 339 23 l 388 -5 q 311 -14 366 -14 q 198 29 233 -14 q 161 164 163 72 l 161 430 l 28 430 l 28 467 l 161 467 l 161 696 l 26 696 l 26 734 l 161 734 l 161 932 l 199 932 z "},"À":{"ha":829,"x_min":22,"x_max":806,"o":"m 656 295 l 172 295 l 62 0 l 22 0 l 392 987 l 437 987 l 806 0 l 766 0 l 656 295 m 186 332 l 642 332 l 414 943 l 186 332 m 444 1078 l 404 1078 l 272 1258 l 317 1258 l 444 1078 z "},"Á":{"ha":829,"x_min":22,"x_max":806,"o":"m 656 295 l 172 295 l 62 0 l 22 0 l 392 987 l 437 987 l 806 0 l 766 0 l 656 295 m 186 332 l 642 332 l 414 943 l 186 332 m 516 1258 l 561 1258 l 429 1078 l 388 1078 l 516 1258 z "},"Â":{"ha":829,"x_min":22,"x_max":806,"o":"m 656 295 l 172 295 l 62 0 l 22 0 l 392 987 l 437 987 l 806 0 l 766 0 l 656 295 m 186 332 l 642 332 l 414 943 l 186 332 m 587 1080 l 587 1074 l 541 1074 l 414 1206 l 289 1074 l 245 1074 l 245 1083 l 401 1245 l 429 1245 l 587 1080 z "},"Ã":{"ha":829,"x_min":22,"x_max":806,"o":"m 656 295 l 172 295 l 62 0 l 22 0 l 392 987 l 437 987 l 806 0 l 766 0 l 656 295 m 186 332 l 642 332 l 414 943 l 186 332 m 637 1225 q 603 1134 637 1169 q 518 1099 569 1099 q 414 1141 463 1099 q 323 1183 366 1183 q 263 1160 286 1183 q 241 1099 241 1137 l 204 1099 q 238 1186 204 1153 q 323 1220 272 1220 q 428 1178 376 1220 q 518 1136 479 1136 q 577 1160 555 1136 q 600 1225 600 1185 l 637 1225 z "},"Ä":{"ha":829,"x_min":22,"x_max":806,"o":"m 656 295 l 172 295 l 62 0 l 22 0 l 392 987 l 437 987 l 806 0 l 766 0 l 656 295 m 186 332 l 642 332 l 414 943 l 186 332 m 228 1180 q 239 1207 228 1196 q 265 1218 250 1218 q 292 1207 281 1218 q 303 1180 303 1196 q 292 1154 303 1164 q 265 1143 281 1143 q 239 1154 250 1143 q 228 1180 228 1164 m 530 1180 q 541 1207 530 1196 q 567 1218 551 1218 q 594 1207 583 1218 q 605 1180 605 1196 q 594 1154 605 1164 q 567 1143 583 1143 q 541 1154 551 1143 q 530 1180 530 1164 z "},"Å":{"ha":829,"x_min":22,"x_max":806,"o":"m 656 295 l 172 295 l 62 0 l 22 0 l 392 987 l 437 987 l 806 0 l 766 0 l 656 295 m 186 332 l 642 332 l 414 943 l 186 332 m 416 1272 q 499 1237 465 1272 q 532 1154 532 1202 q 499 1072 532 1105 q 416 1038 465 1038 q 335 1070 370 1038 q 300 1154 300 1103 q 335 1238 300 1204 q 416 1272 369 1272 m 337 1154 q 359 1097 337 1118 q 416 1075 382 1075 q 473 1097 451 1075 q 496 1154 496 1118 q 473 1213 496 1190 q 416 1235 451 1235 q 359 1213 382 1235 q 337 1154 337 1190 z "},"Ǻ":{"ha":829,"x_min":22,"x_max":806,"o":"m 656 295 l 172 295 l 62 0 l 22 0 l 392 987 l 437 987 l 806 0 l 766 0 l 656 295 m 186 332 l 642 332 l 414 943 l 186 332 m 514 1302 l 568 1302 l 444 1173 l 399 1173 l 514 1302 m 321 1040 q 349 1107 321 1079 q 416 1136 376 1136 q 482 1107 455 1136 q 509 1040 509 1078 q 482 974 509 1002 q 416 946 455 946 q 349 974 376 946 q 321 1040 321 1002 m 356 1040 q 374 997 356 1014 q 416 980 391 980 q 457 997 440 980 q 474 1040 474 1014 q 457 1084 474 1067 q 416 1101 440 1101 q 374 1084 391 1101 q 356 1040 356 1067 z "},"Ç":{"ha":900,"x_min":98,"x_max":807,"o":"m 807 302 q 702 68 793 150 q 455 -14 611 -14 q 269 40 350 -14 q 143 191 188 93 q 98 415 98 289 l 98 568 q 142 793 98 694 q 268 947 186 892 q 455 1001 349 1001 q 701 920 610 1001 q 807 686 793 838 l 770 686 q 675 893 755 823 q 455 964 596 964 q 223 856 311 964 q 134 565 134 747 l 134 420 q 174 213 134 303 q 287 73 213 123 q 455 23 360 23 q 676 93 597 23 q 770 302 756 163 l 807 302 m 479 -6 l 471 -58 q 591 -172 591 -68 q 540 -266 591 -230 q 398 -301 488 -301 l 393 -268 q 508 -241 462 -268 q 554 -172 554 -214 q 528 -115 554 -134 q 426 -88 502 -96 l 443 -6 l 479 -6 z "},"È":{"ha":791,"x_min":136,"x_max":736,"o":"m 667 490 l 172 490 l 172 37 l 736 37 l 736 0 l 136 0 l 136 987 l 736 987 l 736 951 l 172 951 l 172 526 l 667 526 l 667 490 m 449 1078 l 409 1078 l 277 1258 l 321 1258 l 449 1078 z "},"É":{"ha":791,"x_min":136,"x_max":736,"o":"m 667 490 l 172 490 l 172 37 l 736 37 l 736 0 l 136 0 l 136 987 l 736 987 l 736 951 l 172 951 l 172 526 l 667 526 l 667 490 m 521 1258 l 566 1258 l 433 1078 l 393 1078 l 521 1258 z "},"Ê":{"ha":791,"x_min":136,"x_max":736,"o":"m 667 490 l 172 490 l 172 37 l 736 37 l 736 0 l 136 0 l 136 987 l 736 987 l 736 951 l 172 951 l 172 526 l 667 526 l 667 490 m 592 1080 l 592 1074 l 546 1074 l 419 1206 l 294 1074 l 250 1074 l 250 1083 l 406 1245 l 433 1245 l 592 1080 z "},"Ë":{"ha":791,"x_min":136,"x_max":736,"o":"m 667 490 l 172 490 l 172 37 l 736 37 l 736 0 l 136 0 l 136 987 l 736 987 l 736 951 l 172 951 l 172 526 l 667 526 l 667 490 m 233 1180 q 243 1207 233 1196 q 270 1218 254 1218 q 297 1207 286 1218 q 308 1180 308 1196 q 297 1154 308 1164 q 270 1143 286 1143 q 243 1154 254 1143 q 233 1180 233 1164 m 534 1180 q 545 1207 534 1196 q 572 1218 556 1218 q 598 1207 587 1218 q 610 1180 610 1196 q 598 1154 610 1164 q 572 1143 587 1143 q 545 1154 556 1143 q 534 1180 534 1164 z "},"Ì":{"ha":362,"x_min":39,"x_max":212,"o":"m 199 0 l 163 0 l 163 987 l 199 987 l 199 0 m 212 1078 l 172 1078 l 39 1258 l 84 1258 l 212 1078 z "},"Í":{"ha":362,"x_min":155,"x_max":328,"o":"m 199 0 l 163 0 l 163 987 l 199 987 l 199 0 m 283 1258 l 328 1258 l 195 1078 l 155 1078 l 283 1258 z "},"Î":{"ha":362,"x_min":13,"x_max":355,"o":"m 199 0 l 163 0 l 163 987 l 199 987 l 199 0 m 355 1080 l 355 1074 l 309 1074 l 182 1206 l 56 1074 l 13 1074 l 13 1083 l 169 1245 l 196 1245 l 355 1080 z "},"Ï":{"ha":362,"x_min":-5,"x_max":372,"o":"m 199 0 l 163 0 l 163 987 l 199 987 l 199 0 m -5 1180 q 6 1207 -5 1196 q 33 1218 17 1218 q 59 1207 48 1218 q 71 1180 71 1196 q 59 1154 71 1164 q 33 1143 48 1143 q 6 1154 17 1143 q -5 1180 -5 1164 m 297 1180 q 308 1207 297 1196 q 334 1218 319 1218 q 361 1207 350 1218 q 372 1180 372 1196 q 361 1154 372 1164 q 334 1143 350 1143 q 308 1154 319 1143 q 297 1180 297 1164 z "},"Ñ":{"ha":983,"x_min":136,"x_max":847,"o":"m 847 0 l 810 0 l 173 925 l 173 0 l 136 0 l 136 987 l 173 987 l 810 64 l 810 987 l 847 987 l 847 0 m 715 1225 q 681 1134 715 1169 q 595 1099 646 1099 q 492 1141 541 1099 q 401 1183 443 1183 q 341 1160 363 1183 q 319 1099 319 1137 l 281 1099 q 315 1186 281 1153 q 401 1220 349 1220 q 505 1178 454 1220 q 595 1136 556 1136 q 655 1160 632 1136 q 677 1225 677 1185 l 715 1225 z "},"Ò":{"ha":925,"x_min":90,"x_max":835,"o":"m 835 420 q 789 193 835 292 q 659 40 743 94 q 463 -14 574 -14 q 193 105 296 -14 q 90 425 90 224 l 90 568 q 136 794 90 695 q 267 947 182 893 q 462 1001 352 1001 q 657 947 572 1001 q 789 794 743 893 q 835 568 835 694 l 835 420 m 798 569 q 707 856 798 748 q 462 964 616 964 q 218 857 309 964 q 127 564 127 749 l 127 420 q 169 211 127 302 q 286 72 210 121 q 463 23 361 23 q 708 131 618 23 q 798 425 798 239 l 798 569 m 488 1092 l 448 1092 l 315 1272 l 360 1272 l 488 1092 z "},"Ó":{"ha":925,"x_min":90,"x_max":835,"o":"m 835 420 q 789 193 835 292 q 659 40 743 94 q 463 -14 574 -14 q 193 105 296 -14 q 90 425 90 224 l 90 568 q 136 794 90 695 q 267 947 182 893 q 462 1001 352 1001 q 657 947 572 1001 q 789 794 743 893 q 835 568 835 694 l 835 420 m 798 569 q 707 856 798 748 q 462 964 616 964 q 218 857 309 964 q 127 564 127 749 l 127 420 q 169 211 127 302 q 286 72 210 121 q 463 23 361 23 q 708 131 618 23 q 798 425 798 239 l 798 569 m 559 1272 l 604 1272 l 472 1092 l 431 1092 l 559 1272 z "},"Ô":{"ha":925,"x_min":90,"x_max":835,"o":"m 835 420 q 789 193 835 292 q 659 40 743 94 q 463 -14 574 -14 q 193 105 296 -14 q 90 425 90 224 l 90 568 q 136 794 90 695 q 267 947 182 893 q 462 1001 352 1001 q 657 947 572 1001 q 789 794 743 893 q 835 568 835 694 l 835 420 m 798 569 q 707 856 798 748 q 462 964 616 964 q 218 857 309 964 q 127 564 127 749 l 127 420 q 169 211 127 302 q 286 72 210 121 q 463 23 361 23 q 708 131 618 23 q 798 425 798 239 l 798 569 m 631 1095 l 631 1088 l 585 1088 l 458 1221 l 332 1088 l 289 1088 l 289 1097 l 445 1259 l 472 1259 l 631 1095 z "},"Õ":{"ha":925,"x_min":90,"x_max":835,"o":"m 835 420 q 789 193 835 292 q 659 40 743 94 q 463 -14 574 -14 q 193 105 296 -14 q 90 425 90 224 l 90 568 q 136 794 90 695 q 267 947 182 893 q 462 1001 352 1001 q 657 947 572 1001 q 789 794 743 893 q 835 568 835 694 l 835 420 m 798 569 q 707 856 798 748 q 462 964 616 964 q 218 857 309 964 q 127 564 127 749 l 127 420 q 169 211 127 302 q 286 72 210 121 q 463 23 361 23 q 708 131 618 23 q 798 425 798 239 l 798 569 m 681 1239 q 647 1148 681 1183 q 562 1113 612 1113 q 458 1155 507 1113 q 367 1198 409 1198 q 307 1175 329 1198 q 285 1113 285 1152 l 248 1113 q 281 1201 248 1167 q 367 1234 315 1234 q 471 1192 420 1234 q 562 1150 522 1150 q 621 1175 598 1150 q 644 1239 644 1199 l 681 1239 z "},"Ö":{"ha":925,"x_min":90,"x_max":835,"o":"m 835 420 q 789 193 835 292 q 659 40 743 94 q 463 -14 574 -14 q 193 105 296 -14 q 90 425 90 224 l 90 568 q 136 794 90 695 q 267 947 182 893 q 462 1001 352 1001 q 657 947 572 1001 q 789 794 743 893 q 835 568 835 694 l 835 420 m 798 569 q 707 856 798 748 q 462 964 616 964 q 218 857 309 964 q 127 564 127 749 l 127 420 q 169 211 127 302 q 286 72 210 121 q 463 23 361 23 q 708 131 618 23 q 798 425 798 239 l 798 569 m 271 1194 q 282 1221 271 1210 q 309 1232 293 1232 q 335 1221 324 1232 q 347 1194 347 1210 q 335 1168 347 1179 q 309 1157 324 1157 q 282 1168 293 1157 q 271 1194 271 1179 m 573 1194 q 584 1221 573 1210 q 610 1232 595 1232 q 637 1221 626 1232 q 648 1194 648 1210 q 637 1168 648 1179 q 610 1157 626 1157 q 584 1168 595 1157 q 573 1194 573 1179 z "},"Ù":{"ha":926,"x_min":125,"x_max":800,"o":"m 800 987 l 800 319 q 709 74 800 162 q 463 -14 618 -14 q 217 74 308 -14 q 125 316 126 162 l 125 987 l 162 987 l 162 320 q 244 103 162 183 q 463 23 327 23 q 682 103 600 23 q 764 321 764 183 l 764 987 l 800 987 m 502 1078 l 462 1078 l 330 1258 l 374 1258 l 502 1078 z "},"Ú":{"ha":926,"x_min":125,"x_max":800,"o":"m 800 987 l 800 319 q 709 74 800 162 q 463 -14 618 -14 q 217 74 308 -14 q 125 316 126 162 l 125 987 l 162 987 l 162 320 q 244 103 162 183 q 463 23 327 23 q 682 103 600 23 q 764 321 764 183 l 764 987 l 800 987 m 574 1258 l 618 1258 l 486 1078 l 446 1078 l 574 1258 z "},"Û":{"ha":926,"x_min":125,"x_max":800,"o":"m 800 987 l 800 319 q 709 74 800 162 q 463 -14 618 -14 q 217 74 308 -14 q 125 316 126 162 l 125 987 l 162 987 l 162 320 q 244 103 162 183 q 463 23 327 23 q 682 103 600 23 q 764 321 764 183 l 764 987 l 800 987 m 645 1080 l 645 1074 l 599 1074 l 472 1206 l 347 1074 l 303 1074 l 303 1083 l 459 1245 l 486 1245 l 645 1080 z "},"Ü":{"ha":926,"x_min":125,"x_max":800,"o":"m 800 987 l 800 319 q 709 74 800 162 q 463 -14 618 -14 q 217 74 308 -14 q 125 316 126 162 l 125 987 l 162 987 l 162 320 q 244 103 162 183 q 463 23 327 23 q 682 103 600 23 q 764 321 764 183 l 764 987 l 800 987 m 286 1180 q 296 1207 286 1196 q 323 1218 307 1218 q 350 1207 338 1218 q 361 1180 361 1196 q 350 1154 361 1164 q 323 1143 338 1143 q 296 1154 307 1143 q 286 1180 286 1164 m 587 1180 q 598 1207 587 1196 q 625 1218 609 1218 q 651 1207 640 1218 q 663 1180 663 1196 q 651 1154 663 1164 q 625 1143 640 1143 q 598 1154 609 1143 q 587 1180 587 1164 z "},"Ý":{"ha":829,"x_min":22,"x_max":804,"o":"m 413 408 l 759 987 l 804 987 l 431 375 l 431 0 l 395 0 l 395 375 l 22 987 l 71 987 l 413 408 m 513 1251 l 558 1251 l 426 1070 l 385 1070 l 513 1251 z "},"à":{"ha":733,"x_min":62,"x_max":633,"o":"m 591 0 q 577 134 577 47 q 458 25 534 64 q 288 -14 383 -14 q 124 42 186 -14 q 62 186 62 97 q 154 348 62 287 q 396 410 245 408 l 577 410 l 577 517 q 519 660 577 609 q 353 711 461 711 q 186 659 253 711 q 119 532 119 608 l 82 533 q 161 685 82 623 q 353 747 239 747 q 542 688 472 747 q 614 521 612 629 l 614 170 q 633 6 614 50 l 633 0 l 591 0 m 288 22 q 466 68 391 22 q 577 198 540 115 l 577 372 l 408 372 q 167 310 250 372 q 99 183 99 259 q 153 69 99 116 q 288 22 206 22 m 420 861 l 380 861 l 248 1042 l 293 1042 l 420 861 z "},"á":{"ha":733,"x_min":62,"x_max":633,"o":"m 591 0 q 577 134 577 47 q 458 25 534 64 q 288 -14 383 -14 q 124 42 186 -14 q 62 186 62 97 q 154 348 62 287 q 396 410 245 408 l 577 410 l 577 517 q 519 660 577 609 q 353 711 461 711 q 186 659 253 711 q 119 532 119 608 l 82 533 q 161 685 82 623 q 353 747 239 747 q 542 688 472 747 q 614 521 612 629 l 614 170 q 633 6 614 50 l 633 0 l 591 0 m 288 22 q 466 68 391 22 q 577 198 540 115 l 577 372 l 408 372 q 167 310 250 372 q 99 183 99 259 q 153 69 99 116 q 288 22 206 22 m 492 1042 l 537 1042 l 405 861 l 364 861 l 492 1042 z "},"â":{"ha":733,"x_min":62,"x_max":633,"o":"m 591 0 q 577 134 577 47 q 458 25 534 64 q 288 -14 383 -14 q 124 42 186 -14 q 62 186 62 97 q 154 348 62 287 q 396 410 245 408 l 577 410 l 577 517 q 519 660 577 609 q 353 711 461 711 q 186 659 253 711 q 119 532 119 608 l 82 533 q 161 685 82 623 q 353 747 239 747 q 542 688 472 747 q 614 521 612 629 l 614 170 q 633 6 614 50 l 633 0 l 591 0 m 288 22 q 466 68 391 22 q 577 198 540 115 l 577 372 l 408 372 q 167 310 250 372 q 99 183 99 259 q 153 69 99 116 q 288 22 206 22 m 564 864 l 564 857 l 517 857 l 391 990 l 265 857 l 222 857 l 222 867 l 378 1029 l 405 1029 l 564 864 z "},"ã":{"ha":733,"x_min":62,"x_max":633,"o":"m 591 0 q 577 134 577 47 q 458 25 534 64 q 288 -14 383 -14 q 124 42 186 -14 q 62 186 62 97 q 154 348 62 287 q 396 410 245 408 l 577 410 l 577 517 q 519 660 577 609 q 353 711 461 711 q 186 659 253 711 q 119 532 119 608 l 82 533 q 161 685 82 623 q 353 747 239 747 q 542 688 472 747 q 614 521 612 629 l 614 170 q 633 6 614 50 l 633 0 l 591 0 m 288 22 q 466 68 391 22 q 577 198 540 115 l 577 372 l 408 372 q 167 310 250 372 q 99 183 99 259 q 153 69 99 116 q 288 22 206 22 m 614 1008 q 579 917 614 952 q 494 882 545 882 q 391 924 439 882 q 300 966 342 966 q 240 943 262 966 q 218 882 218 920 l 180 882 q 214 969 180 936 q 300 1003 248 1003 q 404 961 353 1003 q 494 919 455 919 q 554 943 531 919 q 576 1008 576 968 l 614 1008 z "},"ä":{"ha":733,"x_min":62,"x_max":633,"o":"m 591 0 q 577 134 577 47 q 458 25 534 64 q 288 -14 383 -14 q 124 42 186 -14 q 62 186 62 97 q 154 348 62 287 q 396 410 245 408 l 577 410 l 577 517 q 519 660 577 609 q 353 711 461 711 q 186 659 253 711 q 119 532 119 608 l 82 533 q 161 685 82 623 q 353 747 239 747 q 542 688 472 747 q 614 521 612 629 l 614 170 q 633 6 614 50 l 633 0 l 591 0 m 288 22 q 466 68 391 22 q 577 198 540 115 l 577 372 l 408 372 q 167 310 250 372 q 99 183 99 259 q 153 69 99 116 q 288 22 206 22 m 204 964 q 215 990 204 979 q 241 1002 226 1002 q 268 990 257 1002 q 279 964 279 979 q 268 937 279 948 q 241 926 257 926 q 215 937 226 926 q 204 964 204 948 m 506 964 q 517 990 506 979 q 543 1002 528 1002 q 570 990 559 1002 q 581 964 581 979 q 570 937 581 948 q 543 926 559 926 q 517 937 528 926 q 506 964 506 948 z "},"å":{"ha":733,"x_min":62,"x_max":633,"o":"m 591 0 q 577 134 577 47 q 458 25 534 64 q 288 -14 383 -14 q 124 42 186 -14 q 62 186 62 97 q 154 348 62 287 q 396 410 245 408 l 577 410 l 577 517 q 519 660 577 609 q 353 711 461 711 q 186 659 253 711 q 119 532 119 608 l 82 533 q 161 685 82 623 q 353 747 239 747 q 542 688 472 747 q 614 521 612 629 l 614 170 q 633 6 614 50 l 633 0 l 591 0 m 288 22 q 466 68 391 22 q 577 198 540 115 l 577 372 l 408 372 q 167 310 250 372 q 99 183 99 259 q 153 69 99 116 q 288 22 206 22 m 393 1055 q 475 1021 441 1055 q 509 937 509 986 q 475 855 509 888 q 393 822 441 822 q 311 854 346 822 q 277 937 277 886 q 311 1022 277 988 q 393 1055 345 1055 m 313 937 q 336 880 313 902 q 393 859 358 859 q 450 880 427 859 q 472 937 472 902 q 450 996 472 974 q 393 1019 427 1019 q 336 996 358 1019 q 313 937 313 974 z "},"ǻ":{"ha":733,"x_min":62,"x_max":633,"o":"m 591 0 q 577 134 577 47 q 458 25 534 64 q 288 -14 383 -14 q 124 42 186 -14 q 62 186 62 97 q 154 348 62 287 q 396 410 245 408 l 577 410 l 577 517 q 519 660 577 609 q 353 711 461 711 q 186 659 253 711 q 119 532 119 608 l 82 533 q 161 685 82 623 q 353 747 239 747 q 542 688 472 747 q 614 521 612 629 l 614 170 q 633 6 614 50 l 633 0 l 591 0 m 288 22 q 466 68 391 22 q 577 198 540 115 l 577 372 l 408 372 q 167 310 250 372 q 99 183 99 259 q 153 69 99 116 q 288 22 206 22 m 490 1086 l 545 1086 l 420 956 l 375 956 l 490 1086 m 298 823 q 325 891 298 863 q 392 920 353 920 q 458 890 431 920 q 485 823 485 861 q 458 758 485 786 q 392 730 431 730 q 325 758 352 730 q 298 823 298 785 m 332 823 q 350 781 332 798 q 392 764 368 764 q 433 781 416 764 q 450 823 450 798 q 433 868 450 850 q 392 885 416 885 q 350 868 368 885 q 332 823 332 850 z "},"ç":{"ha":705,"x_min":66,"x_max":637,"o":"m 366 23 q 530 76 465 23 q 601 222 595 129 l 637 222 q 555 51 632 116 q 366 -14 479 -14 q 147 86 228 -14 q 66 357 66 186 l 66 381 q 147 648 66 548 q 364 747 228 747 q 557 677 481 747 q 637 492 633 608 l 601 492 q 531 651 596 591 q 364 711 467 711 q 172 622 241 711 q 102 376 102 534 l 102 353 q 173 111 102 199 q 366 23 243 23 m 390 -6 l 382 -58 q 503 -172 503 -68 q 451 -266 503 -230 q 309 -301 399 -301 l 304 -268 q 419 -241 373 -268 q 465 -172 465 -214 q 439 -115 465 -134 q 337 -88 413 -96 l 354 -6 l 390 -6 z "},"è":{"ha":700,"x_min":59,"x_max":646,"o":"m 380 -14 q 217 34 292 -14 q 101 165 143 82 q 59 351 59 249 l 59 381 q 100 568 59 483 q 212 700 140 652 q 367 747 283 747 q 568 660 490 747 q 646 430 646 572 l 646 391 l 96 391 l 96 351 q 133 185 96 262 q 237 66 171 109 q 380 22 303 22 q 506 47 454 22 q 598 123 558 72 l 624 105 q 380 -14 542 -14 m 367 711 q 185 631 260 711 q 98 428 111 551 l 609 428 l 609 437 q 577 575 609 511 q 491 675 546 640 q 367 711 435 711 m 414 861 l 374 861 l 241 1041 l 286 1041 l 414 861 z "},"é":{"ha":700,"x_min":59,"x_max":646,"o":"m 380 -14 q 217 34 292 -14 q 101 165 143 82 q 59 351 59 249 l 59 381 q 100 568 59 483 q 212 700 140 652 q 367 747 283 747 q 568 660 490 747 q 646 430 646 572 l 646 391 l 96 391 l 96 351 q 133 185 96 262 q 237 66 171 109 q 380 22 303 22 q 506 47 454 22 q 598 123 558 72 l 624 105 q 380 -14 542 -14 m 367 711 q 185 631 260 711 q 98 428 111 551 l 609 428 l 609 437 q 577 575 609 511 q 491 675 546 640 q 367 711 435 711 m 486 1041 l 530 1041 l 398 861 l 357 861 l 486 1041 z "},"ê":{"ha":700,"x_min":59,"x_max":646,"o":"m 380 -14 q 217 34 292 -14 q 101 165 143 82 q 59 351 59 249 l 59 381 q 100 568 59 483 q 212 700 140 652 q 367 747 283 747 q 568 660 490 747 q 646 430 646 572 l 646 391 l 96 391 l 96 351 q 133 185 96 262 q 237 66 171 109 q 380 22 303 22 q 506 47 454 22 q 598 123 558 72 l 624 105 q 380 -14 542 -14 m 367 711 q 185 631 260 711 q 98 428 111 551 l 609 428 l 609 437 q 577 575 609 511 q 491 675 546 640 q 367 711 435 711 m 557 863 l 557 857 l 511 857 l 384 989 l 258 857 l 215 857 l 215 866 l 371 1028 l 398 1028 l 557 863 z "},"ë":{"ha":700,"x_min":59,"x_max":646,"o":"m 380 -14 q 217 34 292 -14 q 101 165 143 82 q 59 351 59 249 l 59 381 q 100 568 59 483 q 212 700 140 652 q 367 747 283 747 q 568 660 490 747 q 646 430 646 572 l 646 391 l 96 391 l 96 351 q 133 185 96 262 q 237 66 171 109 q 380 22 303 22 q 506 47 454 22 q 598 123 558 72 l 624 105 q 380 -14 542 -14 m 367 711 q 185 631 260 711 q 98 428 111 551 l 609 428 l 609 437 q 577 575 609 511 q 491 675 546 640 q 367 711 435 711 m 197 963 q 208 990 197 979 q 235 1001 219 1001 q 261 990 250 1001 q 273 963 273 979 q 261 937 273 947 q 235 926 250 926 q 208 937 219 926 q 197 963 197 947 m 499 963 q 510 990 499 979 q 536 1001 521 1001 q 563 990 552 1001 q 574 963 574 979 q 563 937 574 947 q 536 926 552 926 q 510 937 521 926 q 499 963 499 947 z "},"ì":{"ha":275,"x_min":-1,"x_max":172,"o":"m 159 0 l 123 0 l 123 734 l 159 734 l 159 0 m 172 846 l 132 846 l -1 1026 l 44 1026 l 172 846 z "},"í":{"ha":275,"x_min":115,"x_max":288,"o":"m 159 0 l 123 0 l 123 734 l 159 734 l 159 0 m 243 1026 l 288 1026 l 155 846 l 115 846 l 243 1026 z "},"î":{"ha":275,"x_min":-27,"x_max":315,"o":"m 159 0 l 123 0 l 123 734 l 159 734 l 159 0 m 315 848 l 315 842 l 269 842 l 142 975 l 16 842 l -27 842 l -27 851 l 129 1013 l 156 1013 l 315 848 z "},"ï":{"ha":275,"x_min":-45,"x_max":332,"o":"m 159 0 l 123 0 l 123 734 l 159 734 l 159 0 m -45 948 q -34 975 -45 964 q -7 986 -23 986 q 19 975 8 986 q 31 948 31 964 q 19 922 31 932 q -7 911 8 911 q -34 922 -23 911 q -45 948 -45 932 m 257 948 q 268 975 257 964 q 294 986 279 986 q 321 975 310 986 q 332 948 332 964 q 321 922 332 932 q 294 911 310 911 q 268 922 279 911 q 257 948 257 932 z "},"ñ":{"ha":760,"x_min":117,"x_max":647,"o":"m 153 563 q 259 698 189 648 q 414 747 329 747 q 589 681 532 747 q 647 479 646 614 l 647 0 l 610 0 l 610 480 q 562 655 610 598 q 412 711 515 711 q 247 644 317 711 q 153 470 178 576 l 153 0 l 117 0 l 117 734 l 153 734 l 153 563 m 614 1006 q 580 916 614 951 q 495 880 546 880 q 391 923 440 880 q 300 965 342 965 q 240 942 262 965 q 218 880 218 919 l 181 880 q 215 968 181 935 q 300 1002 249 1002 q 405 960 353 1002 q 495 918 456 918 q 554 942 532 918 q 577 1006 577 966 l 614 1006 z "},"ò":{"ha":764,"x_min":61,"x_max":703,"o":"m 61 381 q 101 570 61 486 q 215 701 142 654 q 382 747 289 747 q 547 702 474 747 q 662 573 621 656 q 703 385 703 490 l 703 353 q 663 163 703 247 q 550 33 623 80 q 383 -14 476 -14 q 217 33 290 -14 q 102 162 143 79 q 61 349 62 245 l 61 381 m 98 353 q 134 185 98 261 q 235 66 170 109 q 383 23 300 23 q 588 117 509 23 q 667 360 667 212 l 667 381 q 630 548 667 471 q 529 668 593 625 q 382 711 464 711 q 177 615 256 711 q 98 374 98 519 l 98 353 m 414 860 l 374 860 l 241 1040 l 286 1040 l 414 860 z "},"ó":{"ha":764,"x_min":61,"x_max":703,"o":"m 61 381 q 101 570 61 486 q 215 701 142 654 q 382 747 289 747 q 547 702 474 747 q 662 573 621 656 q 703 385 703 490 l 703 353 q 663 163 703 247 q 550 33 623 80 q 383 -14 476 -14 q 217 33 290 -14 q 102 162 143 79 q 61 349 62 245 l 61 381 m 98 353 q 134 185 98 261 q 235 66 170 109 q 383 23 300 23 q 588 117 509 23 q 667 360 667 212 l 667 381 q 630 548 667 471 q 529 668 593 625 q 382 711 464 711 q 177 615 256 711 q 98 374 98 519 l 98 353 m 486 1040 l 530 1040 l 398 860 l 357 860 l 486 1040 z "},"ô":{"ha":764,"x_min":61,"x_max":703,"o":"m 61 381 q 101 570 61 486 q 215 701 142 654 q 382 747 289 747 q 547 702 474 747 q 662 573 621 656 q 703 385 703 490 l 703 353 q 663 163 703 247 q 550 33 623 80 q 383 -14 476 -14 q 217 33 290 -14 q 102 162 143 79 q 61 349 62 245 l 61 381 m 98 353 q 134 185 98 261 q 235 66 170 109 q 383 23 300 23 q 588 117 509 23 q 667 360 667 212 l 667 381 q 630 548 667 471 q 529 668 593 625 q 382 711 464 711 q 177 615 256 711 q 98 374 98 519 l 98 353 m 557 863 l 557 856 l 511 856 l 384 989 l 258 856 l 215 856 l 215 865 l 371 1027 l 398 1027 l 557 863 z "},"õ":{"ha":764,"x_min":61,"x_max":703,"o":"m 61 381 q 101 570 61 486 q 215 701 142 654 q 382 747 289 747 q 547 702 474 747 q 662 573 621 656 q 703 385 703 490 l 703 353 q 663 163 703 247 q 550 33 623 80 q 383 -14 476 -14 q 217 33 290 -14 q 102 162 143 79 q 61 349 62 245 l 61 381 m 98 353 q 134 185 98 261 q 235 66 170 109 q 383 23 300 23 q 588 117 509 23 q 667 360 667 212 l 667 381 q 630 548 667 471 q 529 668 593 625 q 382 711 464 711 q 177 615 256 711 q 98 374 98 519 l 98 353 m 607 1006 q 573 916 607 951 q 488 880 538 880 q 384 923 433 880 q 293 965 335 965 q 233 942 255 965 q 211 880 211 919 l 174 880 q 208 968 174 935 q 293 1002 241 1002 q 397 960 346 1002 q 488 918 448 918 q 547 942 524 918 q 570 1006 570 966 l 607 1006 z "},"ö":{"ha":764,"x_min":61,"x_max":703,"o":"m 61 381 q 101 570 61 486 q 215 701 142 654 q 382 747 289 747 q 547 702 474 747 q 662 573 621 656 q 703 385 703 490 l 703 353 q 663 163 703 247 q 550 33 623 80 q 383 -14 476 -14 q 217 33 290 -14 q 102 162 143 79 q 61 349 62 245 l 61 381 m 98 353 q 134 185 98 261 q 235 66 170 109 q 383 23 300 23 q 588 117 509 23 q 667 360 667 212 l 667 381 q 630 548 667 471 q 529 668 593 625 q 382 711 464 711 q 177 615 256 711 q 98 374 98 519 l 98 353 m 197 962 q 208 989 197 978 q 235 1000 219 1000 q 261 989 250 1000 q 273 962 273 978 q 261 936 273 947 q 235 925 250 925 q 208 936 219 925 q 197 962 197 947 m 499 962 q 510 989 499 978 q 536 1000 521 1000 q 563 989 552 1000 q 574 962 574 978 q 563 936 574 947 q 536 925 552 925 q 510 936 521 925 q 499 962 499 947 z "},"ù":{"ha":760,"x_min":114,"x_max":646,"o":"m 608 0 l 608 119 q 513 22 576 58 q 355 -14 451 -14 q 175 57 235 -14 q 114 261 115 127 l 114 734 l 151 734 l 151 260 q 203 83 152 143 q 354 23 255 23 q 525 73 459 23 q 608 218 591 122 l 608 734 l 646 734 l 646 0 l 608 0 m 422 861 l 382 861 l 250 1042 l 295 1042 l 422 861 z "},"ú":{"ha":760,"x_min":114,"x_max":646,"o":"m 608 0 l 608 119 q 513 22 576 58 q 355 -14 451 -14 q 175 57 235 -14 q 114 261 115 127 l 114 734 l 151 734 l 151 260 q 203 83 152 143 q 354 23 255 23 q 525 73 459 23 q 608 218 591 122 l 608 734 l 646 734 l 646 0 l 608 0 m 494 1042 l 539 1042 l 407 861 l 366 861 l 494 1042 z "},"û":{"ha":760,"x_min":114,"x_max":646,"o":"m 608 0 l 608 119 q 513 22 576 58 q 355 -14 451 -14 q 175 57 235 -14 q 114 261 115 127 l 114 734 l 151 734 l 151 260 q 203 83 152 143 q 354 23 255 23 q 525 73 459 23 q 608 218 591 122 l 608 734 l 646 734 l 646 0 l 608 0 m 566 864 l 566 857 l 519 857 l 393 990 l 267 857 l 224 857 l 224 867 l 380 1029 l 407 1029 l 566 864 z "},"ü":{"ha":760,"x_min":114,"x_max":646,"o":"m 608 0 l 608 119 q 513 22 576 58 q 355 -14 451 -14 q 175 57 235 -14 q 114 261 115 127 l 114 734 l 151 734 l 151 260 q 203 83 152 143 q 354 23 255 23 q 525 73 459 23 q 608 218 591 122 l 608 734 l 646 734 l 646 0 l 608 0 m 206 964 q 217 990 206 979 q 243 1002 228 1002 q 270 990 259 1002 q 281 964 281 979 q 270 937 281 948 q 243 926 259 926 q 217 937 228 926 q 206 964 206 948 m 508 964 q 519 990 508 979 q 545 1002 530 1002 q 572 990 561 1002 q 583 964 583 979 q 572 937 583 948 q 545 926 561 926 q 519 937 530 926 q 508 964 508 948 z "},"ý":{"ha":663,"x_min":29,"x_max":640,"o":"m 341 57 l 346 71 l 600 734 l 640 734 l 312 -127 l 296 -168 q 121 -296 243 -296 q 66 -289 81 -296 l 66 -254 q 115 -260 87 -260 q 211 -227 173 -260 q 277 -117 249 -193 l 321 4 l 29 734 l 69 734 l 341 57 m 453 1042 l 498 1042 l 366 861 l 325 861 l 453 1042 z "},"ÿ":{"ha":663,"x_min":29,"x_max":640,"o":"m 341 57 l 346 71 l 600 734 l 640 734 l 312 -127 l 296 -168 q 121 -296 243 -296 q 66 -289 81 -296 l 66 -254 q 115 -260 87 -260 q 211 -227 173 -260 q 277 -117 249 -193 l 321 4 l 29 734 l 69 734 l 341 57 m 165 964 q 176 990 165 979 q 202 1002 186 1002 q 229 990 218 1002 q 240 964 240 979 q 229 937 240 948 q 202 926 218 926 q 176 937 186 926 q 165 964 165 948 m 467 964 q 477 990 467 979 q 504 1002 488 1002 q 531 990 519 1002 q 542 964 542 979 q 531 937 542 948 q 504 926 519 926 q 477 937 488 926 q 467 964 467 948 z "},"Ā":{"ha":829,"x_min":22,"x_max":806,"o":"m 656 295 l 172 295 l 62 0 l 22 0 l 392 987 l 437 987 l 806 0 l 766 0 l 656 295 m 186 332 l 642 332 l 414 943 l 186 332 m 609 1162 l 224 1162 l 224 1198 l 609 1198 l 609 1162 z "},"ā":{"ha":733,"x_min":62,"x_max":633,"o":"m 591 0 q 577 134 577 47 q 458 25 534 64 q 288 -14 383 -14 q 124 42 186 -14 q 62 186 62 97 q 154 348 62 287 q 396 410 245 408 l 577 410 l 577 517 q 519 660 577 609 q 353 711 461 711 q 186 659 253 711 q 119 532 119 608 l 82 533 q 161 685 82 623 q 353 747 239 747 q 542 688 472 747 q 614 521 612 629 l 614 170 q 633 6 614 50 l 633 0 l 591 0 m 288 22 q 466 68 391 22 q 577 198 540 115 l 577 372 l 408 372 q 167 310 250 372 q 99 183 99 259 q 153 69 99 116 q 288 22 206 22 m 585 945 l 201 945 l 201 981 l 585 981 l 585 945 z "},"Ă":{"ha":829,"x_min":22,"x_max":806,"o":"m 656 295 l 172 295 l 62 0 l 22 0 l 392 987 l 437 987 l 806 0 l 766 0 l 656 295 m 186 332 l 642 332 l 414 943 l 186 332 m 603 1227 q 552 1105 603 1152 q 414 1059 500 1059 q 276 1105 328 1059 q 225 1227 225 1152 l 262 1227 q 300 1132 262 1166 q 414 1097 339 1097 q 527 1132 487 1097 q 566 1227 566 1167 l 603 1227 z "},"ă":{"ha":733,"x_min":62,"x_max":633,"o":"m 591 0 q 577 134 577 47 q 458 25 534 64 q 288 -14 383 -14 q 124 42 186 -14 q 62 186 62 97 q 154 348 62 287 q 396 410 245 408 l 577 410 l 577 517 q 519 660 577 609 q 353 711 461 711 q 186 659 253 711 q 119 532 119 608 l 82 533 q 161 685 82 623 q 353 747 239 747 q 542 688 472 747 q 614 521 612 629 l 614 170 q 633 6 614 50 l 633 0 l 591 0 m 288 22 q 466 68 391 22 q 577 198 540 115 l 577 372 l 408 372 q 167 310 250 372 q 99 183 99 259 q 153 69 99 116 q 288 22 206 22 m 579 1010 q 528 888 579 935 q 391 842 477 842 q 253 888 304 842 q 201 1010 201 935 l 238 1010 q 277 915 238 949 q 391 880 315 880 q 503 915 463 880 q 543 1010 543 950 l 579 1010 z "},"Ą":{"ha":829,"x_min":22,"x_max":827,"o":"m 437 987 l 806 0 q 705 -95 730 -59 q 679 -167 679 -132 q 742 -231 679 -231 q 817 -205 781 -231 l 827 -238 q 742 -268 789 -268 q 669 -243 696 -268 q 642 -167 642 -218 q 764 4 642 -93 l 656 295 l 172 295 l 62 0 l 22 0 l 392 987 l 437 987 m 186 332 l 642 332 l 414 943 l 186 332 z "},"ą":{"ha":733,"x_min":62,"x_max":654,"o":"m 590 3 q 577 134 577 52 q 458 25 534 64 q 288 -14 383 -14 q 124 42 186 -14 q 62 186 62 97 q 154 348 62 287 q 396 410 245 408 l 577 410 l 577 517 q 519 660 577 609 q 353 711 461 711 q 186 659 253 711 q 119 532 119 608 l 82 533 q 161 685 82 623 q 353 747 239 747 q 542 688 472 747 q 614 521 612 629 l 614 170 q 633 6 614 50 l 633 0 q 531 -95 557 -59 q 505 -167 505 -132 q 568 -231 505 -231 q 643 -205 607 -231 l 654 -238 q 568 -268 616 -268 q 496 -243 523 -268 q 469 -167 469 -218 q 590 3 469 -90 m 288 22 q 466 68 391 22 q 577 198 540 115 l 577 372 l 408 372 q 167 310 250 372 q 99 183 99 259 q 153 69 99 116 q 288 22 206 22 z "},"Ć":{"ha":900,"x_min":98,"x_max":807,"o":"m 807 302 q 702 68 793 150 q 455 -14 611 -14 q 269 40 350 -14 q 143 191 188 93 q 98 415 98 289 l 98 568 q 142 793 98 694 q 268 947 186 892 q 455 1001 349 1001 q 701 920 610 1001 q 807 686 793 838 l 770 686 q 675 893 755 823 q 455 964 596 964 q 223 856 311 964 q 134 565 134 747 l 134 420 q 174 213 134 303 q 287 73 213 123 q 455 23 360 23 q 676 93 597 23 q 770 302 756 163 l 807 302 m 561 1272 l 606 1272 l 473 1092 l 433 1092 l 561 1272 z "},"ć":{"ha":705,"x_min":66,"x_max":637,"o":"m 366 23 q 530 76 465 23 q 601 222 595 129 l 637 222 q 555 51 632 116 q 366 -14 479 -14 q 147 86 228 -14 q 66 357 66 186 l 66 381 q 147 648 66 548 q 364 747 228 747 q 557 677 481 747 q 637 492 633 608 l 601 492 q 531 651 596 591 q 364 711 467 711 q 172 622 241 711 q 102 376 102 534 l 102 353 q 173 111 102 199 q 366 23 243 23 m 472 1040 l 517 1040 l 385 860 l 344 860 l 472 1040 z "},"Ĉ":{"ha":900,"x_min":98,"x_max":807,"o":"m 807 302 q 702 68 793 150 q 455 -14 611 -14 q 269 40 350 -14 q 143 191 188 93 q 98 415 98 289 l 98 568 q 142 793 98 694 q 268 947 186 892 q 455 1001 349 1001 q 701 920 610 1001 q 807 686 793 838 l 770 686 q 675 893 755 823 q 455 964 596 964 q 223 856 311 964 q 134 565 134 747 l 134 420 q 174 213 134 303 q 287 73 213 123 q 455 23 360 23 q 676 93 597 23 q 770 302 756 163 l 807 302 m 632 1095 l 632 1088 l 586 1088 l 459 1221 l 334 1088 l 290 1088 l 290 1097 l 446 1259 l 473 1259 l 632 1095 z "},"ĉ":{"ha":705,"x_min":66,"x_max":637,"o":"m 366 23 q 530 76 465 23 q 601 222 595 129 l 637 222 q 555 51 632 116 q 366 -14 479 -14 q 147 86 228 -14 q 66 357 66 186 l 66 381 q 147 648 66 548 q 364 747 228 747 q 557 677 481 747 q 637 492 633 608 l 601 492 q 531 651 596 591 q 364 711 467 711 q 172 622 241 711 q 102 376 102 534 l 102 353 q 173 111 102 199 q 366 23 243 23 m 543 863 l 543 856 l 497 856 l 370 989 l 245 856 l 201 856 l 201 865 l 357 1027 l 385 1027 l 543 863 z "},"Ċ":{"ha":900,"x_min":98,"x_max":807,"o":"m 807 302 q 702 68 793 150 q 455 -14 611 -14 q 269 40 350 -14 q 143 191 188 93 q 98 415 98 289 l 98 568 q 142 793 98 694 q 268 947 186 892 q 455 1001 349 1001 q 701 920 610 1001 q 807 686 793 838 l 770 686 q 675 893 755 823 q 455 964 596 964 q 223 856 311 964 q 134 565 134 747 l 134 420 q 174 213 134 303 q 287 73 213 123 q 455 23 360 23 q 676 93 597 23 q 770 302 756 163 l 807 302 m 422 1178 q 433 1205 422 1194 q 460 1216 444 1216 q 487 1205 475 1216 q 498 1178 498 1194 q 487 1152 498 1162 q 460 1141 475 1141 q 433 1152 444 1141 q 422 1178 422 1162 z "},"ċ":{"ha":705,"x_min":66,"x_max":637,"o":"m 366 23 q 530 76 465 23 q 601 222 595 129 l 637 222 q 555 51 632 116 q 366 -14 479 -14 q 147 86 228 -14 q 66 357 66 186 l 66 381 q 147 648 66 548 q 364 747 228 747 q 557 677 481 747 q 637 492 633 608 l 601 492 q 531 651 596 591 q 364 711 467 711 q 172 622 241 711 q 102 376 102 534 l 102 353 q 173 111 102 199 q 366 23 243 23 m 334 946 q 345 973 334 962 q 371 984 355 984 q 398 973 387 984 q 409 946 409 962 q 398 920 409 930 q 371 909 387 909 q 345 920 355 909 q 334 946 334 930 z "},"Č":{"ha":900,"x_min":98,"x_max":807,"o":"m 807 302 q 702 68 793 150 q 455 -14 611 -14 q 269 40 350 -14 q 143 191 188 93 q 98 415 98 289 l 98 568 q 142 793 98 694 q 268 947 186 892 q 455 1001 349 1001 q 701 920 610 1001 q 807 686 793 838 l 770 686 q 675 893 755 823 q 455 964 596 964 q 223 856 311 964 q 134 565 134 747 l 134 420 q 174 213 134 303 q 287 73 213 123 q 455 23 360 23 q 676 93 597 23 q 770 302 756 163 l 807 302 m 459 1108 l 591 1255 l 627 1255 l 627 1246 l 479 1077 l 439 1077 l 290 1248 l 290 1255 l 328 1255 l 459 1108 z "},"č":{"ha":705,"x_min":66,"x_max":637,"o":"m 366 23 q 530 76 465 23 q 601 222 595 129 l 637 222 q 555 51 632 116 q 366 -14 479 -14 q 147 86 228 -14 q 66 357 66 186 l 66 381 q 147 648 66 548 q 364 747 228 747 q 557 677 481 747 q 637 492 633 608 l 601 492 q 531 651 596 591 q 364 711 467 711 q 172 622 241 711 q 102 376 102 534 l 102 353 q 173 111 102 199 q 366 23 243 23 m 370 876 l 502 1023 l 538 1023 l 538 1014 l 390 844 l 350 844 l 201 1015 l 201 1023 l 239 1023 l 370 876 z "},"Ď":{"ha":909,"x_min":136,"x_max":817,"o":"m 136 0 l 136 987 l 409 987 q 616 933 524 987 q 762 781 709 879 q 817 562 815 683 l 817 433 q 765 211 817 310 q 620 56 713 112 q 412 0 527 1 l 136 0 m 172 951 l 172 37 l 409 37 q 598 87 513 37 q 731 228 683 138 q 780 429 779 319 l 780 556 q 733 757 780 667 q 601 898 686 847 q 414 951 517 949 l 172 951 m 399 1094 l 531 1241 l 567 1241 l 567 1232 l 419 1063 l 379 1063 l 230 1234 l 230 1241 l 269 1241 l 399 1094 z "},"ď":{"ha":862,"x_min":83,"x_max":812,"o":"m 83 374 q 157 649 83 550 q 359 747 231 747 q 506 710 442 747 q 608 599 569 673 l 608 1042 l 645 1042 l 645 0 l 608 0 l 608 117 q 506 21 571 55 q 358 -14 441 -14 q 157 87 231 -14 q 83 365 83 189 l 83 374 m 121 360 q 182 114 121 204 q 357 23 244 23 q 513 63 448 23 q 608 182 577 104 l 608 526 q 359 711 545 711 q 183 622 246 711 q 121 360 121 533 m 753 825 l 728 847 q 774 966 770 905 l 775 1042 l 812 1042 l 812 988 q 753 825 811 891 z "},"Ē":{"ha":791,"x_min":136,"x_max":736,"o":"m 667 490 l 172 490 l 172 37 l 736 37 l 736 0 l 136 0 l 136 987 l 736 987 l 736 951 l 172 951 l 172 526 l 667 526 l 667 490 m 614 1162 l 229 1162 l 229 1198 l 614 1198 l 614 1162 z "},"ē":{"ha":700,"x_min":59,"x_max":646,"o":"m 380 -14 q 217 34 292 -14 q 101 165 143 82 q 59 351 59 249 l 59 381 q 100 568 59 483 q 212 700 140 652 q 367 747 283 747 q 568 660 490 747 q 646 430 646 572 l 646 391 l 96 391 l 96 351 q 133 185 96 262 q 237 66 171 109 q 380 22 303 22 q 506 47 454 22 q 598 123 558 72 l 624 105 q 380 -14 542 -14 m 367 711 q 185 631 260 711 q 98 428 111 551 l 609 428 l 609 437 q 577 575 609 511 q 491 675 546 640 q 367 711 435 711 m 578 944 l 194 944 l 194 980 l 578 980 l 578 944 z "},"Ĕ":{"ha":791,"x_min":136,"x_max":736,"o":"m 667 490 l 172 490 l 172 37 l 736 37 l 736 0 l 136 0 l 136 987 l 736 987 l 736 951 l 172 951 l 172 526 l 667 526 l 667 490 m 608 1227 q 556 1105 608 1152 q 419 1059 505 1059 q 281 1105 332 1059 q 230 1227 230 1152 l 267 1227 q 305 1132 267 1166 q 419 1097 344 1097 q 531 1132 492 1097 q 571 1227 571 1167 l 608 1227 z "},"ĕ":{"ha":700,"x_min":59,"x_max":646,"o":"m 380 -14 q 217 34 292 -14 q 101 165 143 82 q 59 351 59 249 l 59 381 q 100 568 59 483 q 212 700 140 652 q 367 747 283 747 q 568 660 490 747 q 646 430 646 572 l 646 391 l 96 391 l 96 351 q 133 185 96 262 q 237 66 171 109 q 380 22 303 22 q 506 47 454 22 q 598 123 558 72 l 624 105 q 380 -14 542 -14 m 367 711 q 185 631 260 711 q 98 428 111 551 l 609 428 l 609 437 q 577 575 609 511 q 491 675 546 640 q 367 711 435 711 m 572 1010 q 521 888 572 934 q 384 842 470 842 q 246 888 297 842 q 195 1010 195 934 l 231 1010 q 270 914 231 948 q 384 880 309 880 q 496 915 456 880 q 536 1010 536 949 l 572 1010 z "},"Ė":{"ha":791,"x_min":136,"x_max":736,"o":"m 667 490 l 172 490 l 172 37 l 736 37 l 736 0 l 136 0 l 136 987 l 736 987 l 736 951 l 172 951 l 172 526 l 667 526 l 667 490 m 382 1164 q 393 1191 382 1179 q 420 1202 404 1202 q 447 1191 435 1202 q 458 1164 458 1179 q 447 1137 458 1148 q 420 1126 435 1126 q 393 1137 404 1126 q 382 1164 382 1148 z "},"ė":{"ha":700,"x_min":59,"x_max":646,"o":"m 380 -14 q 217 34 292 -14 q 101 165 143 82 q 59 351 59 249 l 59 381 q 100 568 59 483 q 212 700 140 652 q 367 747 283 747 q 568 660 490 747 q 646 430 646 572 l 646 391 l 96 391 l 96 351 q 133 185 96 262 q 237 66 171 109 q 380 22 303 22 q 506 47 454 22 q 598 123 558 72 l 624 105 q 380 -14 542 -14 m 367 711 q 185 631 260 711 q 98 428 111 551 l 609 428 l 609 437 q 577 575 609 511 q 491 675 546 640 q 367 711 435 711 m 347 947 q 358 974 347 962 q 385 985 369 985 q 411 974 400 985 q 422 947 422 962 q 411 920 422 931 q 385 909 400 909 q 358 920 369 909 q 347 947 347 931 z "},"Ę":{"ha":791,"x_min":136,"x_max":736,"o":"m 667 490 l 172 490 l 172 37 l 736 37 l 736 0 l 696 0 q 595 -95 621 -59 q 569 -167 569 -132 q 632 -231 569 -231 q 707 -205 671 -231 l 718 -238 q 632 -268 680 -268 q 559 -243 587 -268 q 532 -167 532 -218 q 650 0 532 -92 l 136 0 l 136 987 l 736 987 l 736 951 l 172 951 l 172 526 l 667 526 l 667 490 z "},"ę":{"ha":700,"x_min":59,"x_max":646,"o":"m 380 -14 q 217 34 292 -14 q 101 165 143 82 q 59 351 59 249 l 59 381 q 100 568 59 483 q 212 700 140 652 q 367 747 283 747 q 568 660 490 747 q 646 430 646 572 l 646 391 l 96 391 l 96 351 q 133 185 96 262 q 237 66 171 109 q 380 22 303 22 q 506 47 454 22 q 598 123 558 72 l 624 105 q 562 41 597 67 l 564 39 q 463 -56 488 -20 q 437 -127 437 -92 q 500 -192 437 -192 q 574 -166 538 -192 l 585 -199 q 500 -229 547 -229 q 427 -204 454 -229 q 400 -127 400 -179 q 470 -2 400 -72 q 380 -14 427 -14 m 367 711 q 185 631 260 711 q 98 428 111 551 l 609 428 l 609 437 q 577 575 609 511 q 491 675 546 640 q 367 711 435 711 z "},"Ě":{"ha":791,"x_min":136,"x_max":736,"o":"m 667 490 l 172 490 l 172 37 l 736 37 l 736 0 l 136 0 l 136 987 l 736 987 l 736 951 l 172 951 l 172 526 l 667 526 l 667 490 m 419 1094 l 551 1241 l 587 1241 l 587 1232 l 439 1063 l 399 1063 l 250 1234 l 250 1241 l 288 1241 l 419 1094 z "},"ě":{"ha":700,"x_min":59,"x_max":646,"o":"m 380 -14 q 217 34 292 -14 q 101 165 143 82 q 59 351 59 249 l 59 381 q 100 568 59 483 q 212 700 140 652 q 367 747 283 747 q 568 660 490 747 q 646 430 646 572 l 646 391 l 96 391 l 96 351 q 133 185 96 262 q 237 66 171 109 q 380 22 303 22 q 506 47 454 22 q 598 123 558 72 l 624 105 q 380 -14 542 -14 m 367 711 q 185 631 260 711 q 98 428 111 551 l 609 428 l 609 437 q 577 575 609 511 q 491 675 546 640 q 367 711 435 711 m 384 876 l 515 1023 l 551 1023 l 551 1015 l 404 845 l 363 845 l 214 1016 l 214 1023 l 253 1023 l 384 876 z "},"Ĝ":{"ha":954,"x_min":114,"x_max":831,"o":"m 831 106 q 701 20 794 54 q 494 -14 607 -14 q 298 40 385 -14 q 164 191 212 94 q 114 412 115 289 l 114 582 q 161 800 114 703 q 292 948 208 896 q 483 1001 377 1001 q 723 926 630 1001 q 830 720 815 850 l 793 720 q 695 901 775 838 q 483 964 615 964 q 242 858 334 964 q 151 578 151 751 l 151 420 q 194 214 151 304 q 315 73 237 123 q 494 23 393 23 q 678 52 593 23 q 795 123 763 81 l 795 410 l 493 410 l 493 448 l 831 448 l 831 106 m 649 1095 l 649 1088 l 603 1088 l 476 1221 l 351 1088 l 307 1088 l 307 1097 l 463 1259 l 490 1259 l 649 1095 z "},"ĝ":{"ha":762,"x_min":82,"x_max":644,"o":"m 82 374 q 156 649 82 550 q 359 747 230 747 q 505 710 441 747 q 607 600 568 672 l 607 734 l 644 734 l 644 13 q 570 -214 644 -132 q 367 -296 495 -296 q 232 -264 293 -296 q 127 -172 170 -232 l 153 -148 q 246 -231 195 -202 q 366 -260 297 -260 q 542 -191 479 -260 q 607 3 605 -122 l 607 116 q 504 20 569 54 q 357 -14 439 -14 q 156 87 230 -14 q 82 365 82 189 l 82 374 m 119 360 q 182 113 119 203 q 357 23 244 23 q 515 66 450 23 q 607 187 580 109 l 607 520 q 358 711 547 711 q 182 622 245 711 q 119 360 119 533 m 557 863 l 557 856 l 511 856 l 384 989 l 258 856 l 215 856 l 215 865 l 371 1027 l 398 1027 l 557 863 z "},"Ğ":{"ha":954,"x_min":114,"x_max":831,"o":"m 831 106 q 701 20 794 54 q 494 -14 607 -14 q 298 40 385 -14 q 164 191 212 94 q 114 412 115 289 l 114 582 q 161 800 114 703 q 292 948 208 896 q 483 1001 377 1001 q 723 926 630 1001 q 830 720 815 850 l 793 720 q 695 901 775 838 q 483 964 615 964 q 242 858 334 964 q 151 578 151 751 l 151 420 q 194 214 151 304 q 315 73 237 123 q 494 23 393 23 q 678 52 593 23 q 795 123 763 81 l 795 410 l 493 410 l 493 448 l 831 448 l 831 106 m 665 1242 q 613 1120 665 1166 q 476 1074 562 1074 q 338 1120 389 1074 q 287 1242 287 1166 l 323 1242 q 362 1146 323 1180 q 476 1112 401 1112 q 588 1146 549 1112 q 628 1242 628 1181 l 665 1242 z "},"ğ":{"ha":762,"x_min":82,"x_max":644,"o":"m 82 374 q 156 649 82 550 q 359 747 230 747 q 505 710 441 747 q 607 600 568 672 l 607 734 l 644 734 l 644 13 q 570 -214 644 -132 q 367 -296 495 -296 q 232 -264 293 -296 q 127 -172 170 -232 l 153 -148 q 246 -231 195 -202 q 366 -260 297 -260 q 542 -191 479 -260 q 607 3 605 -122 l 607 116 q 504 20 569 54 q 357 -14 439 -14 q 156 87 230 -14 q 82 365 82 189 l 82 374 m 119 360 q 182 113 119 203 q 357 23 244 23 q 515 66 450 23 q 607 187 580 109 l 607 520 q 358 711 547 711 q 182 622 245 711 q 119 360 119 533 m 572 1009 q 521 887 572 933 q 384 841 470 841 q 246 887 297 841 q 195 1009 195 933 l 231 1009 q 270 913 231 947 q 384 879 309 879 q 496 914 456 879 q 536 1009 536 949 l 572 1009 z "},"Ġ":{"ha":954,"x_min":114,"x_max":831,"o":"m 831 106 q 701 20 794 54 q 494 -14 607 -14 q 298 40 385 -14 q 164 191 212 94 q 114 412 115 289 l 114 582 q 161 800 114 703 q 292 948 208 896 q 483 1001 377 1001 q 723 926 630 1001 q 830 720 815 850 l 793 720 q 695 901 775 838 q 483 964 615 964 q 242 858 334 964 q 151 578 151 751 l 151 420 q 194 214 151 304 q 315 73 237 123 q 494 23 393 23 q 678 52 593 23 q 795 123 763 81 l 795 410 l 493 410 l 493 448 l 831 448 l 831 106 m 439 1178 q 450 1205 439 1194 q 477 1216 461 1216 q 504 1205 492 1216 q 515 1178 515 1194 q 504 1152 515 1162 q 477 1141 492 1141 q 450 1152 461 1141 q 439 1178 439 1162 z "},"ġ":{"ha":762,"x_min":82,"x_max":644,"o":"m 82 374 q 156 649 82 550 q 359 747 230 747 q 505 710 441 747 q 607 600 568 672 l 607 734 l 644 734 l 644 13 q 570 -214 644 -132 q 367 -296 495 -296 q 232 -264 293 -296 q 127 -172 170 -232 l 153 -148 q 246 -231 195 -202 q 366 -260 297 -260 q 542 -191 479 -260 q 607 3 605 -122 l 607 116 q 504 20 569 54 q 357 -14 439 -14 q 156 87 230 -14 q 82 365 82 189 l 82 374 m 119 360 q 182 113 119 203 q 357 23 244 23 q 515 66 450 23 q 607 187 580 109 l 607 520 q 358 711 547 711 q 182 622 245 711 q 119 360 119 533 m 347 946 q 358 973 347 962 q 385 984 369 984 q 411 973 400 984 q 422 946 422 962 q 411 920 422 930 q 385 909 400 909 q 358 920 369 909 q 347 946 347 930 z "},"Ģ":{"ha":954,"x_min":114,"x_max":831,"o":"m 831 106 q 701 20 794 54 q 494 -14 607 -14 q 298 40 385 -14 q 164 191 212 94 q 114 412 115 289 l 114 582 q 161 800 114 703 q 292 948 208 896 q 483 1001 377 1001 q 723 926 630 1001 q 830 720 815 850 l 793 720 q 695 901 775 838 q 483 964 615 964 q 242 858 334 964 q 151 578 151 751 l 151 420 q 194 214 151 304 q 315 73 237 123 q 494 23 393 23 q 678 52 593 23 q 795 123 763 81 l 795 410 l 493 410 l 493 448 l 831 448 l 831 106 m 455 -283 l 430 -261 q 476 -142 472 -203 l 477 -66 l 513 -66 l 513 -120 q 455 -283 513 -217 z "},"ģ":{"ha":762,"x_min":82,"x_max":644,"o":"m 82 374 q 156 649 82 550 q 359 747 230 747 q 505 710 441 747 q 607 600 568 672 l 607 734 l 644 734 l 644 13 q 570 -214 644 -132 q 367 -296 495 -296 q 232 -264 293 -296 q 127 -172 170 -232 l 153 -148 q 246 -231 195 -202 q 366 -260 297 -260 q 542 -191 479 -260 q 607 3 605 -122 l 607 116 q 504 20 569 54 q 357 -14 439 -14 q 156 87 230 -14 q 82 365 82 189 l 82 374 m 119 360 q 182 113 119 203 q 357 23 244 23 q 515 66 450 23 q 607 187 580 109 l 607 520 q 358 711 547 711 q 182 622 245 711 q 119 360 119 533 m 406 1078 l 435 1067 q 402 962 404 1003 l 402 864 l 366 864 l 366 958 q 406 1078 367 1013 z "},"Ĥ":{"ha":975,"x_min":136,"x_max":840,"o":"m 840 0 l 803 0 l 803 490 l 172 490 l 172 0 l 136 0 l 136 987 l 172 987 l 172 526 l 803 526 l 803 987 l 840 987 l 840 0 m 658 1080 l 658 1074 l 612 1074 l 485 1206 l 359 1074 l 316 1074 l 316 1083 l 472 1245 l 499 1245 l 658 1080 z "},"ĥ":{"ha":760,"x_min":117,"x_max":647,"o":"m 153 563 q 259 698 189 648 q 414 747 329 747 q 589 681 532 747 q 647 479 646 614 l 647 0 l 610 0 l 610 480 q 562 655 610 598 q 412 711 515 711 q 247 644 317 711 q 153 470 178 576 l 153 0 l 117 0 l 117 1042 l 153 1042 l 153 563 m 493 1080 l 493 1073 l 447 1073 l 320 1206 l 195 1073 l 151 1073 l 151 1082 l 307 1244 l 334 1244 l 493 1080 z "},"Ĩ":{"ha":362,"x_min":-28,"x_max":405,"o":"m 199 0 l 163 0 l 163 987 l 199 987 l 199 0 m 405 1225 q 371 1134 405 1169 q 286 1099 336 1099 q 182 1141 231 1099 q 91 1183 133 1183 q 31 1160 53 1183 q 9 1099 9 1137 l -28 1099 q 5 1186 -28 1153 q 91 1220 39 1220 q 195 1178 144 1220 q 286 1136 246 1136 q 345 1160 322 1136 q 368 1225 368 1185 l 405 1225 z "},"ĩ":{"ha":275,"x_min":-68,"x_max":365,"o":"m 159 0 l 123 0 l 123 734 l 159 734 l 159 0 m 365 993 q 331 902 365 937 q 245 867 296 867 q 142 909 191 867 q 51 951 93 951 q -9 928 13 951 q -31 867 -31 905 l -68 867 q -35 955 -68 921 q 51 988 -1 988 q 155 946 104 988 q 245 904 206 904 q 305 928 282 904 q 328 993 328 953 l 365 993 z "},"Ī":{"ha":362,"x_min":-8,"x_max":376,"o":"m 199 0 l 163 0 l 163 987 l 199 987 l 199 0 m 376 1162 l -8 1162 l -8 1198 l 376 1198 l 376 1162 z "},"ī":{"ha":275,"x_min":-48,"x_max":336,"o":"m 159 0 l 123 0 l 123 734 l 159 734 l 159 0 m 336 930 l -48 930 l -48 966 l 336 966 l 336 930 z "},"Ĭ":{"ha":362,"x_min":-7,"x_max":370,"o":"m 199 0 l 163 0 l 163 987 l 199 987 l 199 0 m 370 1227 q 319 1105 370 1152 q 182 1059 268 1059 q 44 1105 95 1059 q -7 1227 -7 1152 l 29 1227 q 68 1132 29 1166 q 182 1097 106 1097 q 294 1132 254 1097 q 334 1227 334 1167 l 370 1227 z "},"ĭ":{"ha":275,"x_min":-47,"x_max":330,"o":"m 159 0 l 123 0 l 123 734 l 159 734 l 159 0 m 330 996 q 279 873 330 920 q 142 827 228 827 q 4 873 55 827 q -47 996 -47 920 l -11 996 q 28 900 -11 934 q 142 865 66 865 q 254 900 214 865 q 294 996 294 935 l 330 996 z "},"Į":{"ha":362,"x_min":37,"x_max":222,"o":"m 199 0 l 163 0 l 163 987 l 199 987 l 199 0 m 201 0 q 99 -95 125 -59 q 73 -167 73 -132 q 136 -231 73 -231 q 211 -205 175 -231 l 222 -238 q 136 -268 184 -268 q 64 -243 91 -268 q 37 -167 37 -218 q 172 14 37 -87 l 201 0 z "},"į":{"ha":286,"x_min":-2,"x_max":183,"o":"m 162 0 l 125 0 l 125 734 l 162 734 l 162 0 m 106 963 q 117 990 106 979 q 144 1001 128 1001 q 171 990 159 1001 q 182 963 182 979 q 171 937 182 947 q 144 926 159 926 q 117 937 128 926 q 106 963 106 947 m 162 0 q 60 -95 86 -59 q 35 -167 35 -132 q 98 -231 35 -231 q 172 -205 136 -231 l 183 -238 q 98 -268 145 -268 q 25 -243 52 -268 q -2 -167 -2 -218 q 133 14 -2 -87 l 162 0 z "},"İ":{"ha":362,"x_min":144,"x_max":220,"o":"m 199 0 l 163 0 l 163 987 l 199 987 l 199 0 m 144 1164 q 155 1191 144 1179 q 182 1202 166 1202 q 209 1191 197 1202 q 220 1164 220 1179 q 209 1137 220 1148 q 182 1126 197 1126 q 155 1137 166 1126 q 144 1164 144 1148 z "},"Ĳ":{"ha":1125,"x_min":163,"x_max":993,"o":"m 199 0 l 163 0 l 163 987 l 199 987 l 199 0 m 956 987 l 993 987 l 993 300 q 915 72 993 157 q 708 -14 837 -14 q 496 60 570 -14 q 423 272 423 134 l 460 272 q 522 87 460 151 q 708 23 584 23 q 885 96 817 23 q 956 293 954 168 l 956 987 z "},"ĳ":{"ha":588,"x_min":106,"x_max":472,"o":"m 162 0 l 125 0 l 125 734 l 162 734 l 162 0 m 106 963 q 117 990 106 979 q 144 1001 128 1001 q 171 990 159 1001 q 182 963 182 979 q 171 937 182 947 q 144 926 159 926 q 117 937 128 926 q 106 963 106 947 m 449 734 l 449 -87 q 398 -243 449 -189 q 256 -296 347 -296 q 189 -283 222 -296 l 191 -248 q 256 -260 224 -260 q 372 -215 332 -260 q 412 -87 412 -170 l 412 734 l 449 734 m 397 963 q 408 990 397 979 q 434 1001 418 1001 q 461 990 450 1001 q 472 963 472 979 q 461 937 472 947 q 434 926 450 926 q 408 937 418 926 q 397 963 397 947 z "}}}
